<?xml version="1.0" encoding="UTF-8"?><!DOCTYPE score-partwise PUBLIC "-//Recordare//DTD MusicXML 3.1 Partwise//EN" "http://www.musicxml.org/dtds/partwise.dtd"><score-partwise version="3.1"><work><work-title>Twinkle Twinkle Little Star</work-title></work><identification><encoding><software>MuseScore 3.6.2</software><encoding-date>2022-06-20</encoding-date><supports element="accidental" type="yes"/><supports element="beam" type="yes"/><supports element="print" attribute="new-page" type="yes" value="yes"/><supports element="print" attribute="new-system" type="yes" value="yes"/><supports element="stem" type="yes"/></encoding></identification><defaults><scaling><millimeters>6.99911</millimeters><tenths>40</tenths></scaling><page-layout><page-height>1596.77</page-height><page-width>1233.87</page-width><page-margins type="even"><left-margin>85.7252</left-margin><right-margin>85.7252</right-margin><top-margin>85.7252</top-margin><bottom-margin>85.7252</bottom-margin></page-margins><page-margins type="odd"><left-margin>85.7252</left-margin><right-margin>85.7252</right-margin><top-margin>85.7252</top-margin><bottom-margin>85.7252</bottom-margin></page-margins></page-layout><word-font font-family="Edwin" font-size="10"/><lyric-font font-family="Edwin" font-size="10"/></defaults><part-list><part-group type="start" number="1"><group-symbol>brace</group-symbol></part-group><score-part id="P1"><part-name>Piano 1</part-name><part-abbreviation>Pno. 1</part-abbreviation><score-instrument id="P1-I1"><instrument-name>Piano</instrument-name></score-instrument><midi-device id="P1-I1" port="1"></midi-device><midi-instrument id="P1-I1"><midi-channel>1</midi-channel><midi-program>1</midi-program><volume>100</volume><pan>0</pan></midi-instrument></score-part><score-part id="P2"><part-name>Piano 2</part-name><part-abbreviation>Pno. 2</part-abbreviation><score-instrument id="P2-I1"><instrument-name>Piano</instrument-name></score-instrument><midi-device id="P2-I1" port="1"></midi-device><midi-instrument id="P2-I1"><midi-channel>2</midi-channel><midi-program>1</midi-program><volume>80</volume><pan>0</pan></midi-instrument></score-part><part-group type="stop" number="1"/></part-list><part id="P1"><measure number="1"><print><system-layout><system-margins><left-margin>65.90</left-margin><right-margin>0.00</right-margin></system-margins><top-system-distance>170.00</top-system-distance></system-layout><staff-layout number="2"><staff-distance>65.00</staff-distance></staff-layout></print><attributes><divisions>1</divisions><key><fifths>0</fifths></key><time><beats>4</beats><beat-type>4</beat-type></time><staves>2</staves><clef number="1"><sign>G</sign><line>2</line></clef><clef number="2"><sign>F</sign><line>4</line></clef></attributes><note><pitch><step>C</step><octave>5</octave></pitch><duration>1</duration><voice>1</voice><type>quarter</type><stem>up</stem><staff>1</staff></note><note><pitch><step>C</step><octave>5</octave></pitch><duration>1</duration><voice>1</voice><type>quarter</type><stem>up</stem><staff>1</staff></note><note><pitch><step>G</step><octave>5</octave></pitch><duration>1</duration><voice>1</voice><type>quarter</type><stem>up</stem><staff>1</staff></note><note><pitch><step>G</step><octave>5</octave></pitch><duration>1</duration><voice>1</voice><type>quarter</type><stem>up</stem><staff>1</staff></note><backup><duration>4</duration></backup><note><pitch><step>C</step><octave>4</octave></pitch><duration>1</duration><voice>1</voice><type>quarter</type><stem>up</stem><staff>1</staff></note><note><pitch><step>C</step><octave>4</octave></pitch><duration>1</duration><voice>1</voice><type>quarter</type><stem>up</stem><staff>1</staff></note><note><pitch><step>G</step><octave>4</octave></pitch><duration>1</duration><voice>1</voice><type>quarter</type><stem>up</stem><staff>1</staff></note><note><pitch><step>G</step><octave>4</octave></pitch><duration>1</duration><voice>1</voice><type>quarter</type><stem>up</stem><staff>1</staff></note><backup><duration>4</duration></backup><note><pitch><step>C</step><octave>3</octave></pitch><duration>4</duration><voice>1</voice><type>whole</type><stem>up</stem><staff>2</staff></note><backup><duration>4</duration></backup><note><pitch><step>E</step><octave>3</octave></pitch><duration>4</duration><voice>1</voice><type>whole</type><stem>up</stem><staff>2</staff></note><backup><duration>4</duration></backup><note><pitch><step>G</step><octave>3</octave></pitch><duration>4</duration><voice>1</voice><type>whole</type><stem>up</stem><staff>2</staff></note></measure><measure number="2"><note><pitch><step>A</step><octave>5</octave></pitch><duration>1</duration><voice>1</voice><type>quarter</type><stem>up</stem><staff>1</staff></note><note><pitch><step>A</step><octave>5</octave></pitch><duration>1</duration><voice>1</voice><type>quarter</type><stem>up</stem><staff>1</staff></note><note><pitch><step>G</step><octave>5</octave></pitch><duration>2</duration><voice>1</voice><type>half</type><stem>up</stem><staff>1</staff></note><backup><duration>4</duration></backup><note><pitch><step>A</step><octave>4</octave></pitch><duration>1</duration><voice>1</voice><type>quarter</type><stem>up</stem><staff>1</staff></note><note><pitch><step>A</step><octave>4</octave></pitch><duration>1</duration><voice>1</voice><type>quarter</type><stem>up</stem><staff>1</staff></note><note><pitch><step>G</step><octave>4</octave></pitch><duration>2</duration><voice>1</voice><type>half</type><stem>up</stem><staff>1</staff></note><backup><duration>4</duration></backup><note><pitch><step>F</step><octave>3</octave></pitch><duration>2</duration><voice>1</voice><type>half</type><stem>up</stem><staff>2</staff></note><note><pitch><step>C</step><octave>3</octave></pitch><duration>2</duration><voice>1</voice><type>half</type><stem>up</stem><staff>2</staff></note><backup><duration>4</duration></backup><note><pitch><step>A</step><octave>3</octave></pitch><duration>2</duration><voice>1</voice><type>half</type><stem>up</stem><staff>2</staff></note><note><pitch><step>E</step><octave>3</octave></pitch><duration>2</duration><voice>1</voice><type>half</type><stem>up</stem><staff>2</staff></note><backup><duration>4</duration></backup><note><pitch><step>C</step><octave>3</octave></pitch><duration>2</duration><voice>1</voice><type>half</type><stem>up</stem><staff>2</staff></note><note><pitch><step>G</step><octave>3</octave></pitch><duration>2</duration><voice>1</voice><type>half</type><stem>up</stem><staff>2</staff></note></measure><measure number="3"><note><pitch><step>F</step><octave>5</octave></pitch><duration>1</duration><voice>1</voice><type>quarter</type><stem>up</stem><staff>1</staff></note><note><pitch><step>F</step><octave>5</octave></pitch><duration>1</duration><voice>1</voice><type>quarter</type><stem>up</stem><staff>1</staff></note><note><pitch><step>E</step><octave>5</octave></pitch><duration>1</duration><voice>1</voice><type>quarter</type><stem>up</stem><staff>1</staff></note><note><pitch><step>E</step><octave>5</octave></pitch><duration>1</duration><voice>1</voice><type>quarter</type><stem>up</stem><staff>1</staff></note><backup><duration>4</duration></backup><note><pitch><step>F</step><octave>4</octave></pitch><duration>1</duration><voice>1</voice><type>quarter</type><stem>up</stem><staff>1</staff></note><note><pitch><step>F</step><octave>4</octave></pitch><duration>1</duration><voice>1</voice><type>quarter</type><stem>up</stem><staff>1</staff></note><note><pitch><step>E</step><octave>4</octave></pitch><duration>1</duration><voice>1</voice><type>quarter</type><stem>up</stem><staff>1</staff></note><note><pitch><step>E</step><octave>4</octave></pitch><duration>1</duration><voice>1</voice><type>quarter</type><stem>up</stem><staff>1</staff></note><backup><duration>4</duration></backup><note><pitch><step>F</step><octave>3</octave></pitch><duration>2</duration><voice>1</voice><type>half</type><stem>up</stem><staff>2</staff></note><note><pitch><step>A</step><octave>3</octave></pitch><duration>2</duration><voice>1</voice><type>half</type><stem>up</stem><staff>2</staff></note><backup><duration>4</duration></backup><note><pitch><step>A</step><octave>3</octave></pitch><duration>2</duration><voice>1</voice><type>half</type><stem>up</stem><staff>2</staff></note><note><pitch><step>C</step><octave>3</octave></pitch><duration>2</duration><voice>1</voice><type>half</type><stem>up</stem><staff>2</staff></note><backup><duration>4</duration></backup><note><pitch><step>C</step><octave>3</octave></pitch><duration>2</duration><voice>1</voice><type>half</type><stem>up</stem><staff>2</staff></note><note><pitch><step>E</step><octave>3</octave></pitch><duration>2</duration><voice>1</voice><type>half</type><stem>up</stem><staff>2</staff></note></measure><measure number="4"><note><pitch><step>D</step><octave>5</octave></pitch><duration>1</duration><voice>1</voice><type>quarter</type><stem>up</stem><staff>1</staff></note><note><pitch><step>D</step><octave>5</octave></pitch><duration>1</duration><voice>1</voice><type>quarter</type><stem>up</stem><staff>1</staff></note><note><pitch><step>C</step><octave>5</octave></pitch><duration>2</duration><voice>1</voice><type>half</type><stem>up</stem><staff>1</staff></note><backup><duration>4</duration></backup><note><pitch><step>D</step><octave>4</octave></pitch><duration>1</duration><voice>1</voice><type>quarter</type><stem>up</stem><staff>1</staff></note><note><pitch><step>D</step><octave>4</octave></pitch><duration>1</duration><voice>1</voice><type>quarter</type><stem>up</stem><staff>1</staff></note><note><pitch><step>C</step><octave>4</octave></pitch><duration>2</duration><voice>1</voice><type>half</type><stem>up</stem><staff>1</staff></note><backup><duration>4</duration></backup><note><pitch><step>G</step><octave>3</octave></pitch><duration>2</duration><voice>1</voice><type>half</type><stem>up</stem><staff>2</staff></note><note><pitch><step>C</step><octave>3</octave></pitch><duration>2</duration><voice>1</voice><type>half</type><stem>up</stem><staff>2</staff></note><backup><duration>4</duration></backup><note><pitch><step>B</step><octave>3</octave></pitch><duration>2</duration><voice>1</voice><type>half</type><stem>up</stem><staff>2</staff></note><note><pitch><step>E</step><octave>3</octave></pitch><duration>2</duration><voice>1</voice><type>half</type><stem>up</stem><staff>2</staff></note><backup><duration>4</duration></backup><note><pitch><step>D</step><octave>3</octave></pitch><duration>2</duration><voice>1</voice><type>half</type><stem>up</stem><staff>2</staff></note><note><pitch><step>G</step><octave>3</octave></pitch><duration>2</duration><voice>1</voice><type>half</type><stem>up</stem><staff>2</staff></note></measure><measure number="5"><note><pitch><step>G</step><octave>5</octave></pitch><duration>1</duration><voice>1</voice><type>quarter</type><stem>up</stem><staff>1</staff></note><note><pitch><step>G</step><octave>5</octave></pitch><duration>1</duration><voice>1</voice><type>quarter</type><stem>up</stem><staff>1</staff></note><note><pitch><step>F</step><octave>5</octave></pitch><duration>1</duration><voice>1</voice><type>quarter</type><stem>up</stem><staff>1</staff></note><note><pitch><step>F</step><octave>5</octave></pitch><duration>1</duration><voice>1</voice><type>quarter</type><stem>up</stem><staff>1</staff></note><backup><duration>4</duration></backup><note><pitch><step>G</step><octave>4</octave></pitch><duration>1</duration><voice>1</voice><type>quarter</type><stem>up</stem><staff>1</staff></note><note><pitch><step>G</step><octave>4</octave></pitch><duration>1</duration><voice>1</voice><type>quarter</type><stem>up</stem><staff>1</staff></note><note><pitch><step>F</step><octave>4</octave></pitch><duration>1</duration><voice>1</voice><type>quarter</type><stem>up</stem><staff>1</staff></note><note><pitch><step>F</step><octave>4</octave></pitch><duration>1</duration><voice>1</voice><type>quarter</type><stem>up</stem><staff>1</staff></note><backup><duration>4</duration></backup><note><pitch><step>C</step><octave>3</octave></pitch><duration>2</duration><voice>1</voice><type>half</type><stem>up</stem><staff>2</staff></note><note><pitch><step>F</step><octave>3</octave></pitch><duration>2</duration><voice>1</voice><type>half</type><stem>up</stem><staff>2</staff></note><backup><duration>4</duration></backup><note><pitch><step>E</step><octave>3</octave></pitch><duration>2</duration><voice>1</voice><type>half</type><stem>up</stem><staff>2</staff></note><note><pitch><step>A</step><octave>3</octave></pitch><duration>2</duration><voice>1</voice><type>half</type><stem>up</stem><staff>2</staff></note><backup><duration>4</duration></backup><note><pitch><step>G</step><octave>3</octave></pitch><duration>2</duration><voice>1</voice><type>half</type><stem>up</stem><staff>2</staff></note><note><pitch><step>C</step><octave>3</octave></pitch><duration>2</duration><voice>1</voice><type>half</type><stem>up</stem><staff>2</staff></note></measure><measure number="6"><note><pitch><step>E</step><octave>5</octave></pitch><duration>1</duration><voice>1</voice><type>quarter</type><stem>up</stem><staff>1</staff></note><note><pitch><step>E</step><octave>5</octave></pitch><duration>1</duration><voice>1</voice><type>quarter</type><stem>up</stem><staff>1</staff></note><note><pitch><step>D</step><octave>5</octave></pitch><duration>2</duration><voice>1</voice><type>half</type><stem>up</stem><staff>1</staff></note><backup><duration>4</duration></backup><note><pitch><step>E</step><octave>4</octave></pitch><duration>1</duration><voice>1</voice><type>quarter</type><stem>up</stem><staff>1</staff></note><note><pitch><step>E</step><octave>4</octave></pitch><duration>1</duration><voice>1</voice><type>quarter</type><stem>up</stem><staff>1</staff></note><note><pitch><step>D</step><octave>4</octave></pitch><duration>2</duration><voice>1</voice><type>half</type><stem>up</stem><staff>1</staff></note><backup><duration>4</duration></backup><note><pitch><step>A</step><octave>3</octave></pitch><duration>2</duration><voice>1</voice><type>half</type><stem>up</stem><staff>2</staff></note><note><pitch><step>G</step><octave>3</octave></pitch><duration>2</duration><voice>1</voice><type>half</type><stem>up</stem><staff>2</staff></note><backup><duration>4</duration></backup><note><pitch><step>C</step><octave>3</octave></pitch><duration>2</duration><voice>1</voice><type>half</type><stem>up</stem><staff>2</staff></note><note><pitch><step>B</step><octave>3</octave></pitch><duration>2</duration><voice>1</voice><type>half</type><stem>up</stem><staff>2</staff></note><backup><duration>4</duration></backup><note><pitch><step>E</step><octave>3</octave></pitch><duration>2</duration><voice>1</voice><type>half</type><stem>up</stem><staff>2</staff></note><note><pitch><step>D</step><octave>3</octave></pitch><duration>2</duration><voice>1</voice><type>half</type><stem>up</stem><staff>2</staff></note></measure><measure number="7"><note><pitch><step>G</step><octave>5</octave></pitch><duration>1</duration><voice>1</voice><type>quarter</type><stem>up</stem><staff>1</staff></note><note><pitch><step>G</step><octave>5</octave></pitch><duration>1</duration><voice>1</voice><type>quarter</type><stem>up</stem><staff>1</staff></note><note><pitch><step>F</step><octave>5</octave></pitch><duration>1</duration><voice>1</voice><type>quarter</type><stem>up</stem><staff>1</staff></note><note><pitch><step>F</step><octave>5</octave></pitch><duration>1</duration><voice>1</voice><type>quarter</type><stem>up</stem><staff>1</staff></note><backup><duration>4</duration></backup><note><pitch><step>G</step><octave>4</octave></pitch><duration>1</duration><voice>1</voice><type>quarter</type><stem>up</stem><staff>1</staff></note><note><pitch><step>G</step><octave>4</octave></pitch><duration>1</duration><voice>1</voice><type>quarter</type><stem>up</stem><staff>1</staff></note><note><pitch><step>F</step><octave>4</octave></pitch><duration>1</duration><voice>1</voice><type>quarter</type><stem>up</stem><staff>1</staff></note><note><pitch><step>F</step><octave>4</octave></pitch><duration>1</duration><voice>1</voice><type>quarter</type><stem>up</stem><staff>1</staff></note><backup><duration>4</duration></backup><note><pitch><step>C</step><octave>3</octave></pitch><duration>2</duration><voice>1</voice><type>half</type><stem>up</stem><staff>2</staff></note><note><pitch><step>F</step><octave>3</octave></pitch><duration>2</duration><voice>1</voice><type>half</type><stem>up</stem><staff>2</staff></note><backup><duration>4</duration></backup><note><pitch><step>E</step><octave>3</octave></pitch><duration>2</duration><voice>1</voice><type>half</type><stem>up</stem><staff>2</staff></note><note><pitch><step>A</step><octave>3</octave></pitch><duration>2</duration><voice>1</voice><type>half</type><stem>up</stem><staff>2</staff></note><backup><duration>4</duration></backup><note><pitch><step>G</step><octave>3</octave></pitch><duration>2</duration><voice>1</voice><type>half</type><stem>up</stem><staff>2</staff></note><note><pitch><step>C</step><octave>3</octave></pitch><duration>2</duration><voice>1</voice><type>half</type><stem>up</stem><staff>2</staff></note></measure><measure number="8"><note><pitch><step>E</step><octave>5</octave></pitch><duration>1</duration><voice>1</voice><type>quarter</type><stem>up</stem><staff>1</staff></note><note><pitch><step>E</step><octave>5</octave></pitch><duration>1</duration><voice>1</voice><type>quarter</type><stem>up</stem><staff>1</staff></note><note><pitch><step>D</step><octave>5</octave></pitch><duration>2</duration><voice>1</voice><type>half</type><stem>up</stem><staff>1</staff></note><backup><duration>4</duration></backup><note><pitch><step>E</step><octave>4</octave></pitch><duration>1</duration><voice>1</voice><type>quarter</type><stem>up</stem><staff>1</staff></note><note><pitch><step>E</step><octave>4</octave></pitch><duration>1</duration><voice>1</voice><type>quarter</type><stem>up</stem><staff>1</staff></note><note><pitch><step>D</step><octave>4</octave></pitch><duration>2</duration><voice>1</voice><type>half</type><stem>up</stem><staff>1</staff></note><backup><duration>4</duration></backup><note><pitch><step>A</step><octave>3</octave></pitch><duration>2</duration><voice>1</voice><type>half</type><stem>up</stem><staff>2</staff></note><note><pitch><step>G</step><octave>3</octave></pitch><duration>2</duration><voice>1</voice><type>half</type><stem>up</stem><staff>2</staff></note><backup><duration>4</duration></backup><note><pitch><step>C</step><octave>3</octave></pitch><duration>2</duration><voice>1</voice><type>half</type><stem>up</stem><staff>2</staff></note><note><pitch><step>B</step><octave>3</octave></pitch><duration>2</duration><voice>1</voice><type>half</type><stem>up</stem><staff>2</staff></note><backup><duration>4</duration></backup><note><pitch><step>E</step><octave>3</octave></pitch><duration>2</duration><voice>1</voice><type>half</type><stem>up</stem><staff>2</staff></note><note><pitch><step>D</step><octave>3</octave></pitch><duration>2</duration><voice>1</voice><type>half</type><stem>up</stem><staff>2</staff></note></measure><measure number="9"><note><pitch><step>C</step><octave>5</octave></pitch><duration>1</duration><voice>1</voice><type>quarter</type><stem>up</stem><staff>1</staff></note><note><pitch><step>C</step><octave>5</octave></pitch><duration>1</duration><voice>1</voice><type>quarter</type><stem>up</stem><staff>1</staff></note><note><pitch><step>G</step><octave>5</octave></pitch><duration>1</duration><voice>1</voice><type>quarter</type><stem>up</stem><staff>1</staff></note><note><pitch><step>G</step><octave>5</octave></pitch><duration>1</duration><voice>1</voice><type>quarter</type><stem>up</stem><staff>1</staff></note><backup><duration>4</duration></backup><note><pitch><step>C</step><octave>4</octave></pitch><duration>1</duration><voice>1</voice><type>quarter</type><stem>up</stem><staff>1</staff></note><note><pitch><step>C</step><octave>4</octave></pitch><duration>1</duration><voice>1</voice><type>quarter</type><stem>up</stem><staff>1</staff></note><note><pitch><step>G</step><octave>4</octave></pitch><duration>1</duration><voice>1</voice><type>quarter</type><stem>up</stem><staff>1</staff></note><note><pitch><step>G</step><octave>4</octave></pitch><duration>1</duration><voice>1</voice><type>quarter</type><stem>up</stem><staff>1</staff></note><backup><duration>4</duration></backup><note><pitch><step>C</step><octave>3</octave></pitch><duration>4</duration><voice>1</voice><type>whole</type><stem>up</stem><staff>2</staff></note><backup><duration>4</duration></backup><note><pitch><step>E</step><octave>3</octave></pitch><duration>4</duration><voice>1</voice><type>whole</type><stem>up</stem><staff>2</staff></note><backup><duration>4</duration></backup><note><pitch><step>G</step><octave>3</octave></pitch><duration>4</duration><voice>1</voice><type>whole</type><stem>up</stem><staff>2</staff></note></measure><measure number="10"><note><pitch><step>A</step><octave>5</octave></pitch><duration>1</duration><voice>1</voice><type>quarter</type><stem>up</stem><staff>1</staff></note><note><pitch><step>A</step><octave>5</octave></pitch><duration>1</duration><voice>1</voice><type>quarter</type><stem>up</stem><staff>1</staff></note><note><pitch><step>G</step><octave>5</octave></pitch><duration>2</duration><voice>1</voice><type>half</type><stem>up</stem><staff>1</staff></note><backup><duration>4</duration></backup><note><pitch><step>A</step><octave>4</octave></pitch><duration>1</duration><voice>1</voice><type>quarter</type><stem>up</stem><staff>1</staff></note><note><pitch><step>A</step><octave>4</octave></pitch><duration>1</duration><voice>1</voice><type>quarter</type><stem>up</stem><staff>1</staff></note><note><pitch><step>G</step><octave>4</octave></pitch><duration>2</duration><voice>1</voice><type>half</type><stem>up</stem><staff>1</staff></note><backup><duration>4</duration></backup><note><pitch><step>F</step><octave>3</octave></pitch><duration>2</duration><voice>1</voice><type>half</type><stem>up</stem><staff>2</staff></note><note><pitch><step>C</step><octave>3</octave></pitch><duration>2</duration><voice>1</voice><type>half</type><stem>up</stem><staff>2</staff></note><backup><duration>4</duration></backup><note><pitch><step>A</step><octave>3</octave></pitch><duration>2</duration><voice>1</voice><type>half</type><stem>up</stem><staff>2</staff></note><note><pitch><step>E</step><octave>3</octave></pitch><duration>2</duration><voice>1</voice><type>half</type><stem>up</stem><staff>2</staff></note><backup><duration>4</duration></backup><note><pitch><step>C</step><octave>3</octave></pitch><duration>2</duration><voice>1</voice><type>half</type><stem>up</stem><staff>2</staff></note><note><pitch><step>G</step><octave>3</octave></pitch><duration>2</duration><voice>1</voice><type>half</type><stem>up</stem><staff>2</staff></note></measure><measure number="11"><note><pitch><step>F</step><octave>5</octave></pitch><duration>1</duration><voice>1</voice><type>quarter</type><stem>up</stem><staff>1</staff></note><note><pitch><step>F</step><octave>5</octave></pitch><duration>1</duration><voice>1</voice><type>quarter</type><stem>up</stem><staff>1</staff></note><note><pitch><step>E</step><octave>5</octave></pitch><duration>1</duration><voice>1</voice><type>quarter</type><stem>up</stem><staff>1</staff></note><note><pitch><step>E</step><octave>5</octave></pitch><duration>1</duration><voice>1</voice><type>quarter</type><stem>up</stem><staff>1</staff></note><backup><duration>4</duration></backup><note><pitch><step>F</step><octave>4</octave></pitch><duration>1</duration><voice>1</voice><type>quarter</type><stem>up</stem><staff>1</staff></note><note><pitch><step>F</step><octave>4</octave></pitch><duration>1</duration><voice>1</voice><type>quarter</type><stem>up</stem><staff>1</staff></note><note><pitch><step>E</step><octave>4</octave></pitch><duration>1</duration><voice>1</voice><type>quarter</type><stem>up</stem><staff>1</staff></note><note><pitch><step>E</step><octave>4</octave></pitch><duration>1</duration><voice>1</voice><type>quarter</type><stem>up</stem><staff>1</staff></note><backup><duration>4</duration></backup><note><pitch><step>F</step><octave>3</octave></pitch><duration>2</duration><voice>1</voice><type>half</type><stem>up</stem><staff>2</staff></note><note><pitch><step>A</step><octave>3</octave></pitch><duration>2</duration><voice>1</voice><type>half</type><stem>up</stem><staff>2</staff></note><backup><duration>4</duration></backup><note><pitch><step>A</step><octave>3</octave></pitch><duration>2</duration><voice>1</voice><type>half</type><stem>up</stem><staff>2</staff></note><note><pitch><step>C</step><octave>3</octave></pitch><duration>2</duration><voice>1</voice><type>half</type><stem>up</stem><staff>2</staff></note><backup><duration>4</duration></backup><note><pitch><step>C</step><octave>3</octave></pitch><duration>2</duration><voice>1</voice><type>half</type><stem>up</stem><staff>2</staff></note><note><pitch><step>E</step><octave>3</octave></pitch><duration>2</duration><voice>1</voice><type>half</type><stem>up</stem><staff>2</staff></note></measure><measure number="12"><note><pitch><step>D</step><octave>5</octave></pitch><duration>1</duration><voice>1</voice><type>quarter</type><stem>up</stem><staff>1</staff></note><note><pitch><step>D</step><octave>5</octave></pitch><duration>1</duration><voice>1</voice><type>quarter</type><stem>up</stem><staff>1</staff></note><note><pitch><step>C</step><octave>5</octave></pitch><duration>2</duration><voice>1</voice><type>half</type><stem>up</stem><staff>1</staff></note><backup><duration>4</duration></backup><note><pitch><step>D</step><octave>4</octave></pitch><duration>1</duration><voice>1</voice><type>quarter</type><stem>up</stem><staff>1</staff></note><note><pitch><step>D</step><octave>4</octave></pitch><duration>1</duration><voice>1</voice><type>quarter</type><stem>up</stem><staff>1</staff></note><note><pitch><step>C</step><octave>4</octave></pitch><duration>2</duration><voice>1</voice><type>half</type><stem>up</stem><staff>1</staff></note><backup><duration>4</duration></backup><note><pitch><step>G</step><octave>3</octave></pitch><duration>2</duration><voice>1</voice><type>half</type><stem>up</stem><staff>2</staff></note><note><pitch><step>C</step><octave>3</octave></pitch><duration>2</duration><voice>1</voice><type>half</type><stem>up</stem><staff>2</staff></note><backup><duration>4</duration></backup><note><pitch><step>B</step><octave>3</octave></pitch><duration>2</duration><voice>1</voice><type>half</type><stem>up</stem><staff>2</staff></note><note><pitch><step>E</step><octave>3</octave></pitch><duration>2</duration><voice>1</voice><type>half</type><stem>up</stem><staff>2</staff></note><backup><duration>4</duration></backup><note><pitch><step>D</step><octave>3</octave></pitch><duration>2</duration><voice>1</voice><type>half</type><stem>up</stem><staff>2</staff></note><note><pitch><step>G</step><octave>3</octave></pitch><duration>2</duration><voice>1</voice><type>half</type><stem>up</stem><staff>2</staff></note><barline location="right"><bar-style>light-heavy</bar-style></barline></measure></part><part id="P2"><measure number="1"><print><system-layout><system-margins><left-margin>65.90</left-margin><right-margin>0.00</right-margin></system-margins><top-system-distance>170.00</top-system-distance></system-layout><staff-layout number="2"><staff-distance>65.00</staff-distance></staff-layout></print><attributes><divisions>1</divisions><key><fifths>0</fifths></key><time><beats>4</beats><beat-type>4</beat-type></time><staves>2</staves><clef number="1"><sign>G</sign><line>2</line></clef><clef number="2"><sign>F</sign><line>4</line></clef></attributes><note><pitch><step>G</step><octave>5</octave></pitch><duration>0.5</duration><voice>1</voice><type>eighth</type><stem>up</stem><staff>1</staff></note><note><pitch><step>E</step><octave>5</octave></pitch><duration>0.5</duration><voice>1</voice><type>eighth</type><stem>up</stem><staff>1</staff></note><note><pitch><step>C</step><octave>5</octave></pitch><duration>0.5</duration><voice>1</voice><type>eighth</type><stem>up</stem><staff>1</staff></note><note><pitch><step>G</step><octave>5</octave></pitch><duration>0.5</duration><voice>1</voice><type>eighth</type><stem>up</stem><staff>1</staff></note><note><pitch><step>C</step><octave>5</octave></pitch><duration>0.5</duration><voice>1</voice><type>eighth</type><stem>up</stem><staff>1</staff></note><note><rest/><duration>0.5</duration><voice>1</voice><type>eighth</type><staff>1</staff></note><note><pitch><step>C</step><octave>5</octave></pitch><duration>0.5</duration><voice>1</voice><type>eighth</type><stem>up</stem><staff>1</staff></note><note><pitch><step>C</step><octave>5</octave></pitch><duration>0.5</duration><voice>1</voice><type>eighth</type><stem>up</stem><staff>1</staff></note><backup><duration>4</duration></backup><note><rest/><duration>0.5</duration><voice>2</voice><type>eighth</type><staff>1</staff></note><note><pitch><step>E</step><octave>4</octave></pitch><duration>0.5</duration><voice>2</voice><type>eighth</type><stem>up</stem><staff>1</staff></note><note><pitch><step>E</step><octave>4</octave></pitch><duration>0.5</duration><voice>2</voice><type>eighth</type><stem>up</stem><staff>1</staff></note><note><pitch><step>G</step><octave>4</octave></pitch><duration>0.5</duration><voice>2</voice><type>eighth</type><stem>up</stem><staff>1</staff></note><note><pitch><step>C</step><octave>4</octave></pitch><duration>0.5</duration><voice>2</voice><type>eighth</type><stem>up</stem><staff>1</staff></note><note><pitch><step>G</step><octave>4</octave></pitch><duration>0.5</duration><voice>2</voice><type>eighth</type><stem>up</stem><staff>1</staff></note><note><pitch><step>C</step><octave>4</octave></pitch><duration>0.5</duration><voice>2</voice><type>eighth</type><stem>up</stem><staff>1</staff></note><note><pitch><step>E</step><octave>4</octave></pitch><duration>0.5</duration><voice>2</voice><type>eighth</type><stem>up</stem><staff>1</staff></note><backup><duration>4</duration></backup><note><rest/><duration>0.5</duration><voice>3</voice><type>eighth</type><staff>2</staff></note><note><rest/><duration>0.5</duration><voice>3</voice><type>eighth</type><staff>2</staff></note><note><rest/><duration>0.5</duration><voice>3</voice><type>eighth</type><staff>2</staff></note><note><pitch><step>E</step><octave>3</octave></pitch><duration>0.5</duration><voice>3</voice><type>eighth</type><stem>up</stem><staff>2</staff></note><note><pitch><step>C</step><octave>3</octave></pitch><duration>0.5</duration><voice>3</voice><type>eighth</type><stem>up</stem><staff>2</staff></note><note><pitch><step>E</step><octave>3</octave></pitch><duration>0.5</duration><voice>3</voice><type>eighth</type><stem>up</stem><staff>2</staff></note><note><pitch><step>C</step><octave>3</octave></pitch><duration>0.5</duration><voice>3</voice><type>eighth</type><stem>up</stem><staff>2</staff></note><note><rest/><duration>0.5</duration><voice>3</voice><type>eighth</type><staff>2</staff></note><backup><duration>4</duration></backup><note><pitch><step>E</step><octave>2</octave></pitch><duration>0.5</duration><voice>4</voice><type>eighth</type><stem>up</stem><staff>2</staff></note><note><rest/><duration>0.5</duration><voice>4</voice><type>eighth</type><staff>2</staff></note><note><pitch><step>G</step><octave>2</octave></pitch><duration>0.5</duration><voice>4</voice><type>eighth</type><stem>up</stem><staff>2</staff></note><note><pitch><step>G</step><octave>2</octave></pitch><duration>0.5</duration><voice>4</voice><type>eighth</type><stem>up</stem><staff>2</staff></note><note><pitch><step>C</step><octave>2</octave></pitch><duration>0.5</duration><voice>4</voice><type>eighth</type><stem>up</stem><staff>2</staff></note><note><pitch><step>E</step><octave>2</octave></pitch><duration>0.5</duration><voice>4</voice><type>eighth</type><stem>up</stem><staff>2</staff></note><note><pitch><step>G</step><octave>2</octave></pitch><duration>0.5</duration><voice>4</voice><type>eighth</type><stem>up</stem><staff>2</staff></note><note><pitch><step>E</step><octave>2</octave></pitch><duration>0.5</duration><voice>4</voice><type>eighth</type><stem>up</stem><staff>2</staff></note></measure><measure number="2"><note><pitch><step>C</step><octave>5</octave></pitch><duration>0.5</duration><voice>1</voice><type>eighth</type><stem>up</stem><staff>1</staff></note><note><pitch><step>A</step><octave>5</octave></pitch><duration>0.5</duration><voice>1</voice><type>eighth</type><stem>up</stem><staff>1</staff></note><note><pitch><step>A</step><octave>5</octave></pitch><duration>0.5</duration><voice>1</voice><type>eighth</type><stem>up</stem><staff>1</staff></note><note><pitch><step>A</step><octave>5</octave></pitch><duration>0.5</duration><voice>1</voice><type>eighth</type><stem>up</stem><staff>1</staff></note><note><pitch><step>E</step><octave>5</octave></pitch><duration>0.5</duration><voice>1</voice><type>eighth</type><stem>up</stem><staff>1</staff></note><note><pitch><step>G</step><octave>5</octave></pitch><duration>0.5</duration><voice>1</voice><type>eighth</type><stem>up</stem><staff>1</staff></note><note><pitch><step>C</step><octave>5</octave></pitch><duration>0.5</duration><voice>1</voice><type>eighth</type><stem>up</stem><staff>1</staff></note><note><rest/><duration>0.5</duration><voice>1</voice><type>eighth</type><staff>1</staff></note><backup><duration>4</duration></backup><note><pitch><step>A</step><octave>4</octave></pitch><duration>0.5</duration><voice>2</voice><type>eighth</type><stem>up</stem><staff>1</staff></note><note><rest/><duration>0.5</duration><voice>2</voice><type>eighth</type><staff>1</staff></note><note><pitch><step>A</step><octave>4</octave></pitch><duration>0.5</duration><voice>2</voice><type>eighth</type><stem>up</stem><staff>1</staff></note><note><rest/><duration>0.5</duration><voice>2</voice><type>eighth</type><staff>1</staff></note><note><rest/><duration>0.5</duration><voice>2</voice><type>eighth</type><staff>1</staff></note><note><pitch><step>E</step><octave>4</octave></pitch><duration>0.5</duration><voice>2</voice><type>eighth</type><stem>up</stem><staff>1</staff></note><note><pitch><step>C</step><octave>4</octave></pitch><duration>0.5</duration><voice>2</voice><type>eighth</type><stem>up</stem><staff>1</staff></note><note><pitch><step>G</step><octave>4</octave></pitch><duration>0.5</duration><voice>2</voice><type>eighth</type><stem>up</stem><staff>1</staff></note><backup><duration>4</duration></backup><note><pitch><step>A</step><octave>3</octave></pitch><duration>0.5</duration><voice>3</voice><type>eighth</type><stem>up</stem><staff>2</staff></note><note><pitch><step>A</step><octave>3</octave></pitch><duration>0.5</duration><voice>3</voice><type>eighth</type><stem>up</stem><staff>2</staff></note><note><pitch><step>C</step><octave>3</octave></pitch><duration>0.5</duration><voice>3</voice><type>eighth</type><stem>up</stem><staff>2</staff></note><note><pitch><step>F</step><octave>3</octave></pitch><duration>0.5</duration><voice>3</voice><type>eighth</type><stem>up</stem><staff>2</staff></note><note><pitch><step>G</step><octave>3</octave></pitch><duration>0.5</duration><voice>3</voice><type>eighth</type><stem>up</stem><staff>2</staff></note><note><pitch><step>E</step><octave>3</octave></pitch><duration>0.5</duration><voice>3</voice><type>eighth</type><stem>up</stem><staff>2</staff></note><note><pitch><step>G</step><octave>3</octave></pitch><duration>0.5</duration><voice>3</voice><type>eighth</type><stem>up</stem><staff>2</staff></note><note><pitch><step>C</step><octave>3</octave></pitch><duration>0.5</duration><voice>3</voice><type>eighth</type><stem>up</stem><staff>2</staff></note><backup><duration>4</duration></backup><note><rest/><duration>0.5</duration><voice>4</voice><type>eighth</type><staff>2</staff></note><note><rest/><duration>0.5</duration><voice>4</voice><type>eighth</type><staff>2</staff></note><note><pitch><step>A</step><octave>2</octave></pitch><duration>0.5</duration><voice>4</voice><type>eighth</type><stem>up</stem><staff>2</staff></note><note><pitch><step>A</step><octave>2</octave></pitch><duration>0.5</duration><voice>4</voice><type>eighth</type><stem>up</stem><staff>2</staff></note><note><pitch><step>G</step><octave>2</octave></pitch><duration>0.5</duration><voice>4</voice><type>eighth</type><stem>up</stem><staff>2</staff></note><note><rest/><duration>0.5</duration><voice>4</voice><type>eighth</type><staff>2</staff></note><note><pitch><step>G</step><octave>2</octave></pitch><duration>0.5</duration><voice>4</voice><type>eighth</type><stem>up</stem><staff>2</staff></note><note><rest/><duration>0.5</duration><voice>4</voice><type>eighth</type><staff>2</staff></note></measure><measure number="3"><note><pitch><step>C</step><octave>5</octave></pitch><duration>0.5</duration><voice>1</voice><type>eighth</type><stem>up</stem><staff>1</staff></note><note><pitch><step>C</step><octave>5</octave></pitch><duration>0.5</duration><voice>1</voice><type>eighth</type><stem>up</stem><staff>1</staff></note><note><pitch><step>F</step><octave>5</octave></pitch><duration>0.5</duration><voice>1</voice><type>eighth</type><stem>up</stem><staff>1</staff></note><note><rest/><duration>0.5</duration><voice>1</voice><type>eighth</type><staff>1</staff></note><note><pitch><step>E</step><octave>5</octave></pitch><duration>0.5</duration><voice>1</voice><type>eighth</type><stem>up</stem><staff>1</staff></note><note><rest/><duration>0.5</duration><voice>1</voice><type>eighth</type><staff>1</staff></note><note><pitch><step>E</step><octave>5</octave></pitch><duration>0.5</duration><voice>1</voice><type>eighth</type><stem>up</stem><staff>1</staff></note><note><pitch><step>C</step><octave>5</octave></pitch><duration>0.5</duration><voice>1</voice><type>eighth</type><stem>up</stem><staff>1</staff></note><backup><duration>4</duration></backup><note><pitch><step>F</step><octave>4</octave></pitch><duration>0.5</duration><voice>2</voice><type>eighth</type><stem>up</stem><staff>1</staff></note><note><rest/><duration>0.5</duration><voice>2</voice><type>eighth</type><staff>1</staff></note><note><pitch><step>A</step><octave>4</octave></pitch><duration>0.5</duration><voice>2</voice><type>eighth</type><stem>up</stem><staff>1</staff></note><note><pitch><step>F</step><octave>4</octave></pitch><duration>0.5</duration><voice>2</voice><type>eighth</type><stem>up</stem><staff>1</staff></note><note><pitch><step>A</step><octave>4</octave></pitch><duration>0.5</duration><voice>2</voice><type>eighth</type><stem>up</stem><staff>1</staff></note><note><pitch><step>C</step><octave>4</octave></pitch><duration>0.5</duration><voice>2</voice><type>eighth</type><stem>up</stem><staff>1</staff></note><note><pitch><step>C</step><octave>4</octave></pitch><duration>0.5</duration><voice>2</voice><type>eighth</type><stem>up</stem><staff>1</staff></note><note><pitch><step>E</step><octave>4</octave></pitch><duration>0.5</duration><voice>2</voice><type>eighth</type><stem>up</stem><staff>1</staff></note><backup><duration>4</duration></backup><note><pitch><step>A</step><octave>3</octave></pitch><duration>0.5</duration><voice>3</voice><type>eighth</type><stem>up</stem><staff>2</staff></note><note><pitch><step>A</step><octave>3</octave></pitch><duration>0.5</duration><voice>3</voice><type>eighth</type><stem>up</stem><staff>2</staff></note><note><rest/><duration>0.5</duration><voice>3</voice><type>eighth</type><staff>2</staff></note><note><pitch><step>A</step><octave>3</octave></pitch><duration>0.5</duration><voice>3</voice><type>eighth</type><stem>up</stem><staff>2</staff></note><note><pitch><step>A</step><octave>3</octave></pitch><duration>0.5</duration><voice>3</voice><type>eighth</type><stem>up</stem><staff>2</staff></note><note><pitch><step>C</step><octave>3</octave></pitch><duration>0.5</duration><voice>3</voice><type>eighth</type><stem>up</stem><staff>2</staff></note><note><pitch><step>E</step><octave>3</octave></pitch><duration>0.5</duration><voice>3</voice><type>eighth</type><stem>up</stem><staff>2</staff></note><note><pitch><step>E</step><octave>3</octave></pitch><duration>0.5</duration><voice>3</voice><type>eighth</type><stem>up</stem><staff>2</staff></note><backup><duration>4</duration></backup><note><pitch><step>A</step><octave>2</octave></pitch><duration>0.5</duration><voice>4</voice><type>eighth</type><stem>up</stem><staff>2</staff></note><note><pitch><step>A</step><octave>2</octave></pitch><duration>0.5</duration><voice>4</voice><type>eighth</type><stem>up</stem><staff>2</staff></note><note><pitch><step>C</step><octave>2</octave></pitch><duration>0.5</duration><voice>4</voice><type>eighth</type><stem>up</stem><staff>2</staff></note><note><pitch><step>C</step><octave>2</octave></pitch><duration>0.5</duration><voice>4</voice><type>eighth</type><stem>up</stem><staff>2</staff></note><note><pitch><step>C</step><octave>2</octave></pitch><duration>0.5</duration><voice>4</voice><type>eighth</type><stem>up</stem><staff>2</staff></note><note><rest/><duration>0.5</duration><voice>4</voice><type>eighth</type><staff>2</staff></note><note><pitch><step>E</step><octave>2</octave></pitch><duration>0.5</duration><voice>4</voice><type>eighth</type><stem>up</stem><staff>2</staff></note><note><pitch><step>C</step><octave>2</octave></pitch><duration>0.5</duration><voice>4</voice><type>eighth</type><stem>up</stem><staff>2</staff></note></measure><measure number="4"><note><pitch><step>G</step><octave>5</octave></pitch><duration>0.5</duration><voice>1</voice><type>eighth</type><stem>up</stem><staff>1</staff></note><note><pitch><step>D</step><octave>5</octave></pitch><duration>0.5</duration><voice>1</voice><type>eighth</type><stem>up</stem><staff>1</staff></note><note><pitch><step>G</step><octave>5</octave></pitch><duration>0.5</duration><voice>1</voice><type>eighth</type><stem>up</stem><staff>1</staff></note><note><pitch><step>G</step><octave>5</octave></pitch><duration>0.5</duration><voice>1</voice><type>eighth</type><stem>up</stem><staff>1</staff></note><note><rest/><duration>0.5</duration><voice>1</voice><type>eighth</type><staff>1</staff></note><note><pitch><step>E</step><octave>5</octave></pitch><duration>0.5</duration><voice>1</voice><type>eighth</type><stem>up</stem><staff>1</staff></note><note><pitch><step>E</step><octave>5</octave></pitch><duration>0.5</duration><voice>1</voice><type>eighth</type><stem>up</stem><staff>1</staff></note><note><rest/><duration>0.5</duration><voice>1</voice><type>eighth</type><staff>1</staff></note><backup><duration>4</duration></backup><note><pitch><step>G</step><octave>4</octave></pitch><duration>0.5</duration><voice>2</voice><type>eighth</type><stem>up</stem><staff>1</staff></note><note><pitch><step>G</step><octave>4</octave></pitch><duration>0.5</duration><voice>2</voice><type>eighth</type><stem>up</stem><staff>1</staff></note><note><rest/><duration>0.5</duration><voice>2</voice><type>eighth</type><staff>1</staff></note><note><rest/><duration>0.5</duration><voice>2</voice><type>eighth</type><staff>1</staff></note><note><pitch><step>G</step><octave>4</octave></pitch><duration>0.5</duration><voice>2</voice><type>eighth</type><stem>up</stem><staff>1</staff></note><note><pitch><step>C</step><octave>4</octave></pitch><duration>0.5</duration><voice>2</voice><type>eighth</type><stem>up</stem><staff>1</staff></note><note><rest/><duration>0.5</duration><voice>2</voice><type>eighth</type><staff>1</staff></note><note><rest/><duration>0.5</duration><voice>2</voice><type>eighth</type><staff>1</staff></note><backup><duration>4</duration></backup><note><pitch><step>D</step><octave>3</octave></pitch><duration>0.5</duration><voice>3</voice><type>eighth</type><stem>up</stem><staff>2</staff></note><note><rest/><duration>0.5</duration><voice>3</voice><type>eighth</type><staff>2</staff></note><note><pitch><step>D</step><octave>3</octave></pitch><duration>0.5</duration><voice>3</voice><type>eighth</type><stem>up</stem><staff>2</staff></note><note><rest/><duration>0.5</duration><voice>3</voice><type>eighth</type><staff>2</staff></note><note><pitch><step>C</step><octave>3</octave></pitch><duration>0.5</duration><voice>3</voice><type>eighth</type><stem>up</stem><staff>2</staff></note><note><pitch><step>E</step><octave>3</octave></pitch><duration>0.5</duration><voice>3</voice><type>eighth</type><stem>up</stem><staff>2</staff></note><note><rest/><duration>0.5</duration><voice>3</voice><type>eighth</type><staff>2</staff></note><note><pitch><step>C</step><octave>3</octave></pitch><duration>0.5</duration><voice>3</voice><type>eighth</type><stem>up</stem><staff>2</staff></note><backup><duration>4</duration></backup><note><pitch><step>B</step><octave>2</octave></pitch><duration>0.5</duration><voice>4</voice><type>eighth</type><stem>up</stem><staff>2</staff></note><note><rest/><duration>0.5</duration><voice>4</voice><type>eighth</type><staff>2</staff></note><note><rest/><duration>0.5</duration><voice>4</voice><type>eighth</type><staff>2</staff></note><note><rest/><duration>0.5</duration><voice>4</voice><type>eighth</type><staff>2</staff></note><note><pitch><step>G</step><octave>2</octave></pitch><duration>0.5</duration><voice>4</voice><type>eighth</type><stem>up</stem><staff>2</staff></note><note><rest/><duration>0.5</duration><voice>4</voice><type>eighth</type><staff>2</staff></note><note><pitch><step>C</step><octave>2</octave></pitch><duration>0.5</duration><voice>4</voice><type>eighth</type><stem>up</stem><staff>2</staff></note><note><pitch><step>G</step><octave>2</octave></pitch><duration>0.5</duration><voice>4</voice><type>eighth</type><stem>up</stem><staff>2</staff></note></measure><measure number="5"><note><pitch><step>C</step><octave>5</octave></pitch><duration>0.5</duration><voice>1</voice><type>eighth</type><stem>up</stem><staff>1</staff></note><note><pitch><step>C</step><octave>5</octave></pitch><duration>0.5</duration><voice>1</voice><type>eighth</type><stem>up</stem><staff>1</staff></note><note><pitch><step>C</step><octave>5</octave></pitch><duration>0.5</duration><voice>1</voice><type>eighth</type><stem>up</stem><staff>1</staff></note><note><pitch><step>C</step><octave>5</octave></pitch><duration>0.5</duration><voice>1</voice><type>eighth</type><stem>up</stem><staff>1</staff></note><note><pitch><step>A</step><octave>5</octave></pitch><duration>0.5</duration><voice>1</voice><type>eighth</type><stem>up</stem><staff>1</staff></note><note><pitch><step>C</step><octave>5</octave></pitch><duration>0.5</duration><voice>1</voice><type>eighth</type><stem>up</stem><staff>1</staff></note><note><pitch><step>C</step><octave>5</octave></pitch><duration>0.5</duration><voice>1</voice><type>eighth</type><stem>up</stem><staff>1</staff></note><note><pitch><step>F</step><octave>5</octave></pitch><duration>0.5</duration><voice>1</voice><type>eighth</type><stem>up</stem><staff>1</staff></note><backup><duration>4</duration></backup><note><pitch><step>C</step><octave>4</octave></pitch><duration>0.5</duration><voice>2</voice><type>eighth</type><stem>up</stem><staff>1</staff></note><note><pitch><step>E</step><octave>4</octave></pitch><duration>0.5</duration><voice>2</voice><type>eighth</type><stem>up</stem><staff>1</staff></note><note><pitch><step>C</step><octave>4</octave></pitch><duration>0.5</duration><voice>2</voice><type>eighth</type><stem>up</stem><staff>1</staff></note><note><pitch><step>G</step><octave>4</octave></pitch><duration>0.5</duration><voice>2</voice><type>eighth</type><stem>up</stem><staff>1</staff></note><note><rest/><duration>0.5</duration><voice>2</voice><type>eighth</type><staff>1</staff></note><note><rest/><duration>0.5</duration><voice>2</voice><type>eighth</type><staff>1</staff></note><note><rest/><duration>0.5</duration><voice>2</voice><type>eighth</type><staff>1</staff></note><note><pitch><step>C</step><octave>4</octave></pitch><duration>0.5</duration><voice>2</voice><type>eighth</type><stem>up</stem><staff>1</staff></note><backup><duration>4</duration></backup><note><pitch><step>G</step><octave>3</octave></pitch><duration>0.5</duration><voice>3</voice><type>eighth</type><stem>up</stem><staff>2</staff></note><note><rest/><duration>0.5</duration><voice>3</voice><type>eighth</type><staff>2</staff></note><note><pitch><step>G</step><octave>3</octave></pitch><duration>0.5</duration><voice>3</voice><type>eighth</type><stem>up</stem><staff>2</staff></note><note><pitch><step>G</step><octave>3</octave></pitch><duration>0.5</duration><voice>3</voice><type>eighth</type><stem>up</stem><staff>2</staff></note><note><pitch><step>F</step><octave>3</octave></pitch><duration>0.5</duration><voice>3</voice><type>eighth</type><stem>up</stem><staff>2</staff></note><note><rest/><duration>0.5</duration><voice>3</voice><type>eighth</type><staff>2</staff></note><note><pitch><step>C</step><octave>3</octave></pitch><duration>0.5</duration><voice>3</voice><type>eighth</type><stem>up</stem><staff>2</staff></note><note><rest/><duration>0.5</duration><voice>3</voice><type>eighth</type><staff>2</staff></note><backup><duration>4</duration></backup><note><rest/><duration>0.5</duration><voice>4</voice><type>eighth</type><staff>2</staff></note><note><pitch><step>E</step><octave>2</octave></pitch><duration>0.5</duration><voice>4</voice><type>eighth</type><stem>up</stem><staff>2</staff></note><note><pitch><step>G</step><octave>2</octave></pitch><duration>0.5</duration><voice>4</voice><type>eighth</type><stem>up</stem><staff>2</staff></note><note><rest/><duration>0.5</duration><voice>4</voice><type>eighth</type><staff>2</staff></note><note><pitch><step>A</step><octave>2</octave></pitch><duration>0.5</duration><voice>4</voice><type>eighth</type><stem>up</stem><staff>2</staff></note><note><rest/><duration>0.5</duration><voice>4</voice><type>eighth</type><staff>2</staff></note><note><pitch><step>F</step><octave>2</octave></pitch><duration>0.5</duration><voice>4</voice><type>eighth</type><stem>up</stem><staff>2</staff></note><note><pitch><step>A</step><octave>2</octave></pitch><duration>0.5</duration><voice>4</voice><type>eighth</type><stem>up</stem><staff>2</staff></note></measure><measure number="6"><note><pitch><step>E</step><octave>5</octave></pitch><duration>0.5</duration><voice>1</voice><type>eighth</type><stem>up</stem><staff>1</staff></note><note><pitch><step>C</step><octave>5</octave></pitch><duration>0.5</duration><voice>1</voice><type>eighth</type><stem>up</stem><staff>1</staff></note><note><pitch><step>C</step><octave>5</octave></pitch><duration>0.5</duration><voice>1</voice><type>eighth</type><stem>up</stem><staff>1</staff></note><note><pitch><step>A</step><octave>5</octave></pitch><duration>0.5</duration><voice>1</voice><type>eighth</type><stem>up</stem><staff>1</staff></note><note><pitch><step>B</step><octave>5</octave></pitch><duration>0.5</duration><voice>1</voice><type>eighth</type><stem>up</stem><staff>1</staff></note><note><pitch><step>G</step><octave>5</octave></pitch><duration>0.5</duration><voice>1</voice><type>eighth</type><stem>up</stem><staff>1</staff></note><note><pitch><step>G</step><octave>5</octave></pitch><duration>0.5</duration><voice>1</voice><type>eighth</type><stem>up</stem><staff>1</staff></note><note><pitch><step>D</step><octave>5</octave></pitch><duration>0.5</duration><voice>1</voice><type>eighth</type><stem>up</stem><staff>1</staff></note><backup><duration>4</duration></backup><note><rest/><duration>0.5</duration><voice>2</voice><type>eighth</type><staff>1</staff></note><note><pitch><step>E</step><octave>4</octave></pitch><duration>0.5</duration><voice>2</voice><type>eighth</type><stem>up</stem><staff>1</staff></note><note><rest/><duration>0.5</duration><voice>2</voice><type>eighth</type><staff>1</staff></note><note><rest/><duration>0.5</duration><voice>2</voice><type>eighth</type><staff>1</staff></note><note><pitch><step>G</step><octave>4</octave></pitch><duration>0.5</duration><voice>2</voice><type>eighth</type><stem>up</stem><staff>1</staff></note><note><pitch><step>B</step><octave>4</octave></pitch><duration>0.5</duration><voice>2</voice><type>eighth</type><stem>up</stem><staff>1</staff></note><note><pitch><step>D</step><octave>4</octave></pitch><duration>0.5</duration><voice>2</voice><type>eighth</type><stem>up</stem><staff>1</staff></note><note><pitch><step>D</step><octave>4</octave></pitch><duration>0.5</duration><voice>2</voice><type>eighth</type><stem>up</stem><staff>1</staff></note><backup><duration>4</duration></backup><note><pitch><step>A</step><octave>3</octave></pitch><duration>0.5</duration><voice>3</voice><type>eighth</type><stem>up</stem><staff>2</staff></note><note><pitch><step>E</step><octave>3</octave></pitch><duration>0.5</duration><voice>3</voice><type>eighth</type><stem>up</stem><staff>2</staff></note><note><rest/><duration>0.5</duration><voice>3</voice><type>eighth</type><staff>2</staff></note><note><rest/><duration>0.5</duration><voice>3</voice><type>eighth</type><staff>2</staff></note><note><pitch><step>D</step><octave>3</octave></pitch><duration>0.5</duration><voice>3</voice><type>eighth</type><stem>up</stem><staff>2</staff></note><note><rest/><duration>0.5</duration><voice>3</voice><type>eighth</type><staff>2</staff></note><note><pitch><step>G</step><octave>3</octave></pitch><duration>0.5</duration><voice>3</voice><type>eighth</type><stem>up</stem><staff>2</staff></note><note><pitch><step>G</step><octave>3</octave></pitch><duration>0.5</duration><voice>3</voice><type>eighth</type><stem>up</stem><staff>2</staff></note><backup><duration>4</duration></backup><note><rest/><duration>0.5</duration><voice>4</voice><type>eighth</type><staff>2</staff></note><note><rest/><duration>0.5</duration><voice>4</voice><type>eighth</type><staff>2</staff></note><note><pitch><step>C</step><octave>2</octave></pitch><duration>0.5</duration><voice>4</voice><type>eighth</type><stem>up</stem><staff>2</staff></note><note><rest/><duration>0.5</duration><voice>4</voice><type>eighth</type><staff>2</staff></note><note><pitch><step>B</step><octave>2</octave></pitch><duration>0.5</duration><voice>4</voice><type>eighth</type><stem>up</stem><staff>2</staff></note><note><rest/><duration>0.5</duration><voice>4</voice><type>eighth</type><staff>2</staff></note><note><rest/><duration>0.5</duration><voice>4</voice><type>eighth</type><staff>2</staff></note><note><pitch><step>D</step><octave>2</octave></pitch><duration>0.5</duration><voice>4</voice><type>eighth</type><stem>up</stem><staff>2</staff></note></measure><measure number="7"><note><pitch><step>C</step><octave>5</octave></pitch><duration>0.5</duration><voice>1</voice><type>eighth</type><stem>up</stem><staff>1</staff></note><note><pitch><step>C</step><octave>5</octave></pitch><duration>0.5</duration><voice>1</voice><type>eighth</type><stem>up</stem><staff>1</staff></note><note><rest/><duration>0.5</duration><voice>1</voice><type>eighth</type><staff>1</staff></note><note><pitch><step>E</step><octave>5</octave></pitch><duration>0.5</duration><voice>1</voice><type>eighth</type><stem>up</stem><staff>1</staff></note><note><pitch><step>A</step><octave>5</octave></pitch><duration>0.5</duration><voice>1</voice><type>eighth</type><stem>up</stem><staff>1</staff></note><note><pitch><step>F</step><octave>5</octave></pitch><duration>0.5</duration><voice>1</voice><type>eighth</type><stem>up</stem><staff>1</staff></note><note><pitch><step>C</step><octave>5</octave></pitch><duration>0.5</duration><voice>1</voice><type>eighth</type><stem>up</stem><staff>1</staff></note><note><pitch><step>F</step><octave>5</octave></pitch><duration>0.5</duration><voice>1</voice><type>eighth</type><stem>up</stem><staff>1</staff></note><backup><duration>4</duration></backup><note><pitch><step>E</step><octave>4</octave></pitch><duration>0.5</duration><voice>2</voice><type>eighth</type><stem>up</stem><staff>1</staff></note><note><pitch><step>G</step><octave>4</octave></pitch><duration>0.5</duration><voice>2</voice><type>eighth</type><stem>up</stem><staff>1</staff></note><note><pitch><step>C</step><octave>4</octave></pitch><duration>0.5</duration><voice>2</voice><type>eighth</type><stem>up</stem><staff>1</staff></note><note><pitch><step>E</step><octave>4</octave></pitch><duration>0.5</duration><voice>2</voice><type>eighth</type><stem>up</stem><staff>1</staff></note><note><pitch><step>C</step><octave>4</octave></pitch><duration>0.5</duration><voice>2</voice><type>eighth</type><stem>up</stem><staff>1</staff></note><note><rest/><duration>0.5</duration><voice>2</voice><type>eighth</type><staff>1</staff></note><note><rest/><duration>0.5</duration><voice>2</voice><type>eighth</type><staff>1</staff></note><note><rest/><duration>0.5</duration><voice>2</voice><type>eighth</type><staff>1</staff></note><backup><duration>4</duration></backup><note><pitch><step>E</step><octave>3</octave></pitch><duration>0.5</duration><voice>3</voice><type>eighth</type><stem>up</stem><staff>2</staff></note><note><pitch><step>G</step><octave>3</octave></pitch><duration>0.5</duration><voice>3</voice><type>eighth</type><stem>up</stem><staff>2</staff></note><note><pitch><step>G</step><octave>3</octave></pitch><duration>0.5</duration><voice>3</voice><type>eighth</type><stem>up</stem><staff>2</staff></note><note><rest/><duration>0.5</duration><voice>3</voice><type>eighth</type><staff>2</staff></note><note><pitch><step>F</step><octave>3</octave></pitch><duration>0.5</duration><voice>3</voice><type>eighth</type><stem>up</stem><staff>2</staff></note><note><pitch><step>A</step><octave>3</octave></pitch><duration>0.5</duration><voice>3</voice><type>eighth</type><stem>up</stem><staff>2</staff></note><note><rest/><duration>0.5</duration><voice>3</voice><type>eighth</type><staff>2</staff></note><note><pitch><step>A</step><octave>3</octave></pitch><duration>0.5</duration><voice>3</voice><type>eighth</type><stem>up</stem><staff>2</staff></note><backup><duration>4</duration></backup><note><pitch><step>E</step><octave>2</octave></pitch><duration>0.5</duration><voice>4</voice><type>eighth</type><stem>up</stem><staff>2</staff></note><note><rest/><duration>0.5</duration><voice>4</voice><type>eighth</type><staff>2</staff></note><note><pitch><step>E</step><octave>2</octave></pitch><duration>0.5</duration><voice>4</voice><type>eighth</type><stem>up</stem><staff>2</staff></note><note><pitch><step>C</step><octave>2</octave></pitch><duration>0.5</duration><voice>4</voice><type>eighth</type><stem>up</stem><staff>2</staff></note><note><pitch><step>C</step><octave>2</octave></pitch><duration>0.5</duration><voice>4</voice><type>eighth</type><stem>up</stem><staff>2</staff></note><note><pitch><step>A</step><octave>2</octave></pitch><duration>0.5</duration><voice>4</voice><type>eighth</type><stem>up</stem><staff>2</staff></note><note><pitch><step>C</step><octave>2</octave></pitch><duration>0.5</duration><voice>4</voice><type>eighth</type><stem>up</stem><staff>2</staff></note><note><pitch><step>F</step><octave>2</octave></pitch><duration>0.5</duration><voice>4</voice><type>eighth</type><stem>up</stem><staff>2</staff></note></measure><measure number="8"><note><pitch><step>A</step><octave>5</octave></pitch><duration>0.5</duration><voice>1</voice><type>eighth</type><stem>up</stem><staff>1</staff></note><note><pitch><step>C</step><octave>5</octave></pitch><duration>0.5</duration><voice>1</voice><type>eighth</type><stem>up</stem><staff>1</staff></note><note><pitch><step>C</step><octave>5</octave></pitch><duration>0.5</duration><voice>1</voice><type>eighth</type><stem>up</stem><staff>1</staff></note><note><pitch><step>C</step><octave>5</octave></pitch><duration>0.5</duration><voice>1</voice><type>eighth</type><stem>up</stem><staff>1</staff></note><note><rest/><duration>0.5</duration><voice>1</voice><type>eighth</type><staff>1</staff></note><note><pitch><step>D</step><octave>5</octave></pitch><duration>0.5</duration><voice>1</voice><type>eighth</type><stem>up</stem><staff>1</staff></note><note><pitch><step>G</step><octave>5</octave></pitch><duration>0.5</duration><voice>1</voice><type>eighth</type><stem>up</stem><staff>1</staff></note><note><rest/><duration>0.5</duration><voice>1</voice><type>eighth</type><staff>1</staff></note><backup><duration>4</duration></backup><note><pitch><step>A</step><octave>4</octave></pitch><duration>0.5</duration><voice>2</voice><type>eighth</type><stem>up</stem><staff>1</staff></note><note><pitch><step>C</step><octave>4</octave></pitch><duration>0.5</duration><voice>2</voice><type>eighth</type><stem>up</stem><staff>1</staff></note><note><rest/><duration>0.5</duration><voice>2</voice><type>eighth</type><staff>1</staff></note><note><pitch><step>E</step><octave>4</octave></pitch><duration>0.5</duration><voice>2</voice><type>eighth</type><stem>up</stem><staff>1</staff></note><note><pitch><step>G</step><octave>4</octave></pitch><duration>0.5</duration><voice>2</voice><type>eighth</type><stem>up</stem><staff>1</staff></note><note><pitch><step>G</step><octave>4</octave></pitch><duration>0.5</duration><voice>2</voice><type>eighth</type><stem>up</stem><staff>1</staff></note><note><pitch><step>G</step><octave>4</octave></pitch><duration>0.5</duration><voice>2</voice><type>eighth</type><stem>up</stem><staff>1</staff></note><note><pitch><step>D</step><octave>4</octave></pitch><duration>0.5</duration><voice>2</voice><type>eighth</type><stem>up</stem><staff>1</staff></note><backup><duration>4</duration></backup><note><rest/><duration>0.5</duration><voice>3</voice><type>eighth</type><staff>2</staff></note><note><pitch><step>A</step><octave>3</octave></pitch><duration>0.5</duration><voice>3</voice><type>eighth</type><stem>up</stem><staff>2</staff></note><note><rest/><duration>0.5</duration><voice>3</voice><type>eighth</type><staff>2</staff></note><note><pitch><step>C</step><octave>3</octave></pitch><duration>0.5</duration><voice>3</voice><type>eighth</type><stem>up</stem><staff>2</staff></note><note><rest/><duration>0.5</duration><voice>3</voice><type>eighth</type><staff>2</staff></note><note><pitch><step>G</step><octave>3</octave></pitch><duration>0.5</duration><voice>3</voice><type>eighth</type><stem>up</stem><staff>2</staff></note><note><pitch><step>D</step><octave>3</octave></pitch><duration>0.5</duration><voice>3</voice><type>eighth</type><stem>up</stem><staff>2</staff></note><note><rest/><duration>0.5</duration><voice>3</voice><type>eighth</type><staff>2</staff></note><backup><duration>4</duration></backup><note><pitch><step>A</step><octave>2</octave></pitch><duration>0.5</duration><voice>4</voice><type>eighth</type><stem>up</stem><staff>2</staff></note><note><pitch><step>E</step><octave>2</octave></pitch><duration>0.5</duration><voice>4</voice><type>eighth</type><stem>up</stem><staff>2</staff></note><note><rest/><duration>0.5</duration><voice>4</voice><type>eighth</type><staff>2</staff></note><note><rest/><duration>0.5</duration><voice>4</voice><type>eighth</type><staff>2</staff></note><note><pitch><step>D</step><octave>2</octave></pitch><duration>0.5</duration><voice>4</voice><type>eighth</type><stem>up</stem><staff>2</staff></note><note><rest/><duration>0.5</duration><voice>4</voice><type>eighth</type><staff>2</staff></note><note><pitch><step>D</step><octave>2</octave></pitch><duration>0.5</duration><voice>4</voice><type>eighth</type><stem>up</stem><staff>2</staff></note><note><pitch><step>D</step><octave>2</octave></pitch><duration>0.5</duration><voice>4</voice><type>eighth</type><stem>up</stem><staff>2</staff></note></measure><measure number="9"><note><pitch><step>G</step><octave>5</octave></pitch><duration>0.5</duration><voice>1</voice><type>eighth</type><stem>up</stem><staff>1</staff></note><note><pitch><step>E</step><octave>5</octave></pitch><duration>0.5</duration><voice>1</voice><type>eighth</type><stem>up</stem><staff>1</staff></note><note><pitch><step>C</step><octave>5</octave></pitch><duration>0.5</duration><voice>1</voice><type>eighth</type><stem>up</stem><staff>1</staff></note><note><pitch><step>E</step><octave>5</octave></pitch><duration>0.5</duration><voice>1</voice><type>eighth</type><stem>up</stem><staff>1</staff></note><note><pitch><step>G</step><octave>5</octave></pitch><duration>0.5</duration><voice>1</voice><type>eighth</type><stem>up</stem><staff>1</staff></note><note><pitch><step>G</step><octave>5</octave></pitch><duration>0.5</duration><voice>1</voice><type>eighth</type><stem>up</stem><staff>1</staff></note><note><pitch><step>E</step><octave>5</octave></pitch><duration>0.5</duration><voice>1</voice><type>eighth</type><stem>up</stem><staff>1</staff></note><note><pitch><step>C</step><octave>5</octave></pitch><duration>0.5</duration><voice>1</voice><type>eighth</type><stem>up</stem><staff>1</staff></note><backup><duration>4</duration></backup><note><pitch><step>C</step><octave>4</octave></pitch><duration>0.5</duration><voice>2</voice><type>eighth</type><stem>up</stem><staff>1</staff></note><note><pitch><step>E</step><octave>4</octave></pitch><duration>0.5</duration><voice>2</voice><type>eighth</type><stem>up</stem><staff>1</staff></note><note><pitch><step>C</step><octave>4</octave></pitch><duration>0.5</duration><voice>2</voice><type>eighth</type><stem>up</stem><staff>1</staff></note><note><pitch><step>C</step><octave>4</octave></pitch><duration>0.5</duration><voice>2</voice><type>eighth</type><stem>up</stem><staff>1</staff></note><note><pitch><step>E</step><octave>4</octave></pitch><duration>0.5</duration><voice>2</voice><type>eighth</type><stem>up</stem><staff>1</staff></note><note><pitch><step>C</step><octave>4</octave></pitch><duration>0.5</duration><voice>2</voice><type>eighth</type><stem>up</stem><staff>1</staff></note><note><pitch><step>C</step><octave>4</octave></pitch><duration>0.5</duration><voice>2</voice><type>eighth</type><stem>up</stem><staff>1</staff></note><note><pitch><step>C</step><octave>4</octave></pitch><duration>0.5</duration><voice>2</voice><type>eighth</type><stem>up</stem><staff>1</staff></note><backup><duration>4</duration></backup><note><pitch><step>G</step><octave>3</octave></pitch><duration>0.5</duration><voice>3</voice><type>eighth</type><stem>up</stem><staff>2</staff></note><note><pitch><step>C</step><octave>3</octave></pitch><duration>0.5</duration><voice>3</voice><type>eighth</type><stem>up</stem><staff>2</staff></note><note><pitch><step>G</step><octave>3</octave></pitch><duration>0.5</duration><voice>3</voice><type>eighth</type><stem>up</stem><staff>2</staff></note><note><pitch><step>G</step><octave>3</octave></pitch><duration>0.5</duration><voice>3</voice><type>eighth</type><stem>up</stem><staff>2</staff></note><note><pitch><step>G</step><octave>3</octave></pitch><duration>0.5</duration><voice>3</voice><type>eighth</type><stem>up</stem><staff>2</staff></note><note><rest/><duration>0.5</duration><voice>3</voice><type>eighth</type><staff>2</staff></note><note><pitch><step>E</step><octave>3</octave></pitch><duration>0.5</duration><voice>3</voice><type>eighth</type><stem>up</stem><staff>2</staff></note><note><rest/><duration>0.5</duration><voice>3</voice><type>eighth</type><staff>2</staff></note><backup><duration>4</duration></backup><note><rest/><duration>0.5</duration><voice>4</voice><type>eighth</type><staff>2</staff></note><note><rest/><duration>0.5</duration><voice>4</voice><type>eighth</type><staff>2</staff></note><note><pitch><step>C</step><octave>2</octave></pitch><duration>0.5</duration><voice>4</voice><type>eighth</type><stem>up</stem><staff>2</staff></note><note><pitch><step>C</step><octave>2</octave></pitch><duration>0.5</duration><voice>4</voice><type>eighth</type><stem>up</stem><staff>2</staff></note><note><pitch><step>C</step><octave>2</octave></pitch><duration>0.5</duration><voice>4</voice><type>eighth</type><stem>up</stem><staff>2</staff></note><note><pitch><step>E</step><octave>2</octave></pitch><duration>0.5</duration><voice>4</voice><type>eighth</type><stem>up</stem><staff>2</staff></note><note><pitch><step>E</step><octave>2</octave></pitch><duration>0.5</duration><voice>4</voice><type>eighth</type><stem>up</stem><staff>2</staff></note><note><pitch><step>C</step><octave>2</octave></pitch><duration>0.5</duration><voice>4</voice><type>eighth</type><stem>up</stem><staff>2</staff></note></measure><measure number="10"><note><pitch><step>F</step><octave>5</octave></pitch><duration>0.5</duration><voice>1</voice><type>eighth</type><stem>up</stem><staff>1</staff></note><note><pitch><step>C</step><octave>5</octave></pitch><duration>0.5</duration><voice>1</voice><type>eighth</type><stem>up</stem><staff>1</staff></note><note><rest/><duration>0.5</duration><voice>1</voice><type>eighth</type><staff>1</staff></note><note><pitch><step>C</step><octave>5</octave></pitch><duration>0.5</duration><voice>1</voice><type>eighth</type><stem>up</stem><staff>1</staff></note><note><pitch><step>C</step><octave>5</octave></pitch><duration>0.5</duration><voice>1</voice><type>eighth</type><stem>up</stem><staff>1</staff></note><note><pitch><step>E</step><octave>5</octave></pitch><duration>0.5</duration><voice>1</voice><type>eighth</type><stem>up</stem><staff>1</staff></note><note><rest/><duration>0.5</duration><voice>1</voice><type>eighth</type><staff>1</staff></note><note><pitch><step>C</step><octave>5</octave></pitch><duration>0.5</duration><voice>1</voice><type>eighth</type><stem>up</stem><staff>1</staff></note><backup><duration>4</duration></backup><note><pitch><step>C</step><octave>4</octave></pitch><duration>0.5</duration><voice>2</voice><type>eighth</type><stem>up</stem><staff>1</staff></note><note><rest/><duration>0.5</duration><voice>2</voice><type>eighth</type><staff>1</staff></note><note><pitch><step>A</step><octave>4</octave></pitch><duration>0.5</duration><voice>2</voice><type>eighth</type><stem>up</stem><staff>1</staff></note><note><pitch><step>C</step><octave>4</octave></pitch><duration>0.5</duration><voice>2</voice><type>eighth</type><stem>up</stem><staff>1</staff></note><note><pitch><step>C</step><octave>4</octave></pitch><duration>0.5</duration><voice>2</voice><type>eighth</type><stem>up</stem><staff>1</staff></note><note><pitch><step>C</step><octave>4</octave></pitch><duration>0.5</duration><voice>2</voice><type>eighth</type><stem>up</stem><staff>1</staff></note><note><pitch><step>G</step><octave>4</octave></pitch><duration>0.5</duration><voice>2</voice><type>eighth</type><stem>up</stem><staff>1</staff></note><note><pitch><step>C</step><octave>4</octave></pitch><duration>0.5</duration><voice>2</voice><type>eighth</type><stem>up</stem><staff>1</staff></note><backup><duration>4</duration></backup><note><pitch><step>F</step><octave>3</octave></pitch><duration>0.5</duration><voice>3</voice><type>eighth</type><stem>up</stem><staff>2</staff></note><note><rest/><duration>0.5</duration><voice>3</voice><type>eighth</type><staff>2</staff></note><note><pitch><step>A</step><octave>3</octave></pitch><duration>0.5</duration><voice>3</voice><type>eighth</type><stem>up</stem><staff>2</staff></note><note><rest/><duration>0.5</duration><voice>3</voice><type>eighth</type><staff>2</staff></note><note><pitch><step>G</step><octave>3</octave></pitch><duration>0.5</duration><voice>3</voice><type>eighth</type><stem>up</stem><staff>2</staff></note><note><pitch><step>C</step><octave>3</octave></pitch><duration>0.5</duration><voice>3</voice><type>eighth</type><stem>up</stem><staff>2</staff></note><note><rest/><duration>0.5</duration><voice>3</voice><type>eighth</type><staff>2</staff></note><note><rest/><duration>0.5</duration><voice>3</voice><type>eighth</type><staff>2</staff></note><backup><duration>4</duration></backup><note><rest/><duration>0.5</duration><voice>4</voice><type>eighth</type><staff>2</staff></note><note><pitch><step>C</step><octave>2</octave></pitch><duration>0.5</duration><voice>4</voice><type>eighth</type><stem>up</stem><staff>2</staff></note><note><pitch><step>F</step><octave>2</octave></pitch><duration>0.5</duration><voice>4</voice><type>eighth</type><stem>up</stem><staff>2</staff></note><note><rest/><duration>0.5</duration><voice>4</voice><type>eighth</type><staff>2</staff></note><note><rest/><duration>0.5</duration><voice>4</voice><type>eighth</type><staff>2</staff></note><note><pitch><step>E</step><octave>2</octave></pitch><duration>0.5</duration><voice>4</voice><type>eighth</type><stem>up</stem><staff>2</staff></note><note><pitch><step>C</step><octave>2</octave></pitch><duration>0.5</duration><voice>4</voice><type>eighth</type><stem>up</stem><staff>2</staff></note><note><pitch><step>E</step><octave>2</octave></pitch><duration>0.5</duration><voice>4</voice><type>eighth</type><stem>up</stem><staff>2</staff></note></measure><measure number="11"><note><pitch><step>C</step><octave>5</octave></pitch><duration>0.5</duration><voice>1</voice><type>eighth</type><stem>up</stem><staff>1</staff></note><note><pitch><step>F</step><octave>5</octave></pitch><duration>0.5</duration><voice>1</voice><type>eighth</type><stem>up</stem><staff>1</staff></note><note><pitch><step>A</step><octave>5</octave></pitch><duration>0.5</duration><voice>1</voice><type>eighth</type><stem>up</stem><staff>1</staff></note><note><pitch><step>A</step><octave>5</octave></pitch><duration>0.5</duration><voice>1</voice><type>eighth</type><stem>up</stem><staff>1</staff></note><note><rest/><duration>0.5</duration><voice>1</voice><type>eighth</type><staff>1</staff></note><note><pitch><step>A</step><octave>5</octave></pitch><duration>0.5</duration><voice>1</voice><type>eighth</type><stem>up</stem><staff>1</staff></note><note><rest/><duration>0.5</duration><voice>1</voice><type>eighth</type><staff>1</staff></note><note><pitch><step>E</step><octave>5</octave></pitch><duration>0.5</duration><voice>1</voice><type>eighth</type><stem>up</stem><staff>1</staff></note><backup><duration>4</duration></backup><note><pitch><step>A</step><octave>4</octave></pitch><duration>0.5</duration><voice>2</voice><type>eighth</type><stem>up</stem><staff>1</staff></note><note><pitch><step>F</step><octave>4</octave></pitch><duration>0.5</duration><voice>2</voice><type>eighth</type><stem>up</stem><staff>1</staff></note><note><pitch><step>F</step><octave>4</octave></pitch><duration>0.5</duration><voice>2</voice><type>eighth</type><stem>up</stem><staff>1</staff></note><note><pitch><step>C</step><octave>4</octave></pitch><duration>0.5</duration><voice>2</voice><type>eighth</type><stem>up</stem><staff>1</staff></note><note><rest/><duration>0.5</duration><voice>2</voice><type>eighth</type><staff>1</staff></note><note><pitch><step>C</step><octave>4</octave></pitch><duration>0.5</duration><voice>2</voice><type>eighth</type><stem>up</stem><staff>1</staff></note><note><pitch><step>E</step><octave>4</octave></pitch><duration>0.5</duration><voice>2</voice><type>eighth</type><stem>up</stem><staff>1</staff></note><note><pitch><step>E</step><octave>4</octave></pitch><duration>0.5</duration><voice>2</voice><type>eighth</type><stem>up</stem><staff>1</staff></note><backup><duration>4</duration></backup><note><pitch><step>A</step><octave>3</octave></pitch><duration>0.5</duration><voice>3</voice><type>eighth</type><stem>up</stem><staff>2</staff></note><note><rest/><duration>0.5</duration><voice>3</voice><type>eighth</type><staff>2</staff></note><note><pitch><step>A</step><octave>3</octave></pitch><duration>0.5</duration><voice>3</voice><type>eighth</type><stem>up</stem><staff>2</staff></note><note><rest/><duration>0.5</duration><voice>3</voice><type>eighth</type><staff>2</staff></note><note><pitch><step>A</step><octave>3</octave></pitch><duration>0.5</duration><voice>3</voice><type>eighth</type><stem>up</stem><staff>2</staff></note><note><rest/><duration>0.5</duration><voice>3</voice><type>eighth</type><staff>2</staff></note><note><rest/><duration>0.5</duration><voice>3</voice><type>eighth</type><staff>2</staff></note><note><rest/><duration>0.5</duration><voice>3</voice><type>eighth</type><staff>2</staff></note><backup><duration>4</duration></backup><note><pitch><step>A</step><octave>2</octave></pitch><duration>0.5</duration><voice>4</voice><type>eighth</type><stem>up</stem><staff>2</staff></note><note><rest/><duration>0.5</duration><voice>4</voice><type>eighth</type><staff>2</staff></note><note><pitch><step>F</step><octave>2</octave></pitch><duration>0.5</duration><voice>4</voice><type>eighth</type><stem>up</stem><staff>2</staff></note><note><rest/><duration>0.5</duration><voice>4</voice><type>eighth</type><staff>2</staff></note><note><pitch><step>A</step><octave>2</octave></pitch><duration>0.5</duration><voice>4</voice><type>eighth</type><stem>up</stem><staff>2</staff></note><note><rest/><duration>0.5</duration><voice>4</voice><type>eighth</type><staff>2</staff></note><note><rest/><duration>0.5</duration><voice>4</voice><type>eighth</type><staff>2</staff></note><note><pitch><step>E</step><octave>2</octave></pitch><duration>0.5</duration><voice>4</voice><type>eighth</type><stem>up</stem><staff>2</staff></note></measure><measure number="12"><note><pitch><step>G</step><octave>5</octave></pitch><duration>0.5</duration><voice>1</voice><type>eighth</type><stem>up</stem><staff>1</staff></note><note><pitch><step>D</step><octave>5</octave></pitch><duration>0.5</duration><voice>1</voice><type>eighth</type><stem>up</stem><staff>1</staff></note><note><rest/><duration>0.5</duration><voice>1</voice><type>eighth</type><staff>1</staff></note><note><pitch><step>B</step><octave>5</octave></pitch><duration>0.5</duration><voice>1</voice><type>eighth</type><stem>up</stem><staff>1</staff></note><note><rest/><duration>0.5</duration><voice>1</voice><type>eighth</type><staff>1</staff></note><note><pitch><step>C</step><octave>5</octave></pitch><duration>0.5</duration><voice>1</voice><type>eighth</type><stem>up</stem><staff>1</staff></note><note><pitch><step>C</step><octave>5</octave></pitch><duration>0.5</duration><voice>1</voice><type>eighth</type><stem>up</stem><staff>1</staff></note><note><pitch><step>E</step><octave>5</octave></pitch><duration>0.5</duration><voice>1</voice><type>eighth</type><stem>up</stem><staff>1</staff></note><backup><duration>4</duration></backup><note><pitch><step>G</step><octave>4</octave></pitch><duration>0.5</duration><voice>2</voice><type>eighth</type><stem>up</stem><staff>1</staff></note><note><pitch><step>D</step><octave>4</octave></pitch><duration>0.5</duration><voice>2</voice><type>eighth</type><stem>up</stem><staff>1</staff></note><note><pitch><step>G</step><octave>4</octave></pitch><duration>0.5</duration><voice>2</voice><type>eighth</type><stem>up</stem><staff>1</staff></note><note><pitch><step>D</step><octave>4</octave></pitch><duration>0.5</duration><voice>2</voice><type>eighth</type><stem>up</stem><staff>1</staff></note><note><rest/><duration>0.5</duration><voice>2</voice><type>eighth</type><staff>1</staff></note><note><pitch><step>E</step><octave>4</octave></pitch><duration>0.5</duration><voice>2</voice><type>eighth</type><stem>up</stem><staff>1</staff></note><note><pitch><step>E</step><octave>4</octave></pitch><duration>0.5</duration><voice>2</voice><type>eighth</type><stem>up</stem><staff>1</staff></note><note><pitch><step>E</step><octave>4</octave></pitch><duration>0.5</duration><voice>2</voice><type>eighth</type><stem>up</stem><staff>1</staff></note><backup><duration>4</duration></backup><note><pitch><step>G</step><octave>3</octave></pitch><duration>0.5</duration><voice>3</voice><type>eighth</type><stem>up</stem><staff>2</staff></note><note><pitch><step>D</step><octave>3</octave></pitch><duration>0.5</duration><voice>3</voice><type>eighth</type><stem>up</stem><staff>2</staff></note><note><pitch><step>D</step><octave>3</octave></pitch><duration>0.5</duration><voice>3</voice><type>eighth</type><stem>up</stem><staff>2</staff></note><note><rest/><duration>0.5</duration><voice>3</voice><type>eighth</type><staff>2</staff></note><note><pitch><step>G</step><octave>3</octave></pitch><duration>0.5</duration><voice>3</voice><type>eighth</type><stem>up</stem><staff>2</staff></note><note><pitch><step>G</step><octave>3</octave></pitch><duration>0.5</duration><voice>3</voice><type>eighth</type><stem>up</stem><staff>2</staff></note><note><pitch><step>C</step><octave>3</octave></pitch><duration>0.5</duration><voice>3</voice><type>eighth</type><stem>up</stem><staff>2</staff></note><note><pitch><step>C</step><octave>3</octave></pitch><duration>0.5</duration><voice>3</voice><type>eighth</type><stem>up</stem><staff>2</staff></note><backup><duration>4</duration></backup><note><pitch><step>B</step><octave>2</octave></pitch><duration>0.5</duration><voice>4</voice><type>eighth</type><stem>up</stem><staff>2</staff></note><note><rest/><duration>0.5</duration><voice>4</voice><type>eighth</type><staff>2</staff></note><note><pitch><step>D</step><octave>2</octave></pitch><duration>0.5</duration><voice>4</voice><type>eighth</type><stem>up</stem><staff>2</staff></note><note><pitch><step>D</step><octave>2</octave></pitch><duration>0.5</duration><voice>4</voice><type>eighth</type><stem>up</stem><staff>2</staff></note><note><rest/><duration>0.5</duration><voice>4</voice><type>eighth</type><staff>2</staff></note><note><rest/><duration>0.5</duration><voice>4</voice><type>eighth</type><staff>2</staff></note><note><pitch><step>E</step><octave>2</octave></pitch><duration>0.5</duration><voice>4</voice><type>eighth</type><stem>up</stem><staff>2</staff></note><note><pitch><step>G</step><octave>2</octave></pitch><duration>0.5</duration><voice>4</voice><type>eighth</type><stem>up</stem><staff>2</staff></note></measure></part></score-partwise>