<?xml version="1.0" encoding="UTF-8" standalone="no"?>
<!DOCTYPE svg PUBLIC "-//W3C//DTD SVG 1.1//EN" "http://www.w3.org/Graphics/SVG/1.1/DTD/svg11.dtd">
<!-- Created with Vectornator (http://vectornator.io/) -->
<svg height="100%" stroke-miterlimit="10" style="fill-rule:nonzero;clip-rule:evenodd;stroke-linecap:round;stroke-linejoin:round;" version="1.1" viewBox="0 0 3840 2160" width="100%" xml:space="preserve" xmlns="http://www.w3.org/2000/svg" xmlns:vectornator="http://vectornator.io" xmlns:xlink="http://www.w3.org/1999/xlink">
<defs>
<radialGradient cx="1224.06" cy="1885.94" gradientTransform="matrix(1.66505 0 0 1.05855 89.1293 13.8322)" gradientUnits="userSpaceOnUse" id="RadialGradient" r="1928.13">
<stop offset="0" stop-color="#500c5a"/>
<stop offset="0.36157" stop-color="#420b75"/>
<stop offset="0.698347" stop-color="#31096d"/>
<stop offset="0.873967" stop-color="#210764"/>
<stop offset="0.985537" stop-color="#11055c"/>
</radialGradient>
<linearGradient gradientTransform="matrix(1.51369 0 0 1.68347 46.3285 -773.17)" gradientUnits="userSpaceOnUse" id="LinearGradient" x1="1713.16" x2="1565.56" y1="880.843" y2="1518.2">
<stop offset="0" stop-color="#064c0a"/>
<stop offset="1" stop-color="#011b03"/>
</linearGradient>
<linearGradient gradientTransform="matrix(1 0 0 1 0 0)" gradientUnits="userSpaceOnUse" id="LinearGradient_2" x1="665.92" x2="1065.42" y1="1346.57" y2="2173.19">
<stop offset="0" stop-color="#016708"/>
<stop offset="1" stop-color="#012d04"/>
</linearGradient>
</defs>
<clipPath id="ArtboardFrame">
<rect height="2160" width="3840" x="0" y="0"/>
</clipPath>
<g clip-path="url(#ArtboardFrame)" id="Layer-2" vectornator:layerName="Layer 2">
<path d="M-114.649-116.773C-227.132-108.827 184.753-159.735 237.166-166.237C510.452-200.138 756.255-214.528 1032.13-222.153C1828.68-244.171 2608.58-250.477 3396.74-164.086C3578.33-144.182 4090.59-140.444 4154.5 5.81327C4347.16 446.764 4454.67 1806.51 3968.44 2141.39C3477.36 2479.61 2668.44 2488.47 2003.01 2550.01C1618.3 2585.58 235.076 2658.36-104.501 2442.48" fill="url(#RadialGradient)" fill-rule="evenodd" opacity="1" stroke="none"/>
</g>
<g id="Layer-1" vectornator:layerName="Layer 1">
<path d="M1285.18 561.966L1276.64 544.653L1257.53 541.877L1271.36 528.401L1268.09 509.372L1285.18 518.356L1302.27 509.372L1299.01 528.401L1312.83 541.877L1293.73 544.653L1285.18 561.966Z" fill="#c3e4ff" fill-rule="evenodd" opacity="1" stroke="none"/>
<path d="M753.153 779.125L752.942 767.06L742.884 760.395L754.293 756.465L757.524 744.84L764.786 754.476L776.841 753.956L769.921 763.841L774.14 775.146L762.601 771.619L753.153 779.125Z" fill="#c3e4ff" fill-rule="evenodd" opacity="1" stroke="none"/>
<path d="M1671.38 464.468L1667.11 455.811L1657.55 454.423L1664.46 447.685L1662.83 438.171L1671.38 442.663L1679.92 438.171L1678.29 447.685L1685.2 454.423L1675.65 455.811L1671.38 464.468Z" fill="#c3e4ff" fill-rule="evenodd" opacity="1" stroke="none"/>
<path d="M722.918 415.468L720.782 411.14L716.006 410.446L719.462 407.077L718.646 402.32L722.918 404.566L727.19 402.32L726.375 407.077L729.831 410.446L725.054 411.14L722.918 415.468Z" fill="#c3e4ff" fill-rule="evenodd" opacity="1" stroke="none"/>
<path d="M751.748 623.833L735.232 590.368L698.302 585.002L725.025 558.953L718.716 522.172L751.748 539.537L784.78 522.172L778.471 558.953L805.195 585.002L768.264 590.368L751.748 623.833Z" fill="#c3e4ff" fill-rule="evenodd" opacity="1" stroke="none"/>
<path d="M630.224 951.695C630.224 952.541 630.224 953.387 630.224 954.233" fill="#c3e4ff" fill-rule="evenodd" opacity="1" stroke="#c3e4ff" stroke-linecap="round" stroke-linejoin="round" stroke-width="8.41671"/>
<path d="M456.281 584.837L453.742 583.568L453.742 581.029L456.281 583.568L456.281 583.568" fill="#c3e4ff" fill-rule="evenodd" opacity="1" stroke="#c3e4ff" stroke-linecap="round" stroke-linejoin="round" stroke-width="8.41671"/>
<path d="M1458 305.844C1456.31 309.229 1456.31 307.537 1458 310.922" fill="#c3e4ff" fill-rule="evenodd" opacity="1" stroke="#c3e4ff" stroke-linecap="round" stroke-linejoin="round" stroke-width="8.41671"/>
<path d="M1489.53 681.308C1489.53 684.693 1488.69 683.846 1492.07 683.846" fill="#c3e4ff" fill-rule="evenodd" opacity="1" stroke="#c3e4ff" stroke-linecap="round" stroke-linejoin="round" stroke-width="8.41671"/>
<path d="M1088.95 1137.62C1090.22 1137.62 1091.49 1137.62 1092.76 1137.62" fill="#c3e4ff" fill-rule="evenodd" opacity="1" stroke="#c3e4ff" stroke-linecap="round" stroke-linejoin="round" stroke-width="26.7879"/>
<path d="M1992.69 563.426C1992.24 564.336 1991.78 565.245 1991.33 566.154" fill="#c3e4ff" fill-rule="evenodd" opacity="1" stroke="#c3e4ff" stroke-linecap="round" stroke-linejoin="round" stroke-width="26.7879"/>
<path d="M2229.66 366.73C2229.21 367.639 2228.76 368.548 2228.3 369.457" fill="#c3e4ff" fill-rule="evenodd" opacity="1" stroke="#c3e4ff" stroke-linecap="round" stroke-linejoin="round" stroke-width="26.7879"/>
<path d="M1007.09 204.673C1003.21 202.734 1003.64 202.59 1007.09 206.037" fill="#c3e4ff" fill-rule="evenodd" opacity="1" stroke="#c3e4ff" stroke-linecap="round" stroke-linejoin="round" stroke-width="42.4604"/>
<path d="M2184.66 260.346C2185.57 260.801 2186.47 261.255 2187.38 261.71" fill="#c3e4ff" fill-rule="evenodd" opacity="1" stroke="#c3e4ff" stroke-linecap="round" stroke-linejoin="round" stroke-width="6.94021"/>
<path d="M1772.76 445.836C1770.94 449.473 1770.94 447.654 1772.76 451.291" fill="#c3e4ff" fill-rule="evenodd" opacity="1" stroke="#c3e4ff" stroke-linecap="round" stroke-linejoin="round" stroke-width="6.94021"/>
<path d="M260.107 230.469L260.364 222.423L253.882 217.65L261.613 215.408L264.15 207.769L268.671 214.429L276.72 214.48L271.783 220.838L274.222 228.509L266.65 225.779L260.107 230.469Z" fill="#c3e4ff" fill-rule="evenodd" opacity="1" stroke="#c3e4ff" stroke-linecap="round" stroke-linejoin="round" stroke-width="6.94021"/>
<path d="M1005.26 811.093L1003.69 800.136L993.781 795.214L1003.72 790.339L1005.33 779.39L1013.04 787.334L1023.96 785.488L1018.78 795.273L1023.91 805.082L1013 803.185L1005.26 811.093Z" fill="#fffcc3" fill-rule="evenodd" opacity="1" stroke="#fffcc3" stroke-linecap="round" stroke-linejoin="round" stroke-width="6.94021"/>
<path d="M1512.27 693.343L1508.71 686.125L1500.74 684.967L1506.51 679.348L1505.15 671.414L1512.27 675.16L1519.4 671.414L1518.04 679.348L1523.8 684.967L1515.83 686.125L1512.27 693.343Z" fill="#fffcc3" fill-rule="evenodd" opacity="1" stroke="#fffcc3" stroke-linecap="round" stroke-linejoin="round" stroke-width="6.94021"/>
<path d="M1445.49 169.009L1449.35 157.568L1442.12 147.903L1454.19 148.037L1461.14 138.167L1464.75 149.691L1476.28 153.256L1466.44 160.245L1466.61 172.318L1456.92 165.113L1445.49 169.009Z" fill="#fffcc3" fill-rule="evenodd" opacity="1" stroke="#fffcc3" stroke-linecap="round" stroke-linejoin="round" stroke-width="6.94021"/>
<path d="M2255.55 580.095L2254.66 578.29L2252.67 578.001L2254.11 576.596L2253.77 574.613L2255.55 575.549L2257.33 574.613L2256.99 576.596L2258.43 578.001L2256.44 578.29L2255.55 580.095Z" fill="#fffcc3" fill-rule="evenodd" opacity="1" stroke="#fffcc3" stroke-linecap="round" stroke-linejoin="round" stroke-width="6.94021"/>
<path d="M1306.94 745.172C1307.95 744.667 1308.96 744.162 1309.97 743.657" fill="#fffcc3" fill-rule="evenodd" opacity="1" stroke="#fffcc3" stroke-linecap="round" stroke-linejoin="round" stroke-width="6.94021"/>
<path d="M1714.53 587.588C1713.02 587.083 1711.5 586.578 1709.99 586.073" fill="#fffcc3" fill-rule="evenodd" opacity="1" stroke="#fffcc3" stroke-linecap="round" stroke-linejoin="round" stroke-width="6.94021"/>
<path d="M1103.37 361.346C1102.86 362.356 1102.36 363.366 1101.85 364.376" fill="#fffcc3" fill-rule="evenodd" opacity="1" stroke="#fffcc3" stroke-linecap="round" stroke-linejoin="round" stroke-width="6.94021"/>
<path d="M1627.99 1836.64C1628.48 1838.1 1628.96 1839.56 1629.45 1841.02" fill="#fffcc3" fill-rule="evenodd" opacity="1" stroke="#fffcc3" stroke-linecap="round" stroke-linejoin="round" stroke-width="6.94021"/>
<path d="M1891.03 1260.15C1890.32 1260.86 1888.11 1260.42 1888.11 1259.41C1888.11 1258.04 1889.69 1256.16 1891.03 1256.49C1892.21 1256.79 1891.89 1259.28 1891.03 1260.15Z" fill="#fffcc3" fill-rule="evenodd" opacity="1" stroke="#fffcc3" stroke-linecap="round" stroke-linejoin="round" stroke-width="6.94021"/>
<path d="M1483.32 1317.87C1485.27 1313.97 1483.8 1315.43 1487.7 1313.48" fill="#fffcc3" fill-rule="evenodd" opacity="1" stroke="#fffcc3" stroke-linecap="round" stroke-linejoin="round" stroke-width="6.94021"/>
<path d="M1885.15 1024.75C1883.52 1024.75 1880.77 1024.19 1880.77 1022.56C1880.77 1021.1 1883.84 1021.91 1885.15 1022.56C1885.8 1022.89 1885.88 1024.75 1885.15 1024.75Z" fill="#fffcc3" fill-rule="evenodd" opacity="1" stroke="#fffcc3" stroke-linecap="round" stroke-linejoin="round" stroke-width="6.94021"/>
<path d="M1714.21 1018.3C1713.23 1017.81 1712.26 1017.32 1711.29 1016.83" fill="#fffcc3" fill-rule="evenodd" opacity="1" stroke="#fffcc3" stroke-linecap="round" stroke-linejoin="round" stroke-width="6.94021"/>
<path d="M380.06 1134.56L378.669 1123.97L369.161 1119.12L378.797 1114.53L380.475 1103.98L387.821 1111.73L398.366 1110.07L393.271 1119.45L398.11 1128.96L387.614 1127.01L380.06 1134.56Z" fill="#fffcc3" fill-rule="evenodd" opacity="1" stroke="#fffcc3" stroke-linecap="round" stroke-linejoin="round" stroke-width="6.94021"/>
<path d="M296.841 701.287L291.991 677.516L269.66 668.035L290.769 656.077L292.885 631.909L310.781 648.29L334.42 642.834L324.371 664.916L336.865 685.712L312.759 682.979L296.841 701.287Z" fill="#fffcc3" fill-rule="evenodd" opacity="1" stroke="#fffcc3" stroke-linecap="round" stroke-linejoin="round" stroke-width="6.94021"/>
<path d="M361.813 470.169L357.089 460.597L346.525 459.062L354.169 451.611L352.365 441.09L361.813 446.057L371.261 441.09L369.457 451.611L377.101 459.062L366.537 460.597L361.813 470.169Z" fill="#c3e3ff" fill-rule="evenodd" opacity="1" stroke="#c3e3ff" stroke-linecap="round" stroke-linejoin="round" stroke-width="6.94021"/>
<path d="M1456.05 961.003L1454.01 940.727L1436.15 930.913L1454.8 922.706L1458.62 902.688L1472.19 917.892L1492.41 915.334L1482.14 932.937L1490.82 951.375L1470.9 947.05L1456.05 961.003Z" fill="#c3e3ff" fill-rule="evenodd" opacity="1" stroke="#c3e3ff" stroke-linecap="round" stroke-linejoin="round" stroke-width="6.94021"/>
<path d="M1144.29 975.916L1140.85 968.955L1133.17 967.838L1138.73 962.419L1137.42 954.768L1144.29 958.38L1151.16 954.768L1149.85 962.419L1155.41 967.838L1147.72 968.955L1144.29 975.916Z" fill="#c3e3ff" fill-rule="evenodd" opacity="1" stroke="#c3e3ff" stroke-linecap="round" stroke-linejoin="round" stroke-width="6.94021"/>
<path d="M1990.4 857.549L1990.83 858.419L1991.79 858.558L1991.09 859.236L1991.26 860.192L1990.4 859.741L1989.54 860.192L1989.7 859.236L1989.01 858.558L1989.97 858.419L1990.4 857.549Z" fill="#c3e3ff" fill-rule="evenodd" opacity="1" stroke="#c3e3ff" stroke-linecap="round" stroke-linejoin="round" stroke-width="6.94021"/>
<path d="M2175.99 872.162L2175.13 870.422L2173.21 870.142L2174.6 868.788L2174.27 866.875L2175.99 867.778L2177.71 866.875L2177.38 868.788L2178.77 870.142L2176.85 870.422L2175.99 872.162Z" fill="#c3e3ff" fill-rule="evenodd" opacity="1" stroke="#c3e3ff" stroke-linecap="round" stroke-linejoin="round" stroke-width="6.94021"/>
<path d="M2057.62 1278.41L2056.76 1276.67L2054.84 1276.39L2056.23 1275.04L2055.9 1273.12L2057.62 1274.03L2059.34 1273.12L2059.01 1275.04L2060.4 1276.39L2058.48 1276.67L2057.62 1278.41Z" fill="#c3e3ff" fill-rule="evenodd" opacity="1" stroke="#c3e3ff" stroke-linecap="round" stroke-linejoin="round" stroke-width="6.94021"/>
<path d="M802.884 1012.87C802.884 1003.18 810.081 995.329 818.959 995.329C827.837 995.329 835.034 1003.18 835.034 1012.87C835.034 1022.55 827.837 1030.4 818.959 1030.4C810.081 1030.4 802.884 1022.55 802.884 1012.87Z" fill="#c3e3ff" fill-rule="evenodd" opacity="1" stroke="#c3e3ff" stroke-linecap="round" stroke-linejoin="round" stroke-width="6.94021"/>
</g>
<g clip-path="url(#ArtboardFrame)" id="Layer-3" vectornator:layerName="Layer 3">
<path d="M-69.188 1454.54C-87.5418 1393.3 173.333 1381.03 217.213 1381.03C554.499 1381.03 966.379 1428.55 1303.22 1403C2004.15 1349.85 2298.43 786.038 3027.75 773.122C3107.16 771.716 3437.75 808.787 3586.28 893.391C3747.32 985.121 4097.68 1328.65 4153.15 1358.16C4273.6 1422.22 3924.56 1582.26 3918.39 1781.23C3913.36 1943.46 4122.05 1997.51 3895.34 2273.37C3668.63 2549.24 3099.36 2550.44 2811.95 2581.63C2133.91 2655.2 1433.37 2585.22 763.087 2453.67C468.803 2395.91-114.223 2147.94-414.337 2314.83" fill="url(#LinearGradient)" fill-rule="evenodd" opacity="1" stroke="none"/>
<path d="M3479.91 554.953C3479.91 539.614 3492.97 527.179 3509.08 527.179C3525.18 527.179 3538.24 539.614 3538.24 554.953C3538.24 570.292 3525.18 582.727 3509.08 582.727C3492.97 582.727 3479.91 570.292 3479.91 554.953Z" fill="#fffcc3" fill-rule="evenodd" opacity="1" stroke="#fffcc3" stroke-linecap="round" stroke-linejoin="round" stroke-width="6.94021"/>
<path d="M2255.94 191.597L2260.56 169.174L2244.71 152.655L2267.46 150.121L2278.28 129.941L2287.72 150.798L2310.25 154.845L2293.33 170.269L2296.45 192.951L2276.55 181.626L2255.94 191.597Z" fill="#fffcc3" fill-rule="evenodd" opacity="1" stroke="#fffcc3" stroke-linecap="round" stroke-linejoin="round" stroke-width="6.94021"/>
<path d="M2930.79 704.593L2927.9 698.728L2921.43 697.787L2926.11 693.221L2925 686.774L2930.79 689.818L2936.58 686.774L2935.48 693.221L2940.16 697.787L2933.69 698.728L2930.79 704.593Z" fill="#fffcc3" fill-rule="evenodd" opacity="1" stroke="#fffcc3" stroke-linecap="round" stroke-linejoin="round" stroke-width="6.94021"/>
<g opacity="1">
<path d="M2792.65 768.706C2796.43 765.468 2800.21 762.23 2803.98 758.993" fill="#c3e3ff" fill-rule="evenodd" stroke="none"/>
<path d="M2803.97 759C2801.73 760.222 2799.53 761.453 2797.25 762.594C2795.72 763.359 2794.13 764.003 2792.66 764.875C2792.12 765.192 2791.1 765.948 2790.59 766.312C2789.93 766.88 2789.56 767.663 2789.5 768.469C2789.44 769.275 2789.68 770.088 2790.25 770.75C2791.38 772.074 2793.39 772.229 2794.72 771.094C2795.16 770.651 2796.04 769.763 2796.44 769.281C2797.52 767.957 2798.42 766.488 2799.41 765.094C2800.88 763.016 2802.42 761.022 2803.97 759Z" fill="#c3e3ff" stroke="none"/>
</g>
<path d="M3594.56 361.633C3593.76 361.23 3592.95 360.828 3592.15 360.426" fill="none" fill-rule="evenodd" opacity="1" stroke="#c3e3ff" stroke-linecap="round" stroke-linejoin="round" stroke-width="6.94021"/>
<path d="M2864.47 386.975C2865.68 386.572 2866.88 386.17 2868.09 385.768" fill="none" fill-rule="evenodd" opacity="1" stroke="#c3e3ff" stroke-linecap="round" stroke-linejoin="round" stroke-width="6.94021"/>
<path d="M3091.34 521.529C3089.72 521.498 3087.96 521.407 3086.51 522.133C3085.62 522.58 3091.84 521.539 3091.34 521.529Z" fill="none" fill-rule="evenodd" opacity="1" stroke="#c3e3ff" stroke-linecap="round" stroke-linejoin="round" stroke-width="6.94021"/>
<path d="M2545.62 817.442C2545.62 809.654 2552.36 803.34 2560.66 803.34C2568.97 803.34 2575.71 809.654 2575.71 817.442C2575.71 825.23 2568.97 831.544 2560.66 831.544C2552.36 831.544 2545.62 825.23 2545.62 817.442Z" fill="#c3e3ff" fill-rule="evenodd" opacity="1" stroke="#c3e3ff" stroke-linecap="round" stroke-linejoin="round" stroke-width="6.94021"/>
<path d="M2697.2 515.482C2695.6 514.682 2694 513.881 2692.4 513.08" fill="#c3e3ff" fill-rule="evenodd" opacity="1" stroke="#c3e3ff" stroke-linecap="round" stroke-linejoin="round" stroke-width="6.94021"/>
<path d="M2535.03 295.7C2534.13 295.252 2533.24 294.805 2532.34 294.358" fill="#fffcc3" fill-rule="evenodd" opacity="1" stroke="#fffcc3" stroke-linecap="round" stroke-linejoin="round" stroke-width="6.94021"/>
<path d="M2913.53 513.808C2913.53 503.801 2920.14 495.688 2928.29 495.688C2936.45 495.688 2943.06 503.801 2943.06 513.808C2943.06 523.815 2936.45 531.928 2928.29 531.928C2920.14 531.928 2913.53 523.815 2913.53 513.808Z" fill="#fffcc3" fill-rule="evenodd" opacity="1" stroke="#fffcc3" stroke-linecap="round" stroke-linejoin="round" stroke-width="6.94021"/>
</g>
<g clip-path="url(#ArtboardFrame)" id="Layer-4" vectornator:layerName="Layer 4">
<path d="M4241.56 2464.99C4237.62 2457.13 4059.11 2377.23 4037.98 2357.61C3839.37 2173.19 3284.53 1992.65 3038 1876.64C2486.6 1617.16 783.064 941.841 111.757 1200.04C-190.087 1316.13-327.729 1886-72.3049 2123.18C150.556 2330.12 593.529 2359.21 876.324 2457.32C1131.19 2545.75 1375.36 2740.5 1655.05 2740.5" fill="url(#LinearGradient_2)" fill-rule="evenodd" opacity="1" stroke="none"/>
</g>
<g id="Layer-5" vectornator:layerName="Layer 5"/>
</svg>
