<?xml version="1.0" encoding="UTF-8" standalone="no"?>
<!DOCTYPE svg PUBLIC "-//W3C//DTD SVG 1.1//EN" "http://www.w3.org/Graphics/SVG/1.1/DTD/svg11.dtd">
<!-- Created with Vectornator (http://vectornator.io/) -->
<svg height="100%" stroke-miterlimit="10" style="fill-rule:nonzero;clip-rule:evenodd;stroke-linecap:round;stroke-linejoin:round;" version="1.1" viewBox="0 0 1024 1024" width="100%" xml:space="preserve" xmlns="http://www.w3.org/2000/svg" xmlns:vectornator="http://vectornator.io" xmlns:xlink="http://www.w3.org/1999/xlink">
<defs/>
<g id="Layer-2" vectornator:layerName="Layer 2"/>
<g id="Layer-1" vectornator:layerName="Layer 1">
<g opacity="1">
<path d="M822.375 221.558C780.571 306.806 921.773 429.181 944.269 505.64C964.538 574.527 953.28 629.229 928.201 692.314" fill="none" fill-rule="evenodd" opacity="1" stroke="#8cc0f0" stroke-linecap="round" stroke-linejoin="round" stroke-width="62.2654"/>
<path d="M254.037 538.852L214.444 374.195L51.4522 311.334L201.479 225.256L212.081 56.8764L344.396 168.335L513.94 127.131L445.688 282.094L539.87 425.009L365.374 409.323L254.037 538.852Z" fill="#f6e68f" fill-rule="evenodd" opacity="1" stroke="#ffd400" stroke-linecap="round" stroke-linejoin="round" stroke-width="20.3033"/>
<path d="M132.414 789.157C132.985 693.06 227.693 616.914 343.951 619.08C460.208 621.246 553.991 700.905 553.42 797.002C552.849 893.099 458.141 969.245 341.883 967.078C225.626 964.912 131.843 885.254 132.414 789.157Z" fill="#8cc0f0" fill-rule="evenodd" opacity="1" stroke="#4298e7" stroke-linecap="round" stroke-linejoin="round" stroke-width="62.2654"/>
<path d="M527.169 879.036C629.501 648.983 726.074 402.358 833.488 180.852" fill="none" fill-rule="evenodd" opacity="1" stroke="#4298e7" stroke-linecap="round" stroke-linejoin="round" stroke-width="62.2654"/>
<path d="M512.938 899.098C643.154 693.683 731.339 433.869 838.753 212.363" fill="none" fill-rule="evenodd" opacity="1" stroke="#4298e7" stroke-linecap="round" stroke-linejoin="round" stroke-width="62.2654"/>
<path d="M837.513 179.288C836.799 177.878 837.984 182.406 838.191 183.969C845.251 237.382 887.852 299.274 915.448 345.14C978.802 450.434 1002.57 602.92 917.481 706.269" fill="none" fill-rule="evenodd" opacity="1" stroke="#4298e7" stroke-linecap="round" stroke-linejoin="round" stroke-width="62.2654"/>
</g>
</g>
</svg>
