<?xml version="1.0" encoding="UTF-8" standalone="no"?>
<!DOCTYPE svg PUBLIC "-//W3C//DTD SVG 1.1//EN" "http://www.w3.org/Graphics/SVG/1.1/DTD/svg11.dtd">
<!-- Created with Vectornator (http://vectornator.io/) -->
<svg height="100%" stroke-miterlimit="10" style="fill-rule:nonzero;clip-rule:evenodd;stroke-linecap:round;stroke-linejoin:round;" version="1.1" viewBox="0 0 1400 1250" width="100%" xml:space="preserve" xmlns="http://www.w3.org/2000/svg" xmlns:vectornator="http://vectornator.io" xmlns:xlink="http://www.w3.org/1999/xlink">
<defs>
<linearGradient gradientTransform="matrix(-1 0 0 1 1775.55 -263.079)" gradientUnits="userSpaceOnUse" id="LinearGradient" x1="965.687" x2="1722.17" y1="964.318" y2="964.318">
<stop offset="0.628099" stop-color="#70f389"/>
<stop offset="1" stop-color="#c1ffbc"/>
</linearGradient>
<linearGradient gradientTransform="matrix(-0.325796 -0.94544 -0.94544 0.325796 2188.45 1634.16)" gradientUnits="userSpaceOnUse" id="LinearGradient_2" x1="977.331" x2="1097.13" y1="1347" y2="1481.33">
<stop offset="0" stop-color="#70f389"/>
<stop offset="1" stop-color="#c1ffbc"/>
</linearGradient>
<linearGradient gradientTransform="matrix(-1 0 0 1 1783.32 -266.255)" gradientUnits="userSpaceOnUse" id="LinearGradient_3" x1="782.635" x2="1469.03" y1="1352.12" y2="1018.78">
<stop offset="0" stop-color="#1b8435"/>
<stop offset="0.57438" stop-color="#2bc548"/>
<stop offset="1" stop-color="#197b32"/>
</linearGradient>
<linearGradient gradientTransform="matrix(1 0 0 1 -500.109 -266.255)" gradientUnits="userSpaceOnUse" id="LinearGradient_4" x1="505.94" x2="640.205" y1="1297.39" y2="1297.39">
<stop offset="0" stop-color="#10601f"/>
<stop offset="1" stop-color="#107c2c"/>
</linearGradient>
<linearGradient gradientTransform="matrix(1 0 0 1 -500.109 -266.255)" gradientUnits="userSpaceOnUse" id="LinearGradient_5" x1="1438.07" x2="1723.83" y1="1169.4" y2="1169.4">
<stop offset="0" stop-color="#10601f"/>
<stop offset="1" stop-color="#107c2c"/>
</linearGradient>
<linearGradient gradientTransform="matrix(1 0 0 1 -500.109 -266.255)" gradientUnits="userSpaceOnUse" id="LinearGradient_6" x1="825.328" x2="833.359" y1="1144.61" y2="1144.61">
<stop offset="0" stop-color="#10601f"/>
<stop offset="1" stop-color="#107c2c"/>
</linearGradient>
<linearGradient gradientTransform="matrix(1 0 0 1 -500.109 -266.255)" gradientUnits="userSpaceOnUse" id="LinearGradient_7" x1="828.286" x2="831.659" y1="1144.1" y2="1144.1">
<stop offset="0" stop-color="#10601f"/>
<stop offset="1" stop-color="#107c2c"/>
</linearGradient>
<linearGradient gradientTransform="matrix(1 0 0 1 -500.109 -266.255)" gradientUnits="userSpaceOnUse" id="LinearGradient_8" x1="768.825" x2="939.063" y1="690.458" y2="436.671">
<stop offset="0" stop-color="#0081ff"/>
<stop offset="1" stop-color="#00b3f1"/>
</linearGradient>
<linearGradient gradientTransform="matrix(1 0 0 0.865218 -500.109 -172.991)" gradientUnits="userSpaceOnUse" id="LinearGradient_9" x1="584.307" x2="990.163" y1="522.898" y2="612.304">
<stop offset="0" stop-color="#008afc"/>
<stop offset="0.997934" stop-color="#095eff"/>
</linearGradient>
<linearGradient gradientTransform="matrix(1 0 0 1 -500.109 -266.255)" gradientUnits="userSpaceOnUse" id="LinearGradient_10" x1="1369.97" x2="1388.38" y1="407.27" y2="407.27">
<stop offset="0" stop-color="#ec0017"/>
<stop offset="1" stop-color="#ee3862"/>
</linearGradient>
<linearGradient gradientTransform="matrix(1 0 0 1 -500.109 -266.255)" gradientUnits="userSpaceOnUse" id="LinearGradient_11" x1="1267.11" x2="1408.04" y1="352.25" y2="352.25">
<stop offset="0" stop-color="#ec0017"/>
<stop offset="1" stop-color="#ee3862"/>
</linearGradient>
<linearGradient gradientTransform="matrix(1 0 0 1 -500.109 -266.255)" gradientUnits="userSpaceOnUse" id="LinearGradient_12" x1="1235.99" x2="1502.72" y1="532.94" y2="532.94">
<stop offset="0" stop-color="#ec0017"/>
<stop offset="1" stop-color="#ee3862"/>
</linearGradient>
<linearGradient gradientTransform="matrix(1 0 0 1 -500.109 -266.255)" gradientUnits="userSpaceOnUse" id="LinearGradient_13" x1="1424.22" x2="1635.72" y1="849.545" y2="849.545">
<stop offset="0" stop-color="#f4bb19"/>
<stop offset="1" stop-color="#fe8d00"/>
</linearGradient>
<linearGradient gradientTransform="matrix(1 0 0 1 -500.109 -266.255)" gradientUnits="userSpaceOnUse" id="LinearGradient_14" x1="1606.51" x2="1803.72" y1="649.448" y2="649.448">
<stop offset="0" stop-color="#f4bb19"/>
<stop offset="1" stop-color="#fe8d00"/>
</linearGradient>
</defs>
<g id="Layer-1" vectornator:layerName="Layer 1">
<path d="M31.9573 1064.09C31.9573 996.412 312.973 941.547 659.623 941.547C1006.27 941.547 1287.29 996.412 1287.29 1064.09C1287.29 1131.77 1006.27 1186.63 659.623 1186.63C312.973 1186.63 31.9573 1131.77 31.9573 1064.09Z" fill="#000000" fill-opacity="0.209459" fill-rule="evenodd" opacity="1" stroke="none"/>
<path d="M497.121 386.998C532.909 383.084 277.649 403.559 224.996 450.362C148.379 518.466 87.5552 681.126 68.9168 824.593C56.1637 922.757 55.7731 1017.79 124.54 1057.4C193.106 1096.9 292.699 1092.01 396.329 1092.32C540.452 1092.75 663.067 1094.72 718.456 1027.02C794.139 934.516 783.605 503.055 666.557 425.024" fill="url(#LinearGradient)" fill-rule="evenodd" opacity="1" stroke="none"/>
<path d="M540.92 388.621C541.188 388.326 385.475 391.194 378.558 395.068C354.014 408.817 294.992 412.445 273.052 430.237C209.854 481.484 111.439 602.624 88.6589 683.428" fill="none" fill-rule="evenodd" opacity="1" stroke="#c6fbb9" stroke-linecap="round" stroke-linejoin="round" stroke-width="9.82689"/>
<path d="M281.04 420.187C268.202 437.778 236.882 458.169 218.775 472.592" fill="none" fill-rule="evenodd" opacity="1" stroke="#c6fbb9" stroke-linecap="round" stroke-linejoin="round" stroke-width="9.82689"/>
<path d="M229.234 464.889C229.759 464.81 230.284 464.732 230.809 464.653" fill="none" fill-rule="evenodd" opacity="1" stroke="#c6fbb9" stroke-linecap="round" stroke-linejoin="round" stroke-width="9.82689"/>
<path d="M696.096 1009.93C701.492 1025.13 703.493 1042.29 701.019 1060.95L684.778 1091.9C686.715 1097.52 673.727 1092.08 670.386 1096.03C670.386 1096.03 562.18 1183.98 491.107 1159.18C456.052 1146.95 429.39 1073.25 436.021 1023.23C438.673 1003.22 451.936 985.499 471.164 971.454C474.729 971.131 481.929 969.468 488.951 967.341C492.751 966.191 496.07 965.024 498.503 963.984C500.01 963.339 501.211 962.746 502.18 962.089C502.966 961.556 503.625 960.956 504.207 960.2C505.438 958.599 506.043 956.513 505.253 954.221C505.094 953.759 504.794 953.405 504.539 953.012C540.568 938.271 598.939 954.321 636.476 964.448C669.995 973.492 684.224 976.491 696.096 1009.93Z" fill="url(#LinearGradient_2)" fill-rule="evenodd" opacity="1" stroke="none"/>
<path d="M215.788 477.093C218.943 474.57 201.907 487.527 198.207 494.668C193.25 504.236 162.773 550.776 156.373 550.775" fill="none" fill-rule="evenodd" opacity="1" stroke="#c6fbb9" stroke-linecap="round" stroke-linejoin="round" stroke-width="9.82689"/>
<path d="M638.599 416.448C632.006 413.421 717.36 517.261 739.396 581.22C774.798 683.975 771.989 814.063 750.285 918.677C726.153 1035 624.278 1127.16 535.036 1123.41C531.174 1123.25 545.554 1084.25 533.933 1043.59C523.37 1006.63 486.771 967.698 482.671 966.478C440.615 953.967 420.568 1076.02 452.153 1117.84C466.104 1136.32 466.481 1157.97 501.017 1171.04C547.929 1188.79 508.276 1163 586.375 1154.34C595.266 1153.35 625.697 1153.49 639.568 1124.65C662.9 1076.14 704.69 1080.72 718.122 1085.68C746.574 1096.2 745.956 1088.77 780.11 1088.18C809.784 1087.67 785.309 1091.65 806.457 1090.39C851.677 1087.69 894.622 1080.7 921.867 1071.49C923.216 1071.03 942.439 1058.73 938.74 1076.21C935.042 1093.7 952.651 1075.42 980.585 1083.64C1003.53 1090.39 1003.53 1089.04 1030.42 1091.51C1051.63 1093.46 1059.6 1079.45 1048.75 1093.09C1043.89 1099.2 1081.35 1087.64 1087.22 1069.46C1097 1039.23 1085.96 1034.55 1087.22 1018.17C1089.31 991.018 1106.93 998.629 1111.39 976.304C1113.58 965.342 1172.88 931.798 1196.13 900.444C1221.62 866.076 1225.95 847.675 1214.64 819.92C1208.36 804.489 1106.06 872.008 1098.48 859.384C1069.27 810.706 1059.71 808.678 1024.21 755.433C1008.37 731.67 982.625 680.247 982.625 708.807C982.625 730.53 957.689 677.49 942.93 661.55C927.123 644.479 911.856 624.797 895.674 607.993C824.945 534.544 738.783 462.444 638.599 416.448Z" fill="url(#LinearGradient_3)" fill-rule="evenodd" opacity="1" stroke="none"/>
<path d="M1058.77 800.042C1069.92 777.745 1078.51 851.65 1101.43 861.47C1125.66 871.856 1194.39 843.115 1206.2 819.495" fill="#b7feb6" fill-rule="evenodd" opacity="1" stroke="none"/>
<path d="M17.7478 966.587C41.6859 907.231 94.1198 1030.79 101.404 1042.93C106.37 1051.21 143.77 1077.34 140.015 1079.79C110.706 1098.92 74.6387 1102.45 50.5084 1086.22C16.3608 1063.26 0.951434 1008.24 17.7478 966.587Z" fill="url(#LinearGradient_4)" fill-rule="evenodd" opacity="1" stroke="none"/>
<path d="M944.723 945.351C976.854 959.16 1016.35 930.276 1051.07 938.552C1072.33 943.621 1082.2 994.093 1100.97 988.593C1126.87 981 1281.95 843.992 1215.76 824.04C1213.91 823.481 1212.43 839.053 1204.76 857.401C1185.14 904.31 1171.73 900.436 1124.42 902.337C1070.58 904.5 955.534 802.302 942.865 892.787C940.975 906.288 931.838 939.814 944.723 945.351Z" fill="url(#LinearGradient_5)" fill-rule="evenodd" opacity="1" stroke="none"/>
<path d="M329.59 875.493C330.407 876.175 330.792 874.895 331.524 875.187C332.678 875.649 331.57 877.866 330.71 878.038C328.54 878.472 330.291 875.787 330.302 875.798C330.876 876.372 330.198 879.923 329.488 880.278C329.366 880.339 329.131 880.404 329.08 880.278C328.546 878.942 329.725 877.006 330.506 876.002C330.683 875.775 330.877 875.231 331.117 875.391C333.29 876.84 331.877 882.625 328.47 882.315C326.369 882.124 324.338 876.008 325.618 874.984C327.467 873.504 330.776 875.05 332.135 876.409C332.4 876.674 333.595 878.208 333.153 878.649C331.834 879.968 328.697 879.499 328.266 877.631C328.078 876.816 328.185 874.321 329.59 875.493Z" fill="url(#LinearGradient_6)" fill-rule="evenodd" opacity="1" stroke="#cc8a8a" stroke-linecap="round" stroke-linejoin="round" stroke-width="9.82689"/>
<path d="M328.877 879.566C326.411 879.377 331.25 876.542 331.321 876.613C331.892 877.184 331.313 879.466 330.506 879.667C329.304 879.968 329.895 876.002 329.895 876.002C329.895 876.002 329.985 877.422 329.691 878.038C329.443 878.559 329.452 879.61 328.877 879.566Z" fill="url(#LinearGradient_7)" fill-rule="evenodd" opacity="1" stroke="#cc8a8a" stroke-linecap="round" stroke-linejoin="round" stroke-width="9.82689"/>
</g>
<g id="Layer-2" vectornator:layerName="Layer 2">
<g opacity="1">
<g opacity="1">
<g opacity="1">
<path d="M1094.67 994.702C1167.38 944.103 1251.46 870.814 1214.48 818.081C1201.65 799.792 1068.95 816.378 1043.49 782.912" fill="none" fill-rule="evenodd" opacity="1" stroke="#084601" stroke-linecap="round" stroke-linejoin="round" stroke-width="19.1145"/>
<path d="M673.525 1093.09C717.088 1091.21 755.468 1095.3 795.975 1091.67C839.385 1087.78 884.59 1076.12 921.094 1072.72" fill="none" fill-rule="evenodd" opacity="1" stroke="#084601" stroke-linecap="round" stroke-linejoin="round" stroke-width="19.1145"/>
<path d="M1099.29 861.21C987.228 694.399 745.869 413.797 561.264 393.769C219.737 356.717 112.398 521.147 76.7463 768.244C70.736 809.9 66.7631 853.906 64.0491 899.691C51.9961 1103.02 172.782 1091.21 439.388 1091.6" fill="none" fill-rule="evenodd" opacity="1" stroke="#084601" stroke-linecap="round" stroke-linejoin="round" stroke-width="19.1145"/>
<path d="M566.193 1163.64C539.606 1169.03 513.058 1171.7 495.007 1164.91C442.005 1144.97 437.495 1087.73 438.183 1039.35C438.509 1016.4 444.209 979.206 465.191 965.216C479.483 955.686 499.841 956.555 516.397 955.896C529.105 955.39 541.723 955.294 554.289 955.629" fill="none" fill-rule="evenodd" opacity="1" stroke="#084601" stroke-linecap="round" stroke-linejoin="round" stroke-width="19.1145"/>
<path d="M669.455 1094.78C660.647 1107.81 634.806 1125.53 629.65 1128.62C613.641 1138.22 593.886 1148.58 570.31 1162" fill="none" fill-rule="evenodd" opacity="1" stroke="#084601" stroke-linecap="round" stroke-linejoin="round" stroke-width="19.1145"/>
<path d="M945.218 946.447C943.706 943.763 987.188 940.812 991.368 940.184C1015.54 936.555 1034.53 932.055 1057.77 940.885C1096.18 955.473 1092.09 1026.22 1086.7 1056.27C1077 1110.39 1012.33 1093.69 970.66 1085.23C965.624 1084.21 948.386 1077.7 928.196 1072.06" fill="none" fill-rule="evenodd" opacity="1" stroke="#084601" stroke-linecap="round" stroke-linejoin="round" stroke-width="19.1145"/>
</g>
</g>
</g>
<path d="M463.522 824.134C463.522 786.012 579.023 778.446 579.023 824.134" fill="none" fill-rule="evenodd" opacity="1" stroke="#084601" stroke-linecap="round" stroke-linejoin="round" stroke-width="19.1145"/>
<path d="M138.983 820.504C143.453 807.229 153.048 800.663 157.371 798.668C166.328 794.534 179.056 791.395 188.976 792.922C196.836 794.131 199.276 793.883 213.286 802.134C217.12 804.391 220.359 807.53 222.879 811.31" fill="none" fill-rule="evenodd" opacity="1" stroke="#084601" stroke-linecap="round" stroke-linejoin="round" stroke-width="19.1145"/>
<path d="M324.943 877.879C324.943 876.399 327.023 875.199 329.59 875.199C332.156 875.199 334.236 876.399 334.236 877.879C334.236 879.36 332.156 880.56 329.59 880.56C327.023 880.56 324.943 879.36 324.943 877.879Z" fill="none" fill-rule="evenodd" opacity="1" stroke="#084601" stroke-linecap="round" stroke-linejoin="round" stroke-width="19.1145"/>
<path d="M63.4013 959.334C64.2056 957.725 33.3977 956.592 28.7617 957.255C-3.48189 961.861 23.3673 1047.77 29.471 1065.06C49.5365 1121.91 124.865 1077.21 161.717 1077.21" fill="none" fill-rule="evenodd" opacity="1" stroke="#084601" stroke-linecap="round" stroke-linejoin="round" stroke-width="19.1145"/>
</g>
<clipPath id="ArtboardFrame">
<rect height="1250" width="1400" x="0" y="0"/>
</clipPath>
<g clip-path="url(#ArtboardFrame)" id="Layer-5" vectornator:layerName="Layer 5">
<path d="M288.223 246.829C273.625 247.615 259.075 277.715 249.951 287.528C245.15 292.691 230.058 305.69 236.952 304.214C268.24 297.517 297.157 259.801 323.044 242.434C336.663 233.297 375.534 205.783 366.586 219.526C348.992 246.546 289.278 268.766 264.554 288.334C253.128 297.378 219.111 323.245 232.877 318.463C272.263 304.782 311.826 258.626 347.552 236.239C358.074 229.645 384.058 206.311 380.072 218.071C375.977 230.157 218.518 312.333 234.427 335.56C234.678 335.925 359.432 235.329 369.759 227.946C380 220.624 409.539 198.811 402.619 209.328C361.024 272.553 256.088 299.506 207.668 363.401C203.608 368.759 219.493 356.854 224.698 352.601C264.118 320.385 253.134 325.848 296.513 292.385C328.931 267.377 390.785 213.264 431.935 211.73C467.292 210.412 368.223 242.953 338.68 262.421C337.54 263.172 221.264 347.028 226.714 355.543C233.063 365.464 249.014 347.389 258.934 341.04C322.4 300.42 377.622 249.096 445.176 214.334C454.003 209.792 427.669 223.695 418.937 228.416C404.279 236.342 389.328 243.785 375.163 252.563C333.456 278.41 288.352 308.191 255.528 345.535C249.562 352.322 271.018 336.107 277.994 330.362C289.752 320.679 301.098 310.495 312.995 300.983C351.228 270.416 403.826 221.959 453.814 212.741C474.449 208.936 416.777 232.632 399.399 244.393C355.383 274.182 318.765 310.208 278.264 344.012C257.489 361.353 320.493 310.158 341.74 293.399C371.043 270.287 423.352 222.574 463.09 218.709C484.424 216.635 426.119 240.436 408.103 252.05C365.564 279.473 319.675 310.687 287.649 350.771C283.763 355.635 299.8 347.002 304.72 343.185C328.337 324.867 350.901 305.226 374.205 286.511C402.9 263.466 432.31 242.234 462.177 220.848C473.638 212.641 436.974 233.601 425.133 241.25C396.039 260.044 372.012 285.121 348.481 310.184C340.888 318.271 316.845 336.051 327.934 336.364C368.846 337.519 436.599 229.685 474.412 210.306C475.595 209.7 473.336 212.778 472.477 213.793C447.29 243.546 418.832 270.808 391.572 298.611C385.131 305.179 366.285 325.301 372.129 318.197C386.485 300.749 470.705 194.405 492.176 210.676C509.77 224.01 462.066 242.992 447.826 259.862C440.044 269.081 420.62 294.549 414.375 306.338C411.216 312.303 425.352 298.324 429.894 293.33C452.602 268.363 467.692 243.114 484.206 214.19C491.197 201.944 474.296 256.462 488.396 256.285C503.238 256.098 494.775 227.289 497.693 212.734C509.295 154.848 505.33 217.405 516.979 235.841C527.442 252.399 493.525 179.895 512.928 177.222C513.738 177.11 517.738 210.77 518.386 213.909C525.129 246.589 512.92 296.927 535.262 324.706C548.412 341.056 626.359 294.4 618.197 330.589C616.117 339.81 591.172 343.393 591.358 340.326C591.793 333.153 622.899 331.774 560.202 345.021C550.758 347.016 540.351 346.145 535.653 348.001C533.132 348.997 529.502 352.907 527.97 350.67C526.311 348.248 571.765 332.01 561.157 334.422C469.499 355.271 544.762 344.8 541.567 338.329C538.088 331.284 497.803 356.034 491.787 356.863C475.885 359.054 517.564 337.59 531.515 329.65C540.81 324.36 517.586 348.88 506.991 350.34C494.022 352.126 521.624 301.695 523.411 314.664C529.999 362.474 517.529 276.661 512.711 266.22C505.525 250.647 527.787 331.987 518.943 317.292C510.882 303.9 512.959 278.786 513.051 265.77C513.134 254.117 511.62 219.743 515.086 230.869C520.104 246.97 519.257 304.513 503.958 313.721C477.13 329.869 505.514 250.907 501.887 219.805C501.141 213.406 497.342 232.121 497.226 238.563C496.81 261.568 499.446 278.747 501.194 302.427C502.002 313.364 505.006 324.738 502.102 335.313C500.547 340.977 498.707 323.992 498.127 318.148C494.97 286.353 481.005 197.441 501.029 222.339C508.808 232.011 495.917 319.671 492.675 337.014C488.204 360.926 508.197 247.631 490.274 264.077C469.466 283.171 476.752 361.425 475.194 359.149C460.548 337.768 477.526 259.457 479.312 234.187C481.771 199.41 479.734 372.109 470.728 338.428C462 305.786 475.933 244.804 479.188 247.892C491.332 259.415 459.461 337.644 465.944 359.216C469.107 369.742 488.766 327.305 491.204 338.022C496.761 362.454 438.988 358.904 509.647 349.168C521.718 347.505 485.764 354.353 474.295 358.468C457.825 364.375 423.732 378.923 407.595 376.917C312.531 365.099 206.666 433.649 115.979 416.694C110.362 415.644 106.736 412.211 107.521 404.977C108.827 392.938 131.203 398.631 130.803 395.73C130.633 394.491 129.901 402.379 178.623 374.649C190.543 367.865 151.381 388.624 147.749 401.85C142.507 420.941 215.554 361.026 199.221 372.214C186.746 380.758 150.735 407.536 164.614 401.539C188.095 391.393 254.736 356.916 229.397 360.407C220.236 361.669 173.628 400.424 174.314 401.813C175.371 403.954 249.277 360.787 256.003 351.91C263.742 341.699 233.123 363.707 222.856 371.373C212.863 378.834 198.943 383.672 193.918 395.086C188.069 408.372 220.036 382.212 232.092 374.126C256.466 357.779 283.437 344.793 307.501 328.31C313.293 324.342 294.617 334.012 288.673 337.748C269.619 349.723 222.765 369.531 210.579 390.375C204.575 400.645 232.713 381.247 242.636 374.686C283.901 347.401 271.335 354.792 304.135 336.02C311.591 331.753 335.118 322.952 326.533 323.272C301.95 324.188 186.727 409.653 240.524 379.808C279.095 358.409 317.423 336.472 356.014 315.184C365.703 309.84 335.498 323.559 325.66 328.626C297.693 343.028 281.646 352.61 255.347 370.519C248.393 375.254 227.458 385.485 235.809 386.496C251.106 388.347 271.239 369.797 282.798 362.309C403.649 284.017 246.621 373.747 247.021 388.977C247.042 389.775 338.974 326.735 350.072 330.496C378.352 340.079 244.736 378.952 274.595 378.737C312.472 378.463 359.79 320.738 396.843 304.728C405.184 301.124 380.711 313.111 372.865 317.693C345.104 333.908 315.495 350.592 291.883 372.731C281.186 382.761 317.566 358.527 329.894 350.586C362.546 329.552 395.617 313.472 429.321 295.02C430.97 294.117 425.555 295.682 423.899 296.572C420.858 298.206 323.8 357.998 322.755 357.206C302.529 341.879 362.852 326.09 382.715 310.298C394.618 300.834 406.069 290.795 418.221 281.654C430.078 272.734 462.905 245.641 456.572 259.059C441.719 290.529 377.491 317.213 349.921 338.165C340.496 345.328 313.243 367.529 323.857 362.287C363.345 342.789 395.432 303.277 432.838 279.64C440.689 274.679 465.258 262.913 458.832 269.617C428.671 301.083 369.402 324.694 335.139 350.669C323.257 359.676 286.655 384.658 300.369 378.808C359.334 353.658 400.87 294.056 462.087 272.792C471.41 269.554 446.174 284.493 437.864 289.817C412.349 306.163 388.144 321.6 364.347 340.606C354.638 348.361 326.041 371.933 336.812 365.736C565.609 234.103 422.302 279.142 319.522 383.416C314.219 388.796 331.989 374.847 337.806 370.027C365.512 347.071 388.911 325.489 419.062 305.29C428.53 298.947 457.18 282.022 450.097 290.949C429.437 316.989 349.775 339.51 346.375 370.859C343.881 393.843 382.135 341.508 400.845 327.928C415.344 317.404 431.418 304.667 449.21 299.123C450.38 298.758 448.165 301.434 447.221 302.215C436.762 310.869 354.501 369.555 354.671 369.716C360.634 375.374 422.143 327.118 426.524 324.39C435.809 318.608 463.222 302.388 456.483 311.003C436.791 336.175 400.033 351.643 374.247 368.629C369.826 371.542 357.086 381.033 361.454 378.041C398.141 352.911 428.24 319.488 464.577 293.785C465.988 292.787 470.09 289.779 469.046 291.157C397.004 386.224 373.977 321.697 455.749 299.832C456.323 299.679 457.102 299.914 457.438 300.405C474.034 324.634 413.9 370.041 409.995 359.276C401.924 337.03 441.292 295.419 461.905 309.451C482.2 323.266 399.73 365.431 388.77 363.005C359.808 356.596 450.186 308.045 471.057 329.124C476.395 334.516 418.336 363.312 405.349 363.539C385.367 363.888 478.807 335.138 463.126 347.527C414.266 386.129 383.426 262.793 328.471 296.435C325.154 298.466 378.745 308.222 383.451 309.794C402.862 316.276 470.729 379.34 465.361 340.375C464.171 331.743 428.492 327.58 424.031 326.746C384.895 319.429 234.893 291.869 192.636 312.736C174.241 321.819 216.563 389.957 204.969 373.032C194.653 357.972 179.744 305.276 190.06 320.337C200.279 335.256 212.09 383.003 196.278 374.23C191.258 371.444 189.105 325.727 192.144 320.855C200.19 307.959 199.489 350.828 207.327 363.851C217.48 380.718 205.247 324.447 206.437 304.796C207.428 288.431 207.018 339.66 216.688 352.899C226.839 366.797 211.363 318.342 214.012 301.336C216.054 288.224 225.421 352.212 226.853 339.019C229.202 317.359 189.816 294.172 182.057 273.936C176.01 258.168 180.589 208.395 173.958 223.926C168.201 237.411 183.326 276.579 185.746 291.946C187.856 305.351 191.57 345.904 189.718 332.461C186.924 312.183 173.151 292.282 168.529 272.177C153.493 206.771 198.031 240.944 230.78 218.512C242.321 210.607 181.047 215.985 189.679 226.993C199.446 239.45 251.107 212.088 235.426 214.249C226.028 215.544 187.085 237.386 188.504 247.686C190.85 264.711 239.343 234.998 231.733 219.588C230.088 216.257 182.632 250.918 180.752 252.78C163.669 269.693 226.844 195.831 241.91 214.563C245.023 218.433 182.215 279.01 184.167 280.489C190.951 285.63 195.614 267.871 201.743 261.965C221.476 242.951 243.231 222.738 265.86 207.238C276.192 200.161 248.232 225.028 239.333 233.839C226.917 246.132 208.309 263.261 191.661 270.6C185.92 273.131 200.519 261.704 205.15 257.47C223.982 240.251 243.12 219.545 265.915 207.633C294.504 192.692 238.581 271.701 209.968 286.596C204.129 289.635 216.98 275.364 221.441 270.523C241.198 249.078 261.431 228.216 283.897 209.583C288.381 205.864 275.352 217.507 271.035 221.42C250.251 240.259 252.79 238.152 231.482 258.672C221.128 268.644 211.731 281.214 199.41 288.856C192.775 292.971 208.759 276.291 214.221 270.712C224.959 259.744 246.591 232.891 262.206 227.467C263.219 227.115 260.521 228.791 259.659 229.428C248.868 237.4 178.611 288.473 190.471 305.788C199.639 319.172 215.271 284.846 227.121 273.766C255.023 247.677 283.591 219.869 316.375 199.875C323.502 195.528 304.712 211.827 298.69 217.609C281.476 234.137 264.388 251.405 248.182 268.851C237.544 280.304 206.168 315.051 217.662 304.457C390.878 144.789 284.257 209.466 229.01 302.088C220.169 316.911 250.816 275.164 263.55 263.513C283.413 245.34 309.794 224.924 333.742 211.975C350.562 202.88 261.673 237.246 280.229 232.633C315.531 223.857 352.939 184.349 390.593 189.246C424.099 193.604 273.202 245.641 293.608 218.712C311.846 194.646 393.665 217.318 422.131 187.317C429.951 179.074 400.001 192.505 389.04 195.499C370.335 200.608 347.97 197.14 330.283 204.4C312.415 211.733 482.416 205.285 471.827 185.703C464.759 172.631 389.373 201.686 376.587 204.461C370.999 205.674 387.944 203.124 393.629 202.515C422.289 199.448 417.291 199.818 450.983 192.198C459.445 190.284 478.546 189.125 481.431 182.366C489.42 163.654 422.881 180.118 423.137 200.463C423.325 215.479 492.701 180.679 488.952 178.512C479.714 173.172 443.048 200.965 449.728 206.461C465.245 219.227 519.338 174.414 499.361 172.247C491.955 171.444 487.745 181.71 482.929 187.394C447.979 228.638 497.665 163.653 498.242 181.661C499.528 221.786 493.227 177.973 485.774 205.117C485.353 206.65 432.784 189.707 379.748 204.026C335.489 215.974 329.074 246.65 322.09 241.357" fill="none" fill-rule="evenodd" opacity="1" stroke="#2dd1fb" stroke-linecap="round" stroke-linejoin="round" stroke-width="19.1145"/>
<path d="M313.822 236.861C294.72 239.493 264.184 293.315 270.373 275.053C275.502 259.918 320.66 239.541 304.83 241.723" fill="none" fill-rule="evenodd" opacity="1" stroke="#2dd1fb" stroke-linecap="round" stroke-linejoin="round" stroke-width="19.1145"/>
<path d="M239.268 394.071C214.438 408.203 153.65 405.062 120.639 409.611" fill="none" fill-rule="evenodd" opacity="1" stroke="#2dd1fb" stroke-linecap="round" stroke-linejoin="round" stroke-width="19.1145"/>
<path d="M498.134 362.027C496.165 363.771 493.69 365.375 499.483 363.049C512.402 357.86 606.357 343.997 603.784 325.329" fill="none" fill-rule="evenodd" opacity="1" stroke="#2dd1fb" stroke-linecap="round" stroke-linejoin="round" stroke-width="19.1145"/>
<path d="M852.068 35.3291C849.28 33.9349 847.078 35.545 844.05 35.8636C840.507 36.2366 836.806 34.9568 833.36 35.8636C825.88 37.8321 818.606 49.2159 814.118 55.1057C812.736 56.9206 811.303 58.6979 809.842 60.4507C808.94 61.5337 804.561 66.8647 803.428 66.8647C802.537 66.8647 804.538 65.4679 805.032 64.7267C805.608 63.8623 806.146 62.9709 806.635 62.0542C807.573 60.2966 808.31 58.4331 809.308 56.7092C813.909 48.7615 820.65 43.576 829.084 40.1396C830.966 39.3732 832.986 39.0014 834.964 38.5361C836.019 38.2879 839.14 38.4863 838.171 38.0016C835.346 36.5893 827.328 40.3686 824.808 41.2086C807.263 47.0569 792.084 60.9339 790.6 80.2273C790.408 82.7206 789.634 85.7097 791.135 87.7103C791.857 88.6737 794.009 86.258 796.48 83.4343C799.815 79.6229 802.881 75.5846 806.101 71.6752C814.514 61.4598 823.54 51.6825 833.36 42.8121C836.999 39.5258 843.355 37.9114 847.792 35.8636C848.154 35.6967 849.143 35.0474 848.861 35.3291C842.891 41.2995 836.749 46.396 831.222 52.9677C826.906 58.1008 822.678 63.308 818.394 68.4682C814.839 72.7508 811.502 77.2271 807.704 81.2963C806.489 82.5988 805.022 83.7065 803.428 84.5033C802.791 84.822 801.379 85.2104 801.29 84.5033C801.101 82.9928 802.087 81.5181 802.894 80.2273C805.671 75.7837 808.619 71.4193 811.98 67.3992C817.723 60.5307 823.542 53.6592 830.153 47.6227C835.89 42.3848 841.812 36.9892 848.861 33.7256C851.937 32.3015 856.014 32.6872 859.016 34.2601C860.626 35.1032 860.018 37.7894 860.085 39.6051C860.292 45.1896 859.509 51.4696 857.413 56.7092C851.972 70.312 840.454 87.1636 823.739 86.6413C821.146 86.5602 818.034 86.3923 816.256 84.5033C814.65 82.7968 815.187 79.8982 815.187 77.5547C815.187 76.758 815.859 76.1073 816.256 75.4167C819.245 70.2264 821.672 64.6481 825.343 59.9162C836.161 45.9728 848.622 35.9558 867.034 38.0016C869.336 38.2574 871.444 39.5136 873.448 40.6741C877.113 42.796 879.434 48.3646 878.259 52.4332C876.644 58.0217 873.347 63.0154 870.241 67.9337C863.404 78.7591 853.598 90.4802 842.981 97.8658C839.58 100.232 835.702 101.943 831.757 103.211C830.558 103.596 828.129 103.931 828.015 102.676C827.667 98.846 828.925 94.8702 830.688 91.4518C834.878 83.3261 839.896 75.5695 845.654 68.4682C850.653 62.3024 856.377 56.6205 862.758 51.8987C865.475 49.8878 869.129 49.6203 872.379 48.6917C872.893 48.5448 873.555 48.371 873.983 48.6917C878.401 52.0054 876.817 54.7748 876.655 60.4507C876.558 63.8392 876.665 67.2604 876.121 70.6062C873.659 85.7266 865.634 99.1058 855.809 110.694C853.035 113.967 849.698 116.777 846.188 119.246C844.806 120.219 843.009 121.294 841.378 120.849C839.262 120.272 840.424 114.123 842.981 109.09C847.176 100.836 852.222 93.0412 856.878 85.0378C857.923 83.2419 858.736 81.2726 860.085 79.6928C866.064 72.6939 871.519 65.0224 878.793 59.3817C880.764 57.8531 883.804 59.052 886.276 59.3817C887.094 59.4907 887.37 65.3761 887.345 65.7957C887.092 70.0976 886.869 74.4647 885.742 78.6237C881.179 95.4489 873.681 109.717 859.551 120.315C855.192 123.584 849.93 123.75 849.93 121.384C849.93 117.19 851.207 113.045 852.602 109.09C855.499 100.884 858.591 92.678 862.758 85.0378C866.12 78.8739 870.216 73.0241 875.052 67.9337C878.224 64.5946 884.329 62.7215 888.949 63.1232C891.144 63.3141 893.859 63.1156 895.363 64.7267C896.842 66.3113 896.926 69.0303 896.432 71.1407C894.916 77.6178 891.901 83.6513 889.483 89.8483C886.639 97.1361 882.177 103.727 877.724 110.159C875.062 114.004 872.004 117.603 868.638 120.849C866.965 122.462 864.793 123.471 862.758 124.591C861.22 125.437 859.071 128.077 857.947 126.729C856.719 125.255 859.198 123.085 860.085 121.384C861.343 118.973 862.75 116.626 864.362 114.435C870.429 106.183 876.895 98.16 884.138 90.9173C884.817 90.2388 885.972 89.3823 886.811 89.8483C888.066 90.5459 888.471 92.2353 888.949 93.5898C891.526 100.891 887.421 107.828 883.604 113.901C881.289 117.583 878.73 121.111 876.121 124.591C874.451 126.817 872.743 129.037 870.776 131.005C870.377 131.403 869.676 131.791 869.172 131.539C867.046 130.476 869.653 126.686 870.776 124.591C875.393 115.971 880.054 109.262 888.949 104.814C889.918 104.33 891.072 104.28 892.156 104.28C892.554 104.28 893.373 104.444 893.225 104.814C891.913 108.093 883.894 113.838 880.931 116.573C876.787 120.399 872.489 126.752 867.569 129.401C863.656 131.508 863.091 130.648 859.016 132.074C856.83 132.839 854.844 134.162 852.602 134.746C844.122 136.959 829.899 135.313 823.739 128.332C817.008 120.703 816.847 104.208 814.118 94.6588C813.864 93.7695 812.737 89.5111 810.377 89.8483C807.116 90.3142 802.198 96.0769 800.221 97.8658C798.071 99.8117 795.767 101.607 793.807 103.745C791.833 105.899 789.769 108.08 788.462 110.694C786.699 114.221 785.474 118.047 784.721 121.918C783.328 129.081 785.271 132.106 788.462 138.488C789.509 140.582 794.005 143.343 795.945 140.626C800.662 134.023 802.201 122.15 803.428 114.435C804.133 110.005 804.783 105.552 805.032 101.073C805.141 99.1079 805.12 97.0602 804.497 95.1933C804.216 94.3482 803.087 96.4617 802.894 97.3313C802.265 100.163 801.825 103.033 801.29 105.883C800.221 111.585 799.083 117.274 798.083 122.987C795.667 136.798 792.622 152.091 794.342 166.282C794.64 168.743 797.76 170.562 798.083 170.024C799.128 168.282 799.081 166.083 799.687 164.144C800.863 160.38 802.203 156.668 803.428 152.919C807.197 141.393 810.532 130.607 812.515 118.711C812.603 118.184 812.515 119.78 812.515 120.315C812.515 122.097 812.515 123.878 812.515 125.66C812.515 129.223 812.644 132.789 812.515 136.35C812.1 147.758 810.678 159.145 810.911 170.558C811.003 175.064 810.911 181.961 815.187 183.386C817.516 184.162 817.799 179.431 817.86 179.11C818.331 176.635 818.503 174.11 818.929 171.627C820.157 164.464 822.1 157.43 823.205 150.247C823.749 146.707 823.964 143.125 824.274 139.557C824.32 139.024 824.274 137.419 824.274 137.953C824.274 145.953 821.494 152.971 820.532 160.937C819.805 166.961 819.351 173.043 819.463 179.11C819.53 182.713 819.707 186.463 821.067 189.8C821.781 191.554 823.546 192.943 825.343 193.542C826.412 193.898 826.151 191.431 826.412 190.335C827.213 186.969 827.783 183.552 828.55 180.179C829.565 175.712 830.859 171.308 831.757 166.817C833.061 160.294 833.604 153.641 834.429 147.04C834.518 146.333 834.489 148.468 834.429 149.178C834.31 150.609 834.019 152.023 833.895 153.454C833.663 156.122 833.656 158.809 833.36 161.471C832.115 172.678 830.604 183.879 830.153 195.145C830.032 198.172 829.836 201.219 830.153 204.232C830.206 204.733 830.819 205.603 831.222 205.301C833.298 203.744 832.731 200.334 833.36 197.818C833.853 195.847 834.414 193.894 834.964 191.938C836.017 188.192 837.086 184.45 838.171 180.714C838.69 178.927 839.774 175.369 839.774 175.369C839.774 175.369 838.692 178.928 838.171 180.714C837.445 183.204 836.542 185.653 836.033 188.197C834.926 193.731 832.366 204.841 837.102 209.577C840.191 212.666 841.379 206.991 841.912 205.835C843.383 202.649 844.965 199.503 846.188 196.214C848.51 189.975 851.533 183.629 851.533 176.972C851.533 176.013 850.842 178.763 850.464 179.645C849.773 181.257 848.917 182.803 848.326 184.455C847.132 187.798 846.095 191.197 845.119 194.611C843.381 200.694 839.912 207.316 841.912 213.318C842.391 214.752 843.685 216.047 845.119 216.525C848.514 217.657 851.035 211.153 851.533 210.111C854.695 203.501 857.01 196.29 859.016 189.266C859.218 188.559 858.714 190.707 858.482 191.404C858.179 192.314 857.626 193.14 857.413 194.076C856.731 197.075 856.216 200.114 855.809 203.163C855.396 206.26 853.371 215.489 855.275 218.663C855.731 219.423 856.319 218.725 858.482 213.318C859.613 210.491 860.558 207.593 861.689 204.766C862.697 202.246 863.759 199.747 864.896 197.283C865.898 195.113 865.965 191.938 868.103 190.869C869.968 189.936 866.624 194.77 865.965 196.749C865.555 197.979 865.28 199.251 864.896 200.49C863.677 204.419 862.097 208.245 861.154 212.249C860.663 214.338 860.62 216.518 860.62 218.663C860.62 220.1 860.209 221.858 861.154 222.939C863.269 225.355 867.024 220.748 869.707 217.06C871.02 215.254 872.007 213.22 872.914 211.18C873.29 210.333 874.656 204.975 874.517 204.766C873.925 203.879 872.644 206.054 871.845 207.973C870.368 211.516 868.75 215.012 867.569 218.663C866.783 221.09 865.744 223.605 865.965 226.146C866.124 227.974 866.897 230.377 868.638 230.957C870.092 231.441 871.386 229.452 872.379 228.284C876.362 223.599 879.711 216.798 882 211.18C882.702 209.458 883.015 207.6 883.604 205.835C883.891 204.973 884.544 202.35 884.138 203.163C882.65 206.14 882.38 209.583 881.466 212.784C880.349 216.691 878.544 222.935 878.259 227.215C878.221 227.777 878.23 228.819 878.793 228.819C881.813 228.819 884.673 223.889 885.742 222.405C887.763 219.597 889.75 216.763 891.621 213.853C892.96 211.771 894.089 209.561 895.363 207.439C895.693 206.888 896.432 205.193 896.432 205.835C896.432 210.424 892.221 219.818 891.087 224.543C890.663 226.309 890.294 228.092 890.018 229.888C889.936 230.416 889.499 231.621 890.018 231.491C896.564 229.855 903.954 217.82 908.191 213.318C909.144 212.305 910.033 210.373 911.398 210.646C912.46 210.858 911.175 212.815 910.863 213.853C910.102 216.39 909.028 218.823 908.191 221.336C907.137 224.496 904.26 233.85 903.38 237.371C902.939 239.133 900.624 242.041 902.311 242.716C904.07 243.419 904.869 239.919 906.053 238.44C907.722 236.353 909.26 234.164 910.863 232.026C915.889 225.325 920.932 218.625 926.364 212.249C927.344 211.098 928.313 208.204 929.571 209.042C930.837 209.887 928.706 211.987 927.967 213.318C926.911 215.219 925.531 216.923 924.226 218.663C918.307 226.555 911.314 233.677 905.518 241.647C904.954 242.423 903.503 244.162 904.449 244.319C906.021 244.581 907.45 243.137 908.725 242.181C911.755 239.909 914.56 237.338 917.277 234.698C928.436 223.858 935.469 216.206 948.813 208.508C950.193 207.711 951.526 206.682 953.089 206.37C953.83 206.221 952.02 207.439 951.485 207.973C950.238 209.22 949.022 210.5 947.744 211.715C945.458 213.886 943.224 216.119 940.795 218.129C936.208 221.925 930.471 224.59 926.898 229.353C926.457 229.941 928.391 229.17 929.036 228.819C930.382 228.085 931.538 227.048 932.778 226.146C935.458 224.197 938.237 222.373 940.795 220.267C944.302 217.379 947.515 214.152 950.951 211.18C954.108 208.449 957.219 205.65 960.572 203.163C964.743 200.068 969.862 198.369 973.934 195.145C976.305 193.268 978.161 190.819 980.348 188.731C985 184.291 990.418 180.629 994.78 175.903C996.761 173.756 998.924 170.357 1001.73 168.955C1006.5 166.569 1010.4 162.006 1016.16 162.006C1017.39 162.006 1019.97 160.677 1020.44 162.541C1020.6 163.199 1020.91 169.189 1020.44 170.024C1019.17 172.244 1010.25 177.029 1008.14 178.576C1003.76 181.79 1000.49 185.792 996.383 189.266C988.724 195.747 979.438 200.331 972.331 207.439C959.907 219.862 944.766 229.785 931.174 241.112C926.21 245.249 922.037 250.112 917.277 254.475C910.215 260.948 901.418 265.835 893.759 271.579C888.553 275.483 884.208 280.177 879.328 284.407C874.357 288.715 869.05 292.249 863.827 296.166C859.09 299.719 855.958 304.624 851.533 308.459C847.042 312.352 842.169 315.849 837.636 319.684C833.34 323.319 830.049 328.153 825.877 331.978C821.838 335.68 816.523 337.364 812.515 341.064C809.167 344.154 806.141 347.972 802.894 351.22C787.143 366.97 773.926 384.854 760.668 402.532C758.806 405.015 746.662 414.716 749.978 418.032C752.513 420.568 764.06 419.036 766.548 416.963C768.142 415.634 766.822 412.917 767.082 411.618C767.276 410.647 770.207 409.42 770.824 408.946C774.123 406.408 777.767 403.667 780.445 400.394C784.879 394.974 787.08 388.819 791.135 383.29C796.088 376.536 804.113 371.132 810.377 365.651C816.369 360.408 823.797 356.993 829.619 351.754C832.493 349.168 834.392 345.912 837.102 343.202C840.204 340.1 839.144 341.938 842.447 339.461C846.638 336.317 850.29 332.251 854.206 328.771C857.007 326.28 858.568 322.805 861.154 320.218C863.202 318.171 866.396 318.158 868.638 316.477C875.232 311.531 879.467 303.605 886.276 298.838C892.669 294.364 899.718 290.214 905.518 284.941C908.319 282.395 910.671 279.406 913.536 276.924C916.225 274.593 919.405 272.924 922.088 270.51C924.774 268.092 926.876 264.802 929.571 262.492C933.109 259.459 937.448 257.287 940.795 253.94C947.671 247.065 952.506 238.6 958.968 231.491C963.099 226.948 968.81 224.463 972.865 219.732C977.085 214.809 980.892 210.37 985.693 206.37C987.308 205.024 986.963 203.062 988.9 202.094" fill="none" fill-rule="evenodd" opacity="1" stroke="#ff606d" stroke-linecap="round" stroke-linejoin="round" stroke-width="27.1358"/>
<path d="M2405.25-507.198C2405.13-507.029 2393.19-507.027 2398.51-512.215C2399.28-512.974 2409.77-515.254 2409.65-514.453C2409.24-511.655 2406.88-509.512 2405.25-507.198Z" fill="none" fill-rule="evenodd" opacity="1" stroke="#ff606d" stroke-linecap="round" stroke-linejoin="round" stroke-width="27.1358"/>
<path d="M1007.98 497.203C1007.98 493.05 1008.2 494.679 1007.32 490.575C1006.94 488.832 1006.11 481.784 1003.34 480.632C999.728 479.127 995.669 482.824 993.397 484.609C985.402 490.891 978.587 498.659 972.186 506.483C970 509.154 967.803 511.817 965.557 514.437C962.795 517.66 960.07 520.926 957.603 524.38C953.116 530.662 948.972 537.058 947.66 544.928C947.224 547.543 947.66 550.231 947.66 552.882C947.66 553.324 947.66 554.65 947.66 554.208C947.66 551.865 947.285 548.318 947.66 546.254C948.442 541.952 954.398 534.656 956.94 531.671C964.474 522.827 971.03 517.148 979.477 509.134C984.126 504.724 988.511 500.023 993.397 495.877C995.827 493.816 998.619 492.214 1001.35 490.575C1001.95 490.215 1002.68 489.691 1003.34 489.912C1003.76 490.051 1003.57 490.863 1003.34 491.237C1002.43 492.701 1001.2 493.95 1000.03 495.214C998.324 497.046 996.421 498.683 994.723 500.517C990.895 504.651 987.191 508.896 983.454 513.111C969.227 529.162 955.97 545.543 946.335 564.814C943.905 569.674 942.875 574.336 944.346 574.756C950.234 576.439 954.122 567.293 956.94 563.488C960.597 558.552 964.402 553.727 968.209 548.905C974.345 541.132 980.351 533.249 986.768 525.706C992.951 518.438 999.598 511.578 1005.99 504.494C1007.77 502.519 1009.87 500.773 1011.29 498.529C1011.56 498.112 1011.12 497.154 1010.63 497.203C1005.32 497.734 1000.34 501.896 996.711 505.157C990.323 510.907 983.759 516.542 978.151 523.054C965.373 537.894 951.975 555.245 945.009 574.094C943.934 577.002 944.54 580.278 944.346 583.373C944.319 583.814 944.014 584.408 944.346 584.699C945.915 586.072 947.591 588.343 949.649 588.013C953.846 587.342 957.737 584.867 960.917 582.048C967.591 576.133 973.206 569.096 978.814 562.162C991.81 546.094 1006.63 523.309 1017.92 506.483C1021.92 500.53 1026.02 494.643 1029.85 488.586C1030.23 487.996 1031.17 486.359 1030.52 486.597C1021.25 489.966 1013.24 498.174 1006.65 505.157C1000.43 511.754 994.029 518.187 988.094 525.043C976.525 538.407 964.062 551.596 956.277 567.465C953.63 572.861 952.182 578.811 950.975 584.699C950.397 587.513 950.795 590.449 950.975 593.316C951.018 594.014 951.042 594.939 951.637 595.305C954.084 596.81 956.737 598.936 959.592 598.619C963.325 598.204 966.712 595.794 969.534 593.316C975.878 587.746 981.382 581.257 986.768 574.756C999.188 559.768 1012.18 542.933 1020.57 525.043C1022.12 521.744 1023.56 518.066 1023.23 514.437C1023.06 512.57 1021.12 510.379 1019.25 510.46C1015.19 510.636 1011.4 512.914 1007.98 515.1C1000.94 519.594 993.778 524.225 988.094 530.345C979.284 539.833 971.537 550.386 964.894 561.499C959.968 569.742 956.532 578.86 953.626 588.013C952.075 592.898 952.203 598.165 951.637 603.259C951.54 604.137 951.261 605.111 951.637 605.91C953.074 608.962 953.975 612.921 956.94 614.527C960.049 616.211 964.214 615.71 967.546 614.527C971.419 613.153 974.808 610.351 977.489 607.236C986.535 596.723 995.028 584.195 997.374 570.116C997.816 567.465 997.891 564.12 996.048 562.162C993.797 559.77 989.904 559.828 986.768 558.848C983.085 557.697 979.092 560.088 975.5 561.499C970.386 563.508 965.55 566.292 962.243 570.779C959.251 574.839 956.675 579.297 954.952 584.036C954.725 584.659 955.082 586.675 954.952 586.025C953.798 580.257 954.308 574.587 954.952 568.791C955.345 565.25 956.155 561.746 956.277 558.185C956.353 555.984 956.115 548.513 954.289 545.591C953.372 544.124 951.615 543.541 950.975 545.591C950.031 548.611 949.45 551.742 948.986 554.871C947.023 568.119 946.969 581.528 944.346 594.642C943.779 597.477 945.286 596.076 943.683 599.282C943.486 599.677 943.683 598.398 943.683 597.956C943.683 596.63 943.595 595.302 943.683 593.979C943.816 591.983 944.193 590.008 944.346 588.013C944.635 584.262 944.895 580.506 945.009 576.745C945.284 567.66 944.77 558.589 945.672 549.568C945.871 547.577 944.92 545.017 946.335 543.602C946.979 542.958 947.218 545.37 946.997 546.254C946.878 546.733 946.518 547.121 946.335 547.58C946.075 548.228 945.917 548.914 945.672 549.568C944.527 552.621 943.032 555.642 942.358 558.848C941.268 564.021 941.695 570.971 941.695 576.082C941.695 582.219 940.767 588.783 943.02 594.642C946.567 603.863 952.532 611.412 960.917 616.516C963.961 618.368 967.44 619.563 970.197 621.819C976.938 627.334 978.328 635.705 985.443 641.041C990.791 645.053 995.222 647.59 999.363 652.973C1000.33 654.235 1000.96 655.759 1002.01 656.95C1002.75 657.775 1005.16 659.926 1004.67 658.938C1002.71 655.028 995.846 649.935 992.734 647.007C985.391 640.096 976.963 633.933 970.86 625.796C968.541 622.704 966.812 619.209 964.894 615.853C964.159 614.566 962.906 611.876 962.906 611.876C962.906 611.876 964.132 614.582 964.894 615.853C966.124 617.902 967.501 619.861 968.872 621.819C970.595 624.281 972.286 626.772 974.174 629.11C979.279 635.43 984.996 641.356 991.408 646.344C994.409 648.678 997.595 650.763 1000.69 652.973C1002.23 654.077 1003.9 655.035 1005.33 656.287C1005.7 656.612 1006.34 657.263 1005.99 657.613C1005.71 657.896 1004.75 657.016 1001.35 654.298C993.707 648.183 985.772 642.296 977.489 637.064C975.06 635.53 972.234 634.732 969.534 633.75C969.119 633.599 967.813 633.552 968.209 633.75C972.321 635.806 977.49 636.088 981.466 638.39C988.006 642.177 994.22 646.772 999.363 652.31C1000.31 653.33 1008.55 663.666 1010.63 661.59C1011.26 660.965 1010.63 659.822 1010.63 658.938C1010.63 656.685 1009.89 654.487 1009.31 652.31C1008.84 650.549 1008.34 648.794 1007.98 647.007C1007.45 644.371 1006.95 641.724 1006.65 639.053C1006.51 637.735 1006 636.227 1006.65 635.076C1007.11 634.285 1008.55 633.907 1009.31 634.413C1015.02 638.221 1020.8 649.339 1022.56 655.624C1023.28 658.186 1023.23 660.918 1023.23 663.578C1023.23 664.277 1023.25 665.704 1022.56 665.567C1018.94 664.843 1019.33 658.807 1019.25 656.95C1019.12 654.08 1019.09 651.201 1019.25 648.333C1019.53 643.239 1019.79 638.128 1020.57 633.087C1021.34 628.162 1022.81 623.371 1023.89 618.504C1024.13 617.405 1024.05 614.183 1024.55 615.19C1025.24 616.574 1024.55 618.283 1024.55 619.83C1024.55 624.711 1023.55 629.543 1023.23 634.413C1022.57 644.303 1021.76 656.865 1023.89 666.892C1024.57 670.106 1026.11 673.075 1027.2 676.172C1027.43 676.831 1027.17 678.161 1027.87 678.161C1029.13 678.161 1027.57 676.874 1027.2 672.858C1026.88 669.331 1026.79 665.786 1026.54 662.252C1026.48 661.371 1026.54 660.485 1026.54 659.601C1026.54 659.159 1026.17 658.03 1026.54 658.275C1031.88 661.834 1030.08 670.652 1032.51 675.509C1032.7 675.905 1032.61 674.612 1032.51 674.184C1032.17 672.828 1031.66 671.52 1031.18 670.207C1030.09 667.2 1029.05 664.551 1026.54 662.252C1022.08 658.168 1014.59 656.816 1009.31 654.298C996.489 648.195 985.615 640.175 974.837 631.099C968.068 625.398 961.433 621.745 959.592 612.539C959.202 610.589 959.31 608.542 959.592 606.573C959.768 605.336 961.972 602.702 962.243 603.922C964.351 613.406 960.839 624.111 961.58 633.75C961.704 635.357 962.58 637.282 964.894 635.739C966.33 634.781 967.214 633.171 968.209 631.761C972.52 625.653 976.575 619.368 980.803 613.202C981.878 611.634 983.063 610.143 984.117 608.562C1002.06 581.64 1019.78 554.559 1037.81 527.694C1041.85 521.671 1047.83 514.324 1053.05 510.46C1054.01 509.753 1055.62 510.857 1056.37 511.786C1056.8 512.331 1056.03 513.154 1055.7 513.774C1052.93 519.128 1050.13 524.473 1047.09 529.683C1042.39 537.735 1037.62 545.753 1032.51 553.545C1015.34 579.677 993.562 602.432 978.151 629.773C976.572 632.575 972.772 637.348 975.5 639.053C978.31 640.809 981.138 635.457 983.454 633.087C990.674 625.699 997.309 617.756 1004 609.887C1013.66 598.531 1023.48 587.287 1032.51 575.419C1039.63 566.053 1045.71 555.938 1052.39 546.254C1056.53 540.25 1060.67 534.239 1064.98 528.357C1065.54 527.601 1067.91 526.368 1066.97 526.368C1064.13 526.368 1063.66 528.768 1062.33 530.345C1058.2 535.263 1053.76 539.921 1049.74 544.928C1035.54 562.61 1022.42 581.229 1010.63 600.608C1006.83 606.86 1002.77 613.047 1000.03 619.83C998.945 622.501 998.328 625.758 999.363 628.447C999.595 629.053 1003.73 628.814 1004.67 627.784C1008.56 623.484 1012.44 619.157 1015.93 614.527C1026.2 600.929 1035.67 586.713 1044.44 572.105C1048.2 565.83 1051.45 559.261 1055.04 552.882C1055.43 552.188 1057.08 551.25 1056.37 550.894C1054.84 550.131 1048.97 557.006 1047.09 559.511C1043.74 563.972 1040.78 568.713 1037.81 573.431C1029.38 586.805 1022.39 601.141 1016.6 615.853C1014.73 620.6 1013.19 625.487 1011.96 630.436C1011.64 631.722 1011.46 633.182 1011.96 634.413C1012.14 634.872 1013 634.157 1013.28 633.75C1015.47 630.565 1017.3 627.143 1019.25 623.807C1022.6 618.084 1025.78 612.26 1029.19 606.573C1040.75 587.305 1051.21 567.562 1065.65 550.231C1067.85 547.59 1070.58 545.438 1072.94 542.94C1074.34 541.459 1075.48 539.74 1076.92 538.3C1077.27 537.95 1078.52 537.226 1078.24 537.637C1073.35 544.972 1065.21 551.616 1059.68 558.185C1050.62 568.951 1040.29 584.882 1033.17 595.968C1030.38 600.302 1027.72 604.72 1025.21 609.225C1024.4 610.695 1023.91 612.327 1023.23 613.864C1023.02 614.316 1022.34 614.748 1022.56 615.19C1022.76 615.585 1023.53 615.455 1023.89 615.19C1025.9 613.679 1027.13 611.321 1028.53 609.225C1030.67 606.009 1032.49 602.589 1034.49 599.282C1038.24 593.088 1041.57 586.62 1045.76 580.722C1048.67 576.64 1052.35 573.177 1055.7 569.454C1056.55 568.515 1062.39 562.162 1060.34 562.162C1059.55 562.162 1059.48 563.498 1059.02 564.151C1057.93 565.708 1056.82 567.25 1055.7 568.791C1053.95 571.227 1052.25 573.715 1050.4 576.082C1043.53 584.858 1035.45 592.544 1028.53 601.27C1026.17 604.249 1023.9 607.318 1021.9 610.55C1021.01 611.981 1019.16 613.685 1019.91 615.19C1020.49 616.343 1022.31 614.113 1023.23 613.202C1025.67 610.761 1027.71 607.953 1029.85 605.247C1035.51 598.101 1039.51 590.622 1045.1 583.373C1059.37 564.874 1080.79 545.763 1102.77 536.974C1108.62 534.632 1112.21 536.145 1118.01 536.974C1121.29 537.443 1124.64 536.974 1127.96 536.974C1130.84 536.974 1133.71 537.28 1136.57 537.637C1137.45 537.746 1140.06 537.916 1139.22 537.637C1134.59 536.093 1128.28 538.944 1123.98 540.288C1115.64 542.895 1107.3 545.593 1098.79 547.58C1095.92 548.249 1093.06 548.99 1090.17 549.568C1088.64 549.875 1087.09 550.058 1085.53 550.231C1085.09 550.28 1083.77 550.144 1084.21 550.231C1098.84 553.157 1111.11 544.695 1125.3 543.602C1127.55 543.43 1134.17 542.64 1136.57 543.602C1137.8 544.094 1142.89 549.213 1144.53 547.58C1146.31 545.798 1138.56 542.94 1138.56 542.94L1147.18 547.58C1147.18 547.58 1143.96 545.528 1142.54 544.265C1138.92 541.046 1135.36 537.749 1131.93 534.323C1129.94 532.334 1128.48 529.615 1125.97 528.357C1119.6 525.175 1113.29 523.816 1107.41 519.74C1103.22 516.841 1096.81 514.259 1093.49 510.46C1090.7 507.276 1091.98 503.624 1087.52 501.843C1071.82 495.56 1053.88 493.016 1037.14 491.9C1025.84 491.147 1015.31 489.886 1005.33 496.54C1001.27 499.247 1013.62 497.866 1014.61 497.866C1017.48 497.866 1020.35 497.866 1023.23 497.866C1039.73 497.866 1055.3 498.461 1071.61 501.18C1075.38 501.807 1079.15 502.358 1082.88 503.169C1084.74 503.572 1088.5 504.853 1087.52 506.483C1087.01 507.33 1085.78 507.413 1084.87 507.809C1082.24 508.96 1079.65 510.241 1076.92 511.123C1065.1 514.935 1053.29 515.908 1041.12 517.751C1037.57 518.29 1034.03 518.96 1030.52 519.74C1030.03 519.847 1028.7 520.403 1029.19 520.403C1037.91 520.403 1047.71 516.651 1056.37 515.763C1067.81 514.59 1079.36 515.1 1090.84 515.1C1092.38 515.1 1087.74 515.019 1086.2 515.1C1083.54 515.24 1080.87 515.342 1078.24 515.763C1071.2 516.89 1064.13 518.662 1057.69 521.728C1056.7 522.203 1055.21 523.392 1055.7 524.38C1056.33 525.63 1058.3 525.532 1059.68 525.706C1061.87 525.98 1064.11 525.906 1066.31 525.706C1076.86 524.746 1087.57 523.502 1098.13 522.391C1099.25 522.273 1100.37 521.372 1101.44 521.728C1102.03 521.926 1100.63 522.696 1100.12 523.054C1098.41 524.249 1096.57 525.241 1094.81 526.368C1092.33 527.963 1086.31 532.221 1084.21 532.997C1079.63 534.684 1074.5 534.518 1069.62 534.323C1058.56 533.88 1052.68 528.478 1045.76 520.403C1044.32 518.725 1041.78 517.309 1041.78 515.1C1041.78 513.507 1044.39 516.944 1045.76 517.751C1048.15 519.155 1050.58 520.49 1053.05 521.728C1056.77 523.585 1060.45 525.533 1064.32 527.031C1071.63 529.862 1079.53 529.893 1086.86 532.334C1087.72 532.622 1085.09 531.892 1084.21 531.671C1082.02 531.125 1079.74 530.976 1077.58 530.345C1074.43 529.426 1071.38 528.172 1068.3 527.031C1055.47 522.28 1044.56 514.88 1033.83 506.483C1032.23 505.227 1030.7 503.869 1029.19 502.506C1028.49 501.879 1026.26 500.517 1027.2 500.517C1028.31 500.517 1028.96 501.853 1029.85 502.506C1032.28 504.283 1034.63 506.164 1037.14 507.809C1040.38 509.924 1043.65 512.007 1047.09 513.774C1063.07 521.995 1080.94 524.772 1098.13 529.683C1105.22 531.71 1116.33 535.545 1123.98 532.997C1124.64 532.776 1122.67 532.471 1121.99 532.334C1121.56 532.247 1121.11 532.334 1120.66 532.334C1116.73 532.334 1114.43 533.13 1110.72 533.66C1110.07 533.753 1108.26 533.191 1108.73 533.66C1112.29 537.215 1121.51 534.428 1125.97 534.985C1130.33 535.53 1130.52 538.167 1133.92 539.625C1136.13 540.571 1139.83 539.369 1141.21 537.637C1144.9 533.022 1142.78 528.07 1141.21 523.054C1138.68 514.963 1135.54 506.515 1133.26 498.529C1129.79 486.392 1134.4 472.592 1133.26 460.083C1132.59 452.695 1129.51 444.594 1125.97 438.209C1124.63 435.799 1122.51 433.015 1121.99 430.255C1120.09 420.101 1123.22 409.034 1124.64 399.101C1125.53 392.861 1127.91 410.37 1129.28 410.37C1129.94 410.37 1129.65 408.933 1129.28 408.381C1128.18 406.737 1125.11 409.414 1123.98 411.033C1122.37 413.325 1119.52 418.551 1125.3 417.661C1131.74 416.671 1134.96 411.659 1139.89 407.718C1145.44 403.276 1148.89 401.207 1155.13 397.776C1157.47 396.489 1160.04 393.267 1162.42 394.461C1163.05 394.774 1163.4 395.825 1163.09 396.45C1159.55 403.516 1144.25 408.387 1137.9 411.033C1135.89 411.87 1133.85 412.652 1131.93 413.684C1130.96 414.208 1128.79 414.684 1129.28 415.673C1129.78 416.68 1131.58 415.492 1132.6 415.01C1135.82 413.485 1138.66 411.246 1141.88 409.707C1155.09 403.376 1168.35 396.927 1182.31 392.473C1186.6 391.103 1191.16 390.757 1195.57 389.821C1198.45 389.21 1201.41 388.824 1204.18 387.833C1204.65 387.667 1205.26 386.781 1204.85 386.507C1203.74 385.772 1202.12 386.072 1200.87 386.507C1196.18 388.138 1191.51 389.854 1186.95 391.81C1163.3 401.944 1143.14 416.727 1123.32 432.907C1120.53 435.181 1114.22 436.786 1115.36 440.198C1116.48 443.558 1122.54 441.741 1125.97 440.861C1131.42 439.462 1136.11 435.952 1141.21 433.569C1159.92 424.841 1175.62 414.556 1192.25 402.416C1196.05 399.647 1198.71 395.568 1201.53 391.81C1201.95 391.251 1202.89 389.92 1202.19 389.821C1195.82 388.91 1190.79 395.923 1185.62 399.764C1181.69 402.69 1177.42 405.189 1173.69 408.381C1166.57 414.485 1159.62 420.819 1153.14 427.604C1150.31 430.577 1147.94 434.004 1145.85 437.547C1145.35 438.398 1147.65 439.363 1148.5 438.872C1152.2 436.76 1155.66 432.167 1158.45 428.93C1163.36 423.23 1167.97 417.27 1173.03 411.695C1178.28 405.909 1185.06 401.481 1189.6 395.124C1190.01 394.556 1188.15 395.343 1187.61 395.787C1184.35 398.471 1181.42 401.526 1178.33 404.404C1171.7 410.585 1164.7 416.396 1158.45 422.964C1151.64 430.117 1145.51 437.883 1139.22 445.501C1135.12 450.48 1130.78 455.318 1127.29 460.746C1126.7 461.676 1126.22 463.793 1127.29 464.061C1129.9 464.712 1132.79 463.827 1135.25 462.735C1142.84 459.362 1150.11 455.263 1157.12 450.804C1173.11 440.626 1187.36 427.624 1200.21 413.684C1203.83 409.751 1207.3 405.616 1210.15 401.09C1211.12 399.548 1213.22 396.311 1211.47 395.787C1208.72 394.962 1205.9 397.493 1203.52 399.101C1197.66 403.062 1192.28 407.714 1186.95 412.358C1173.38 424.165 1161.1 437.609 1150.49 452.129C1147.56 456.138 1144.76 460.282 1142.54 464.723C1141.84 466.121 1141.33 467.9 1141.88 469.363C1143.2 472.908 1148.01 467.133 1151.82 462.735C1159.17 454.252 1165.23 444.729 1171.7 435.558C1173.61 432.85 1175.33 425.26 1177.67 427.604C1180.05 429.989 1174.18 433.376 1172.37 436.221C1171.08 438.237 1169.63 440.146 1168.39 442.187C1164.11 449.207 1160.08 456.381 1155.8 463.398C1152.79 468.314 1149.3 472.938 1146.52 477.98C1144.65 481.358 1143.53 485.099 1141.88 488.586C1140.56 491.361 1135.05 500.438 1137.24 503.169C1138.77 505.09 1142 499.951 1145.19 495.877C1147.42 493.024 1149.7 490.204 1151.82 487.26C1159.5 476.556 1166.77 465.557 1174.35 454.781C1174.99 453.877 1175.73 453.048 1176.34 452.129C1177.06 451.057 1177.42 447.904 1178.33 448.815C1179.32 449.803 1177.45 451.466 1177.01 452.792C1176.79 453.455 1176.67 454.165 1176.34 454.781C1173.35 460.361 1170.24 465.877 1167.06 471.352C1162.29 479.577 1157.24 487.642 1152.48 495.877C1148.33 503.069 1144.16 510.272 1140.55 517.751C1139.65 519.619 1140.42 521.854 1142.54 519.74C1145.2 517.079 1147.44 514.027 1149.83 511.123C1150.53 510.27 1151.21 509.391 1151.82 508.471C1155.18 503.423 1158.5 498.34 1161.76 493.226C1166.45 485.879 1170.18 477.941 1175.02 470.689C1175.95 469.289 1173.82 473.842 1173.03 475.329C1171.82 477.606 1170.2 479.653 1169.05 481.957C1166.97 486.112 1165.21 490.421 1163.09 494.552C1159.37 501.776 1155.69 509.185 1153.81 517.089C1152.78 521.396 1153.09 526.091 1151.82 530.345C1150.63 534.31 1148.98 537.298 1148.5 541.614C1148.38 542.712 1148.5 544.928 1148.5 544.928C1148.5 544.928 1149.31 541.371 1149.83 539.625C1150.75 536.544 1151.63 533.447 1152.48 530.345C1154.78 522.028 1156.53 513.571 1158.45 505.157C1161.61 491.245 1163.77 473.872 1171.04 461.409C1177.83 449.772 1191.16 439.794 1202.19 432.244C1217.34 421.879 1233.32 412.6 1248.59 402.416C1252.01 400.136 1255.38 397.755 1258.54 395.124C1259.39 394.417 1260.03 393.461 1260.53 392.473C1260.72 392.078 1260.96 391.074 1260.53 391.147C1255.38 392.004 1251.97 397.125 1247.93 400.427C1243.55 404.011 1239 407.387 1234.67 411.033C1221.24 422.349 1207.69 433.538 1194.24 444.838C1187.3 450.67 1180.6 456.824 1174.35 463.398C1171.13 466.796 1167.43 469.755 1164.41 473.34C1163.83 474.037 1162.84 475.992 1163.75 475.992C1165.73 475.992 1167.42 474.458 1169.05 473.34C1175.17 469.142 1181.02 464.555 1186.95 460.083C1204.62 446.755 1223.09 433.697 1240.64 420.313C1245.61 416.518 1250.65 412.604 1254.56 407.718C1255.18 406.947 1255.5 405.975 1255.89 405.067C1256.16 404.425 1257.23 403.215 1256.55 403.078C1252.67 402.303 1249.25 406.222 1245.94 408.381C1243.02 410.29 1240.25 412.43 1237.33 414.347C1233.17 417.071 1228.95 419.683 1224.73 422.301C1222.54 423.66 1220.2 424.78 1218.1 426.278C1217.53 426.684 1219.48 425.947 1220.09 425.615C1222.36 424.394 1224.43 422.813 1226.72 421.638C1233.49 418.169 1240.38 414.935 1247.27 411.695C1255.36 407.886 1263.72 404.357 1272.46 402.416C1274.89 401.874 1288.13 401.325 1289.69 399.764C1290.04 399.415 1288.36 399.595 1288.36 399.101C1288.36 397.745 1298.93 393.341 1299.63 389.821C1300.29 386.56 1298.18 382.925 1297.64 379.879C1296.75 374.83 1296.71 368.949 1297.64 363.97C1297.76 363.356 1298.75 363.23 1298.97 362.645C1300.1 359.632 1300.84 356.486 1301.62 353.365C1303.23 346.916 1302.71 340.009 1301.62 333.479C1300.31 325.637 1296.39 328.982 1293.67 323.537C1289.69 315.591 1290.25 303.46 1291.02 295.034C1291.43 290.465 1289.84 283.39 1287.04 279.788C1283.45 275.168 1278.16 273.91 1276.43 267.857C1275.87 265.876 1284.15 260.229 1289.63 262.967C1298.06 267.182 1279.95 269.661 1277.1 274.486C1275.59 277.038 1274.3 279.721 1273.12 282.44C1269.06 291.767 1268.04 301.905 1263.18 310.942C1259.18 318.358 1257.67 318.813 1252.57 324.862C1248.21 330.036 1244.5 335.743 1239.98 340.771C1233.6 347.855 1226.45 354.216 1220.09 361.319C1213.89 368.252 1209.07 376.459 1203.52 383.856C1201.83 386.106 1199.42 387.72 1197.55 389.821C1197.03 390.417 1196.64 391.127 1196.23 391.81C1195.97 392.234 1195.12 393.357 1195.57 393.136C1198.44 391.697 1196.94 390.669 1198.88 388.496C1202.01 385.003 1205.37 381.726 1208.82 378.553C1223.66 364.904 1239.32 351.982 1252.57 336.794C1256.73 332.032 1260.13 326.666 1263.84 321.548C1264.95 320.019 1267.68 316.615 1265.83 316.245C1262.24 315.528 1256.94 321.467 1254.56 324.199C1250.75 328.576 1246.77 332.817 1243.29 337.456C1234.17 349.621 1225.4 362.051 1216.78 374.576C1210.67 383.443 1207.64 389.357 1202.86 398.438C1202.4 399.313 1200.56 401.284 1201.53 401.09C1203.4 400.717 1204.79 399.081 1206.17 397.776C1212.76 391.554 1219.1 385.076 1225.39 378.553C1232.88 370.786 1240.55 363.133 1247.27 354.69C1254.23 345.942 1261.8 337.603 1267.82 328.176C1270.07 324.642 1274.45 319.49 1271.79 316.245C1269.48 313.415 1264.75 318.658 1261.85 320.885C1255.15 326.025 1249 331.9 1243.29 338.119C1226.55 356.352 1212.29 377.698 1205.51 401.753C1204.91 403.879 1204.04 406.73 1205.51 408.381C1206.69 409.713 1209.31 408.682 1210.81 407.718C1215.69 404.582 1219.71 400.281 1224.07 396.45C1231.93 389.528 1238.93 381.587 1245.28 373.25C1254.71 360.864 1263.45 347.946 1271.79 334.805C1273.86 331.548 1275.55 327.956 1276.43 324.199C1276.59 323.519 1275.03 323.157 1274.45 323.537C1271.02 325.75 1268.28 328.866 1265.17 331.491C1264.08 332.402 1262.84 333.128 1261.85 334.142C1254.87 341.312 1247.71 348.331 1241.3 356.016C1233.32 365.589 1225.47 375.343 1218.77 385.844C1215.25 391.346 1213.24 397.68 1210.81 403.741C1210.23 405.205 1211.61 408.687 1212.8 409.044C1214.34 409.506 1216.12 408.634 1217.44 407.718C1221.95 404.594 1225.97 400.8 1230.03 397.113C1237.09 390.709 1244.53 384.593 1250.58 377.227C1259.37 366.535 1268.91 356.361 1276.43 344.748C1279.21 340.467 1279.99 335.15 1281.07 330.165C1281.24 329.412 1278.56 329.406 1278.42 329.502C1275.61 331.508 1272.87 333.655 1270.47 336.131C1265.34 341.408 1260.16 346.714 1255.89 352.702C1251.28 359.147 1246.9 365.896 1243.95 373.25C1241.96 378.242 1240.83 383.803 1241.3 389.159C1241.54 391.845 1243.5 394.639 1245.94 395.787C1247.98 396.747 1250.71 395.728 1252.57 394.461C1256.45 391.826 1259.37 387.998 1262.51 384.519C1271.75 374.279 1280.39 363.141 1286.38 350.713C1289.38 344.465 1292.52 338.185 1294.33 331.491C1294.81 329.732 1294.65 325.405 1293 326.188C1287.78 328.674 1284.3 333.84 1280.41 338.119C1270.26 349.28 1261.08 362.178 1256.55 376.564C1255.08 381.22 1255.63 386.283 1255.22 391.147C1255.19 391.588 1254.93 392.137 1255.22 392.473C1256.35 393.783 1257.48 395.664 1259.2 395.787C1261.17 395.928 1263.01 394.432 1264.5 393.136C1268.16 389.956 1271.61 386.458 1274.45 382.53C1280.76 373.784 1288.36 358.413 1288.36 347.399C1288.36 346.7 1287.97 348.744 1287.7 349.388C1286.2 352.944 1284.48 356.404 1283.06 359.993C1279.31 369.493 1275.4 378.645 1275.77 389.159C1275.83 390.751 1277.13 392.21 1278.42 393.136C1280.58 394.678 1280.84 391.239 1281.74 385.844C1282.61 380.585 1284.57 372.366 1283.72 367.285C1283.06 363.266 1281.65 359.386 1281.07 355.353C1280.34 350.24 1279.9 339.738 1280.41 334.805C1281.98 319.629 1289.94 304.818 1282.4 289.731C1281.62 288.177 1278.86 285.979 1277.1 287.743C1272.33 292.511 1272.9 306.525 1279.08 309.617" fill="none" fill-rule="evenodd" opacity="1" stroke="#f4d619" stroke-linecap="round" stroke-linejoin="round" stroke-width="19.1145"/>
<path d="M1043.06 602.454C1038.06 592.462 1026.74 628.441 1035.68 635.144" fill="none" fill-rule="evenodd" opacity="1" stroke="#f4d619" stroke-linecap="round" stroke-linejoin="round" stroke-width="19.1145"/>
</g>
<g id="Layer-6" vectornator:layerName="Layer 6">
<path d="M166.636 221.299C238.564 207.479 348.39 185.882 437.07 173.557C466.858 169.417 493.207 154.726 512.452 169.16C544.372 193.099 516.928 281.709 539.464 311.758C559.26 338.152 637.313 270.408 623.013 341.911C620.133 356.308 597.705 349.569 588.463 355.731C570.712 367.564 505.352 369.678 424.506 382.114C316.631 398.709 186.002 424.203 150.618 424.203C139.522 424.203 104.018 430.028 100.991 417.921C84.5253 352.058 179.521 403.453 190.193 371.435C192.626 364.138 140.516 226.318 166.636 221.299Z" fill="url(#LinearGradient_8)" fill-rule="evenodd" opacity="1" stroke="none"/>
<path d="M102.876 393.969C111.834 386.217 179.387 383.493 183.924 367.791C190.232 345.959 148.032 275.938 168.375 258.338C188.447 240.97 238.121 234.338 284.427 225.411C329.228 216.775 464.384 187.956 480.256 226.829C495.446 264.033 500.068 283.718 509.981 331.497C511.715 339.858 632.903 311.404 628.262 333.579C627.695 336.285 635.356 337.948 618.463 349.05C601.57 360.151 515.757 357.192 517.611 365.214C519.857 374.93 486.948 371.891 478.747 373.31C389.408 388.77 292.634 409.15 201.501 418.427C170.636 421.569 131.229 429.203 100.363 423.862C97.5192 423.37 96.7051 422.008 99.7348 423.319" fill="url(#LinearGradient_9)" fill-rule="evenodd" opacity="1" stroke="none"/>
<path d="M163.1 231.986C233.069 208.662 312.586 197.423 387.581 188.203C430.948 182.871 471.485 182.823 511.198 169.586" fill="none" fill-rule="evenodd" opacity="1" stroke="#a7cff3" stroke-linecap="round" stroke-linejoin="round" stroke-width="19.1145"/>
<path d="M502.431 176.806C498.646 176.806 510.164 201.293 511.198 206.716C514.993 226.645 519.974 307.283 539.561 317.076" fill="none" fill-rule="evenodd" opacity="1" stroke="#a7cff3" stroke-linecap="round" stroke-linejoin="round" stroke-width="19.1145"/>
<path d="M514.292 176.29C504.56 171.424 515.044 196.597 515.839 198.981" fill="none" fill-rule="evenodd" opacity="1" stroke="#a7cff3" stroke-linecap="round" stroke-linejoin="round" stroke-width="19.1145"/>
<path d="M544.202 317.076C549.138 314.609 613.259 312.919 617.948 316.045" fill="none" fill-rule="evenodd" opacity="1" stroke="#a7cff3" stroke-linecap="round" stroke-linejoin="round" stroke-width="19.1145"/>
<path d="M869.86 143.299C875.342 142.762 884.182 141.761 888.27 138.73" fill="url(#LinearGradient_10)" fill-rule="evenodd" opacity="1" stroke="none"/>
<path d="M782.096 116.194C783.021 115.757 838.117 157.573 867.062 148.099C917.261 131.668 924.598 37.5278 870.08 22.3404C807.705 4.96463 730.026 76.8638 786.61 131.466C809.576 153.628 838.729 141.421 860.181 152.293" fill="url(#LinearGradient_11)" fill-rule="evenodd" opacity="1" stroke="none"/>
<path d="M840.458 127.796C798.201 188.131 875.385 222.867 913.025 228.453C943.315 232.949 995.193 184.324 968.405 213.726C951.06 232.762 862.36 302.279 850.937 309.461C842.531 314.747 818.335 336.65 800.078 360.521C775.16 393.098 755.13 428.768 744.521 425.611C712.928 416.21 773.437 349.775 825.368 302.537C855.427 275.194 887.486 258.895 884.518 251.863C879.116 239.067 869.954 245.657 858.968 241.292C839.379 233.507 817.533 220.771 802.391 207.863C787.761 195.391 746.916 108.338 790.679 107.558" fill="url(#LinearGradient_12)" fill-rule="evenodd" opacity="1" stroke="none"/>
<path d="M840.434 158.633C837.245 149.674 845.306 178.595 852.928 184.281C868.193 195.667 897.034 210.752 917.278 209.574C956.082 207.317 993.308 153.496 1021.65 166.96" fill="none" fill-rule="evenodd" opacity="1" stroke="#ff79a4" stroke-linecap="round" stroke-linejoin="round" stroke-width="19.1145"/>
<path d="M1020.06 168.999C1006.25 186.962 993.175 213.501 960.972 243.06C928.77 272.618 886.984 296.538 851.381 350.246" fill="none" fill-rule="evenodd" opacity="1" stroke="#ff79a4" stroke-linecap="round" stroke-linejoin="round" stroke-width="19.1145"/>
<path d="M1039.37 691.56C1024.5 706.424 979.76 594.506 996.689 559.117C1017.41 515.808 1074.31 507.836 1110.55 513.875C1117.5 515.034 1147.31 529.017 1130.58 512.294C1063.66 445.37 934.457 466.815 924.426 567.128C920.743 603.962 950.552 615.453 960.279 644.634" fill="url(#LinearGradient_13)" fill-rule="evenodd" opacity="1" stroke="none"/>
<path d="M1109.06 401.244C1101.45 401.244 1110.34 533.728 1133.77 522.011C1137.86 519.969 1132.32 438.512 1145.71 425.121C1161.42 409.41 1191.06 403.647 1216.01 387.866C1247.66 367.849 1274.68 337.231 1288.12 310.353C1292.93 300.725 1296.22 243.257 1285.13 243.257C1282.64 243.257 1282.28 254.551 1276.54 265.724C1260.73 296.509 1230.36 352.114 1217.7 361.61C1190.84 381.754 1161.85 384.904 1131.44 390.986C1124.05 392.464 1103.62 381.866 1107.19 383.059" fill="url(#LinearGradient_14)" fill-rule="evenodd" opacity="1" stroke="none"/>
<path d="M1287.53 244.015C1284.8 260.597 1282.84 252.775 1283.73 257.269C1289.86 288.071 1278.51 380.896 1299.2 403.44" fill="none" fill-rule="evenodd" opacity="1" stroke="#f4eaa9" stroke-linecap="round" stroke-linejoin="round" stroke-width="19.1145"/>
<path d="M1289.41 254.249C1286.57 273.224 1291.79 291.166 1294.37 305.153C1297.46 321.873 1287.77 389.894 1298.55 401.644" fill="none" fill-rule="evenodd" opacity="1" stroke="#f4eaa9" stroke-linecap="round" stroke-linejoin="round" stroke-width="19.1145"/>
<path d="M1296.47 396.77C1227.15 379.787 1120.03 501.048 1159.12 565.51" fill="none" fill-rule="evenodd" opacity="1" stroke="#f4eaa9" stroke-linecap="round" stroke-linejoin="round" stroke-width="19.1145"/>
<path d="M1221.75 439.018C1199.4 424.94 1286.41 377.069 1292.26 402.83" fill="none" fill-rule="evenodd" opacity="1" stroke="#f4eaa9" stroke-linecap="round" stroke-linejoin="round" stroke-width="19.1145"/>
<path d="M1241.72 422.088C1234.31 409.866 1283.13 402.23 1289.31 403.744" fill="none" fill-rule="evenodd" opacity="1" stroke="#f4eaa9" stroke-linecap="round" stroke-linejoin="round" stroke-width="19.1145"/>
<path d="M1248.74 411.26C1249.71 398.331 1290.08 391.675 1287 404.268" fill="none" fill-rule="evenodd" opacity="1" stroke="#f4eaa9" stroke-linecap="round" stroke-linejoin="round" stroke-width="19.1145"/>
</g>
<g clip-path="url(#ArtboardFrame)" id="Layer-4" vectornator:layerName="Layer 4">
<path d="M543.16 314.726L623.772 302.044L631.681 348.933L101.985 432.266L94.0761 385.378L174.033 372.799L185.234 371.036" fill="none" fill-rule="evenodd" opacity="1" stroke="#0049cf" stroke-linecap="round" stroke-linejoin="round" stroke-width="19.1145"/>
<path d="M184.056 369.675L156.634 218.031L520.426 160.44L543.624 314.92" fill="none" fill-rule="evenodd" opacity="1" stroke="#0049cf" stroke-linecap="round" stroke-linejoin="round" stroke-width="19.1145"/>
<g opacity="1">
<path d="M774.985 133.128C777.838 95.8713 774.052 62.2629 796.595 38.8774C822.06 12.4588 864.212 11.7742 890.743 37.3483C917.274 62.9224 918.137 105.071 892.672 131.489C887.749 136.596 863.223 156.594 843.883 148.808" fill="none" fill-rule="evenodd" opacity="1" stroke="#ce0000" stroke-linecap="round" stroke-linejoin="round" stroke-width="19.1145"/>
<path d="M774.299 127.764C775.111 187.497 820.735 238.523 891.899 249.766" fill="none" fill-rule="evenodd" opacity="1" stroke="#ce0000" stroke-linecap="round" stroke-linejoin="round" stroke-width="19.1145"/>
<path d="M777.654 89.0979C775.273 102.687 774.134 115.608 774.299 127.764" fill="none" fill-rule="evenodd" opacity="1" stroke="#ce0000" stroke-linecap="round" stroke-linejoin="round" stroke-width="19.1145"/>
<path d="M840.8 148.905C884.66 216.352 947.122 218.357 1010.73 147.007" fill="none" fill-rule="evenodd" opacity="1" stroke="#ce0000" stroke-linecap="round" stroke-linejoin="round" stroke-width="19.1145"/>
<path d="M1038.83 166.416C968.709 266.228 846.656 333.565 775.101 435.414" fill="none" fill-rule="evenodd" opacity="1" stroke="#ce0000" stroke-linecap="round" stroke-linejoin="round" stroke-width="19.1145"/>
<path d="M892.198 250.786C828.016 289.597 768.732 356.053 726.658 415.94" fill="none" fill-rule="evenodd" opacity="1" stroke="#ce0000" stroke-linecap="round" stroke-linejoin="round" stroke-width="19.1145"/>
<path d="M726.661 418.784C737.052 426.084 755.496 432.688 774.89 438.194" fill="none" fill-rule="evenodd" opacity="1" stroke="#ce0000" stroke-linecap="round" stroke-linejoin="round" stroke-width="19.1145"/>
<path d="M1014.12 148.218C1005.29 143.817 1030.83 158.86 1038.91 164.601" fill="none" fill-rule="evenodd" opacity="1" stroke="#ce0000" stroke-linecap="round" stroke-linejoin="round" stroke-width="19.1145"/>
</g>
<path d="M2836.04 1509.41C2832.38 1520.63 2830.32 1518.67 2841.39 1516.06" fill="none" fill-rule="evenodd" opacity="1" stroke="#f98a00" stroke-linecap="round" stroke-linejoin="round" stroke-width="19.1145"/>
<path d="M1292.61 215.947C1289.54 215.853 1298.57 264.765 1300.13 272.044C1309.73 316.599 1309.56 361.653 1312.22 408.663" fill="none" fill-rule="evenodd" opacity="1" stroke="#f98a00" stroke-linecap="round" stroke-linejoin="round" stroke-width="19.1145"/>
<path d="M2834.81 1363.05C2818.08 1388.15 2822.45 1353.27 2822.45 1337.52" fill="none" fill-rule="evenodd" opacity="1" stroke="#f98a00" stroke-linecap="round" stroke-linejoin="round" stroke-width="19.1145"/>
<path d="M2810.92 1282.35C2810.1 1279.6 2809.28 1276.86 2808.45 1274.11" fill="none" fill-rule="evenodd" opacity="1" stroke="#f98a00" stroke-linecap="round" stroke-linejoin="round" stroke-width="19.1145"/>
<path d="M1312 411.402C1278.63 409.329 1243.79 428.316 1241.25 429.731C1174.7 466.843 1137.71 539.912 1179.72 598.089" fill="none" fill-rule="evenodd" opacity="1" stroke="#f98a00" stroke-linecap="round" stroke-linejoin="round" stroke-width="19.1145"/>
<path d="M1178.71 599.496C1125.42 497.726 1005.98 596.345 1047.51 698.054" fill="none" fill-rule="evenodd" opacity="1" stroke="#f98a00" stroke-linecap="round" stroke-linejoin="round" stroke-width="19.1145"/>
<path d="M1289.93 215.105C1288.82 247.914 1259.81 296.201 1246.57 320.218C1227.96 354.003 1151.59 412.996 1108.87 382.26" fill="none" fill-rule="evenodd" opacity="1" stroke="#f98a00" stroke-linecap="round" stroke-linejoin="round" stroke-width="19.1145"/>
<path d="M1108.11 384.481C1103.46 411.418 1115.26 494.941 1129.13 521.415" fill="none" fill-rule="evenodd" opacity="1" stroke="#f98a00" stroke-linecap="round" stroke-linejoin="round" stroke-width="19.1145"/>
<path d="M2569.62 1453.65L2574.57 1454.47L2579.51 1454.47L2585.27 1454.47L2585.27 1454.47" fill="none" fill-rule="evenodd" opacity="1" stroke="#f98a00" stroke-linecap="round" stroke-linejoin="round" stroke-width="19.1145"/>
<path d="M1126.98 517.18C1067.8 457.407 973.663 469.409 945.842 514.134C879.254 621.175 999.035 671.853 1046.99 701.026" fill="none" fill-rule="evenodd" opacity="1" stroke="#f98a00" stroke-linecap="round" stroke-linejoin="round" stroke-width="19.1145"/>
</g>
</svg>
