<?xml version="1.0" encoding="UTF-8" standalone="no"?>
<!DOCTYPE svg PUBLIC "-//W3C//DTD SVG 1.1//EN" "http://www.w3.org/Graphics/SVG/1.1/DTD/svg11.dtd">
<!-- Created with Vectornator (http://vectornator.io/) -->
<svg height="100%" stroke-miterlimit="10" style="fill-rule:nonzero;clip-rule:evenodd;stroke-linecap:round;stroke-linejoin:round;" version="1.1" viewBox="0 0 3840 2160" width="100%" xml:space="preserve" xmlns="http://www.w3.org/2000/svg" xmlns:vectornator="http://vectornator.io" xmlns:xlink="http://www.w3.org/1999/xlink">
<defs/>
<g id="Layer-2" vectornator:layerName="Layer 2">
<path d="M384.41 776.702C384.41 764.53 394.187 754.662 406.247 754.662C418.307 754.662 428.084 764.53 428.084 776.702C428.084 788.875 418.307 798.743 406.247 798.743C394.187 798.743 384.41 788.875 384.41 776.702Z" fill="#ffffc4" fill-rule="evenodd" opacity="1" stroke="#fffcc3" stroke-linecap="round" stroke-linejoin="round" stroke-width="8.41671"/>
<path d="M2952.87 1019.82C2952.87 1011.04 2961.07 1003.93 2971.2 1003.93C2981.32 1003.93 2989.52 1011.04 2989.52 1019.82C2989.52 1028.59 2981.32 1035.7 2971.2 1035.7C2961.07 1035.7 2952.87 1028.59 2952.87 1019.82Z" fill="#ffffc4" fill-rule="evenodd" opacity="1" stroke="#fffcc3" stroke-linecap="round" stroke-linejoin="round" stroke-width="8.41671"/>
<path d="M3309.67 617.808C3309.67 609.71 3314.59 603.145 3320.66 603.145C3326.74 603.145 3331.66 609.71 3331.66 617.808C3331.66 625.906 3326.74 632.471 3320.66 632.471C3314.59 632.471 3309.67 625.906 3309.67 617.808Z" fill="#ffffc4" fill-rule="evenodd" opacity="1" stroke="#fffcc3" stroke-linecap="round" stroke-linejoin="round" stroke-width="8.41671"/>
<path d="M1107.78 1541.57C1107.78 1537.52 1111.61 1534.24 1116.33 1534.24C1121.06 1534.24 1124.89 1537.52 1124.89 1541.57C1124.89 1545.62 1121.06 1548.9 1116.33 1548.9C1111.61 1548.9 1107.78 1545.62 1107.78 1541.57Z" fill="#ffffc4" fill-rule="evenodd" opacity="1" stroke="#fffcc3" stroke-linecap="round" stroke-linejoin="round" stroke-width="8.41671"/>
<path d="M1633.2 1414.49C1633.2 1414.49 1633.75 1414.49 1634.43 1414.49C1635.1 1414.49 1635.65 1414.49 1635.65 1414.49C1635.65 1414.49 1635.1 1414.49 1634.43 1414.49C1633.75 1414.49 1633.2 1414.49 1633.2 1414.49Z" fill="#ffffc4" fill-rule="evenodd" opacity="1" stroke="#fffcc3" stroke-linecap="round" stroke-linejoin="round" stroke-width="8.41671"/>
<path d="M2207.51 790.569C2207.51 789.262 2208.04 788.202 2208.69 788.202C2209.35 788.202 2209.88 789.262 2209.88 790.569C2209.88 791.876 2209.35 792.936 2208.69 792.936C2208.04 792.936 2207.51 791.876 2207.51 790.569Z" fill="#ffffc4" fill-rule="evenodd" opacity="1" stroke="#fffcc3" stroke-linecap="round" stroke-linejoin="round" stroke-width="8.41671"/>
<path d="M2735.39 784.651C2735.39 783.997 2736.45 783.468 2737.76 783.468C2739.07 783.468 2740.13 783.997 2740.13 784.651C2740.13 785.305 2739.07 785.835 2737.76 785.835C2736.45 785.835 2735.39 785.305 2735.39 784.651Z" fill="#ffffc4" fill-rule="evenodd" opacity="1" stroke="#fffcc3" stroke-linecap="round" stroke-linejoin="round" stroke-width="8.41671"/>
<path d="M3185.16 1523.21C3185.16 1522.56 3185.69 1522.03 3186.34 1522.03C3187 1522.03 3187.53 1522.56 3187.53 1523.21C3187.53 1523.87 3187 1524.4 3186.34 1524.4C3185.69 1524.4 3185.16 1523.87 3185.16 1523.21Z" fill="#ffffc4" fill-rule="evenodd" opacity="1" stroke="#fffcc3" stroke-linecap="round" stroke-linejoin="round" stroke-width="8.41671"/>
<path d="M1255.9 505.323C1255.9 503.362 1256.96 501.772 1258.27 501.772C1259.57 501.772 1260.63 503.362 1260.63 505.323C1260.63 507.284 1259.57 508.874 1258.27 508.874C1256.96 508.874 1255.9 507.284 1255.9 505.323Z" fill="#ffffc4" fill-rule="evenodd" opacity="1" stroke="#fffcc3" stroke-linecap="round" stroke-linejoin="round" stroke-width="8.41671"/>
<path d="M2486.84 1202.46C2486.84 1199.85 2486.84 1197.73 2486.84 1197.73C2486.84 1197.73 2486.84 1199.85 2486.84 1202.46C2486.84 1205.07 2486.84 1207.19 2486.84 1207.19C2486.84 1207.19 2486.84 1205.07 2486.84 1202.46Z" fill="#ffffc4" fill-rule="evenodd" opacity="1" stroke="#fffcc3" stroke-linecap="round" stroke-linejoin="round" stroke-width="8.41671"/>
<path d="M2473.46 361.528C2473.46 357.364 2476.84 353.989 2481 353.989C2485.16 353.989 2488.54 357.364 2488.54 361.528C2488.54 365.691 2485.16 369.066 2481 369.066C2476.84 369.066 2473.46 365.691 2473.46 361.528Z" fill="#ffffc4" fill-rule="evenodd" opacity="1" stroke="#fffcc3" stroke-linecap="round" stroke-linejoin="round" stroke-width="8.41671"/>
<path d="M2923.62 301.22C2923.62 300.626 2923.62 300.143 2923.62 300.143C2923.62 300.143 2923.62 300.626 2923.62 301.22C2923.62 301.815 2923.62 302.297 2923.62 302.297C2923.62 302.297 2923.62 301.815 2923.62 301.22Z" fill="#ffffc4" fill-rule="evenodd" opacity="1" stroke="#fffcc3" stroke-linecap="round" stroke-linejoin="round" stroke-width="8.41671"/>
<path d="M892.545 645.835C892.545 644.05 894.473 642.604 896.852 642.604C899.231 642.604 901.16 644.05 901.16 645.835C901.16 647.619 899.231 649.065 896.852 649.065C894.473 649.065 892.545 647.619 892.545 645.835Z" fill="#ffffc4" fill-rule="evenodd" opacity="1" stroke="#fffcc3" stroke-linecap="round" stroke-linejoin="round" stroke-width="8.41671"/>
<path d="M649.161 180.605C649.161 178.821 649.643 177.375 650.238 177.375C650.832 177.375 651.315 178.821 651.315 180.605C651.315 182.39 650.832 183.836 650.238 183.836C649.643 183.836 649.161 182.39 649.161 180.605Z" fill="#ffffc4" fill-rule="evenodd" opacity="1" stroke="#fffcc3" stroke-linecap="round" stroke-linejoin="round" stroke-width="8.41671"/>
<path d="M3410.38 272.143C3410.38 272.143 3411.83 272.143 3413.61 272.143C3415.4 272.143 3416.84 272.143 3416.84 272.143C3416.84 272.143 3415.4 272.143 3413.61 272.143C3411.83 272.143 3410.38 272.143 3410.38 272.143Z" fill="#ffffc4" fill-rule="evenodd" opacity="1" stroke="#fffcc3" stroke-linecap="round" stroke-linejoin="round" stroke-width="8.41671"/>
<path d="M362.7 1680.75C362.7 1679.56 363.664 1678.6 364.854 1678.6C366.043 1678.6 367.008 1679.56 367.008 1680.75C367.008 1681.94 366.043 1682.91 364.854 1682.91C363.664 1682.91 362.7 1681.94 362.7 1680.75Z" fill="#ffffc4" fill-rule="evenodd" opacity="1" stroke="#fffcc3" stroke-linecap="round" stroke-linejoin="round" stroke-width="8.41671"/>
<path d="M1082.08 1205.83C1082.08 1202.86 1084.01 1200.45 1086.39 1200.45C1088.77 1200.45 1090.7 1202.86 1090.7 1205.83C1090.7 1208.81 1088.77 1211.22 1086.39 1211.22C1084.01 1211.22 1082.08 1208.81 1082.08 1205.83Z" fill="#ffffc4" fill-rule="evenodd" opacity="1" stroke="#fffcc3" stroke-linecap="round" stroke-linejoin="round" stroke-width="8.41671"/>
<path d="M2019 1745.37C2019 1742.99 2019 1741.06 2019 1741.06C2019 1741.06 2019 1742.99 2019 1745.37C2019 1747.75 2019 1749.68 2019 1749.68C2019 1749.68 2019 1747.75 2019 1745.37Z" fill="#ffffc4" fill-rule="evenodd" opacity="1" stroke="#fffcc3" stroke-linecap="round" stroke-linejoin="round" stroke-width="8.41671"/>
<path d="M1866.08 925.834C1866.08 925.239 1867.53 924.757 1869.31 924.757C1871.1 924.757 1872.54 925.239 1872.54 925.834C1872.54 926.429 1871.1 926.911 1869.31 926.911C1867.53 926.911 1866.08 926.429 1866.08 925.834Z" fill="#ffffc4" fill-rule="evenodd" opacity="1" stroke="#fffcc3" stroke-linecap="round" stroke-linejoin="round" stroke-width="8.41671"/>
<path d="M552.238 1398.6C552.238 1397.41 552.72 1396.45 553.315 1396.45C553.91 1396.45 554.392 1397.41 554.392 1398.6C554.392 1399.79 553.91 1400.76 553.315 1400.76C552.72 1400.76 552.238 1399.79 552.238 1398.6Z" fill="#ffffc4" fill-rule="evenodd" opacity="1" stroke="#fffcc3" stroke-linecap="round" stroke-linejoin="round" stroke-width="8.41671"/>
<path d="M2656.7 1056.35C2656.7 1044.31 2666.69 1034.55 2679.02 1034.55C2691.35 1034.55 2701.35 1044.31 2701.35 1056.35C2701.35 1068.38 2691.35 1078.14 2679.02 1078.14C2666.69 1078.14 2656.7 1068.38 2656.7 1056.35Z" fill="#ffffc4" fill-rule="evenodd" opacity="1" stroke="none"/>
<path d="M3167.89 499.462C3167.89 496.823 3170.03 494.684 3172.67 494.684C3175.31 494.684 3177.45 496.823 3177.45 499.462C3177.45 502.1 3175.31 504.239 3172.67 504.239C3170.03 504.239 3167.89 502.1 3167.89 499.462Z" fill="#ffffc4" fill-rule="evenodd" opacity="1" stroke="none"/>
<path d="M3578.76 479.157C3578.76 477.178 3579.83 475.574 3581.15 475.574C3582.47 475.574 3583.54 477.178 3583.54 479.157C3583.54 481.136 3582.47 482.74 3581.15 482.74C3579.83 482.74 3578.76 481.136 3578.76 479.157Z" fill="#ffffc4" fill-rule="evenodd" opacity="1" stroke="none"/>
<path d="M1536.36 270.139C1536.36 268.82 1536.89 267.75 1537.55 267.75C1538.21 267.75 1538.75 268.82 1538.75 270.139C1538.75 271.458 1538.21 272.528 1537.55 272.528C1536.89 272.528 1536.36 271.458 1536.36 270.139Z" fill="#ffffc4" fill-rule="evenodd" opacity="1" stroke="none"/>
</g>
</svg>
