<?xml version="1.0" encoding="UTF-8" standalone="no"?>
<!DOCTYPE svg PUBLIC "-//W3C//DTD SVG 1.1//EN" "http://www.w3.org/Graphics/SVG/1.1/DTD/svg11.dtd">
<!-- Created with Vectornator (http://vectornator.io/) -->
<svg height="100%" stroke-miterlimit="10" style="fill-rule:nonzero;clip-rule:evenodd;stroke-linecap:round;stroke-linejoin:round;" version="1.1" viewBox="0 0 3840 2160" width="100%" xml:space="preserve" xmlns="http://www.w3.org/2000/svg" xmlns:vectornator="http://vectornator.io" xmlns:xlink="http://www.w3.org/1999/xlink">
<defs/>
<g id="Layer-3" vectornator:layerName="Layer 3">
<path d="M1594.77 709.506C1594.77 709.01 1595.58 708.608 1596.57 708.608C1597.56 708.608 1598.36 709.01 1598.36 709.506C1598.36 710.001 1597.56 710.403 1596.57 710.403C1595.58 710.403 1594.77 710.001 1594.77 709.506Z" fill="#c3e4ff" fill-rule="evenodd" opacity="1" stroke="none"/>
<path d="M2316.22 574.907C2316.22 570.447 2320.64 566.832 2326.09 566.832C2331.54 566.832 2335.96 570.447 2335.96 574.907C2335.96 579.368 2331.54 582.983 2326.09 582.983C2320.64 582.983 2316.22 579.368 2316.22 574.907Z" fill="#c3e4ff" fill-rule="evenodd" opacity="1" stroke="none"/>
<path d="M1128.17 241.104C1128.17 234.661 1133.79 229.439 1140.73 229.439C1147.67 229.439 1153.29 234.661 1153.29 241.104C1153.29 247.546 1147.67 252.769 1140.73 252.769C1133.79 252.769 1128.17 247.546 1128.17 241.104Z" fill="#c3e4ff" fill-rule="evenodd" opacity="1" stroke="none"/>
<path d="M3111.25 231.954C3111.25 221.644 3119.27 213.287 3129.16 213.287C3139.06 213.287 3147.08 221.644 3147.08 231.954C3147.08 242.264 3139.06 250.621 3129.16 250.621C3119.27 250.621 3111.25 242.264 3111.25 231.954Z" fill="#c3e4ff" fill-rule="evenodd" opacity="1" stroke="none"/>
<path d="M2671.56 636.823C2671.56 634.84 2673.57 633.233 2676.05 633.233C2678.52 633.233 2680.53 634.84 2680.53 636.823C2680.53 638.805 2678.52 640.412 2676.05 640.412C2673.57 640.412 2671.56 638.805 2671.56 636.823Z" fill="#c3e4ff" fill-rule="evenodd" opacity="1" stroke="none"/>
<path d="M769.238 1746.81C769.238 1746.31 769.238 1745.91 769.238 1745.91C769.238 1745.91 769.238 1746.31 769.238 1746.81C769.238 1747.31 769.238 1747.71 769.238 1747.71C769.238 1747.71 769.238 1747.31 769.238 1746.81Z" fill="#c3e4ff" fill-rule="evenodd" opacity="1" stroke="none"/>
<path d="M2204.95 1131.25C2204.95 1129.76 2204.95 1128.55 2204.95 1128.55C2204.95 1128.55 2204.95 1129.76 2204.95 1131.25C2204.95 1132.73 2204.95 1133.94 2204.95 1133.94C2204.95 1133.94 2204.95 1132.73 2204.95 1131.25Z" fill="#c3e4ff" fill-rule="evenodd" opacity="1" stroke="none"/>
<path d="M2938.96 669.126C2938.96 663.179 2943.78 658.358 2949.73 658.358C2955.68 658.358 2960.5 663.179 2960.5 669.126C2960.5 675.073 2955.68 679.894 2949.73 679.894C2943.78 679.894 2938.96 675.073 2938.96 669.126Z" fill="#c3e4ff" fill-rule="evenodd" opacity="1" stroke="none"/>
<path d="M815.615 930.687C815.615 926.863 819.955 923.762 825.31 923.762C830.664 923.762 835.004 926.863 835.004 930.687C835.004 934.512 830.664 937.612 825.31 937.612C819.955 937.612 815.615 934.512 815.615 930.687Z" fill="#c3e4ff" fill-rule="evenodd" opacity="1" stroke="none"/>
<path d="M272.701 297.057C272.701 294.38 275.181 292.21 278.241 292.21C281.301 292.21 283.781 294.38 283.781 297.057C283.781 299.734 281.301 301.905 278.241 301.905C275.181 301.905 272.701 299.734 272.701 297.057Z" fill="#c3e4ff" fill-rule="evenodd" opacity="1" stroke="none"/>
<path d="M871.014 118.394C871.014 114.952 873.804 112.162 877.246 112.162C880.689 112.162 883.479 114.952 883.479 118.394C883.479 121.836 880.689 124.627 877.246 124.627C873.804 124.627 871.014 121.836 871.014 118.394Z" fill="#c3e4ff" fill-rule="evenodd" opacity="1" stroke="none"/>
<path d="M1747.71 150.941C1747.71 150.177 1748.02 149.557 1748.4 149.557C1748.78 149.557 1749.09 150.177 1749.09 150.941C1749.09 151.706 1748.78 152.326 1748.4 152.326C1748.02 152.326 1747.71 151.706 1747.71 150.941Z" fill="#c3e4ff" fill-rule="evenodd" opacity="1" stroke="none"/>
<path d="M1990.08 177.949C1990.08 176.036 1991.32 174.486 1992.85 174.486C1994.38 174.486 1995.62 176.036 1995.62 177.949C1995.62 179.861 1994.38 181.411 1992.85 181.411C1991.32 181.411 1990.08 179.861 1990.08 177.949Z" fill="#c3e4ff" fill-rule="evenodd" opacity="1" stroke="none"/>
<path d="M1961 560.204C1961 555.997 1965.03 552.587 1970 552.587C1974.97 552.587 1979 555.997 1979 560.204C1979 564.411 1974.97 567.822 1970 567.822C1965.03 567.822 1961 564.411 1961 560.204Z" fill="#c3e4ff" fill-rule="evenodd" opacity="1" stroke="none"/>
<path d="M3355.44 866.194C3355.44 860.297 3360.22 855.516 3366.12 855.516C3372.01 855.516 3376.79 860.297 3376.79 866.194C3376.79 872.091 3372.01 876.871 3366.12 876.871C3360.22 876.871 3355.44 872.091 3355.44 866.194Z" fill="#c3e4ff" fill-rule="evenodd" opacity="1" stroke="none"/>
<path d="M3540.51 775.436C3540.51 772.487 3542.9 770.097 3545.85 770.097C3548.8 770.097 3551.19 772.487 3551.19 775.436C3551.19 778.384 3548.8 780.774 3545.85 780.774C3542.9 780.774 3540.51 778.384 3540.51 775.436Z" fill="#c3e4ff" fill-rule="evenodd" opacity="1" stroke="none"/>
<path d="M1389.01 843.949C1389.01 838.543 1394.59 834.161 1401.47 834.161C1408.35 834.161 1413.93 838.543 1413.93 843.949C1413.93 849.355 1408.35 853.737 1401.47 853.737C1394.59 853.737 1389.01 849.355 1389.01 843.949Z" fill="#c3e4ff" fill-rule="evenodd" opacity="1" stroke="none"/>
<path d="M421.112 1053.4C421.112 1039.76 431.775 1028.71 444.929 1028.71C458.082 1028.71 468.745 1039.76 468.745 1053.4C468.745 1067.04 458.082 1078.1 444.929 1078.1C431.775 1078.1 421.112 1067.04 421.112 1053.4Z" fill="#c3e4ff" fill-rule="evenodd" opacity="1" stroke="none"/>
<path d="M3514.63 292.49C3514.63 279.215 3526.02 268.454 3540.06 268.454C3554.11 268.454 3565.49 279.215 3565.49 292.49C3565.49 305.765 3554.11 316.526 3540.06 316.526C3526.02 316.526 3514.63 305.765 3514.63 292.49Z" fill="#c3e4ff" fill-rule="evenodd" opacity="1" stroke="none"/>
<path d="M958.79 714.851C958.79 703.111 968.867 693.594 981.297 693.594C993.728 693.594 1003.8 703.111 1003.8 714.851C1003.8 726.591 993.728 736.108 981.297 736.108C968.867 736.108 958.79 726.591 958.79 714.851Z" fill="#c3e4ff" fill-rule="evenodd" opacity="1" stroke="none"/>
<path d="M2564.32 1230.02C2564.32 1225.19 2567.68 1221.27 2571.82 1221.27C2575.97 1221.27 2579.33 1225.19 2579.33 1230.02C2579.33 1234.86 2575.97 1238.77 2571.82 1238.77C2567.68 1238.77 2564.32 1234.86 2564.32 1230.02Z" fill="#c3e4ff" fill-rule="evenodd" opacity="1" stroke="none"/>
<path d="M1976.63 1127.49C1976.63 1117.13 1984.46 1108.73 1994.13 1108.73C2003.8 1108.73 2011.64 1117.13 2011.64 1127.49C2011.64 1137.85 2003.8 1146.24 1994.13 1146.24C1984.46 1146.24 1976.63 1137.85 1976.63 1127.49Z" fill="#c3e4ff" fill-rule="evenodd" opacity="1" stroke="none"/>
<path d="M2431.78 927.422C2431.78 923.969 2434.58 921.169 2438.03 921.169C2441.48 921.169 2444.28 923.969 2444.28 927.422C2444.28 930.874 2441.48 933.674 2438.03 933.674C2434.58 933.674 2431.78 930.874 2431.78 927.422Z" fill="#c3e4ff" fill-rule="evenodd" opacity="1" stroke="none"/>
<path d="M3056.98 1002.45C3056.98 998.993 3056.98 996.194 3056.98 996.194C3056.98 996.194 3056.98 998.993 3056.98 1002.45C3056.98 1005.9 3056.98 1008.7 3056.98 1008.7C3056.98 1008.7 3056.98 1005.9 3056.98 1002.45Z" fill="#c3e4ff" fill-rule="evenodd" opacity="1" stroke="none"/>
<path d="M3517.14 1081.22C3517.14 1077.08 3522.73 1073.72 3529.64 1073.72C3536.55 1073.72 3542.14 1077.08 3542.14 1081.22C3542.14 1085.37 3536.55 1088.72 3529.64 1088.72C3522.73 1088.72 3517.14 1085.37 3517.14 1081.22Z" fill="#c3e4ff" fill-rule="evenodd" opacity="1" stroke="none"/>
</g>
</svg>
